<?xml version="1.0" standalone="no"?> <!DOCTYPE svg PUBLIC "-//W3C//DTD SVG 1.0//EN" "http://www.w3.org/TR/2001/REC-SVG-20010904/DTD/svg10.dtd" > <svg xmlns="http://www.w3.org/2000/svg" width="100%" height="100%">
<defs >
<font id="Fontin-SmallCaps" horiz-adv-x="988" ><font-face
    font-family="Fontin SmallCaps"
    units-per-em="2048"
    panose-1="0 0 0 0 0 0 0 0 0 0"
    ascent="1821"
    descent="-520"
    alphabetic="0" />
<missing-glyph horiz-adv-x="2048" />
<glyph unicode=" " glyph-name="space" horiz-adv-x="583" />
<glyph unicode="!" glyph-name="exclam" horiz-adv-x="501" d="M295 311H219L162 1022Q160 1059 150 1087T131 1125L123 1135V1174Q182 1213 240 1212Q316 1212 347 1184T379 1096Q379 1065 362 967Q344 858 340 807L295 311ZM365 129T365 84T333 6T256 -27Q209
-27 177 5T145 84Q145 129 178 161T256 193T333 161Z" />
<glyph unicode="&quot;" glyph-name="quotedbl" horiz-adv-x="802" d="M266 1554H373L350 1389Q319 1180 164 1118Q139 1110 113 1112T82 1118Q143 1173 165 1285T202 1475T266 1554ZM594 1554H700L678 1389Q647 1180 492 1118Q467 1110 441 1112T410 1118Q471
1173 493 1285T530 1475T594 1554Z" />
<glyph unicode="#" glyph-name="numbersign" horiz-adv-x="1441" d="M129 782L143 913Q143 909 444 905Q462 1120 463 1210Q463 1261 446 1337Q497 1376 537 1376Q582 1376 593 1341T604 1233Q604 1190 571 905H842Q860 1120 860 1210Q860 1261 844 1337Q895 1376
934 1376Q979 1376 990 1341T1001 1233Q1001 1190 969 905H1067Q1329 905 1352 922Q1346 879 1321 850T1276 808T1202 789T1133 782T1049 782H954Q948 735 939 647T926 518H1030Q1292 518 1315 535Q1309 492 1285 463T1240 421T1166 402T1096 395T1012 395H913Q890
182 883 16L743 -14Q778 283 791 395H516Q493 182 485 16L346 -14Q383 299 393 397H129Q100 397 92 395L106 526Q106 522 408 518L434 784H166Q137 784 129 782ZM803 518Q809 569 831 782H559L528 518H803Z" />
<glyph unicode="$" glyph-name="dollar" horiz-adv-x="937" d="M555 -217H455Q455 -88 457 -27Q324 -25 243 30T162 158Q162 197 186 227Q198 182 277 146T451 109H457Q461 482 461 592Q375 649 338 675T241 759T155 877T129 1012Q129 1145 215 1250T455 1374Q453
1403 450 1450T446 1516Q491 1526 504 1526Q514 1526 522 1524T535 1517T545 1505T551 1489T554 1472T555 1451T555 1429T554 1403T553 1376Q676 1368 759 1316T842 1180Q842 1145 823 1102Q817 1155 735 1196T551 1243Q549 1188 548 1038T547 813Q627 766 676
730T784 638T872 514T901 365Q901 222 805 115T551 -18L555 -217ZM707 305Q707 418 545 535Q543 420 547 119Q707 160 707 305ZM287 1067Q287 973 461 864Q461 1143 459 1239Q287 1212 287 1067Z" />
<glyph unicode="%" glyph-name="percent" horiz-adv-x="1634" d="M432 0H287Q815 754 999 1027T1188 1350Q1227 1381 1270 1380Q1331 1380 1331 1339Q1331 1321 1319 1295T1294 1249T1260 1202T1235 1169Q1231 1163 1050 906T680 376T432 0ZM1249 662Q1093 662
997 564T901 307Q901 145 978 61T1171 -23Q1327 -23 1425 79T1528 334Q1528 490 1449 576T1249 662ZM1221 59Q1135 59 1087 138T1038 350Q1038 454 1082 516T1200 578Q1290 578 1342 502T1395 297Q1395 191 1345 125T1221 59ZM481 1378Q325 1378 229 1280T133 1024Q133
862 210 778T403 694Q559 694 657 796T760 1051Q760 1207 681 1292T481 1378ZM453 776Q367 776 319 855T270 1067Q270 1171 314 1232T432 1294Q522 1294 574 1219T627 1014Q627 908 577 842T453 776Z" />
<glyph unicode="&amp;" glyph-name="ampersand" horiz-adv-x="1335" d="M924 807L907 782Q921 706 922 651Q922 411 850 287Q668 451 512 674Q811 854 811 1030Q811 1122 733 1179T530 1237Q374 1237 284 1162T193 965Q193 838 322 633Q93 479 92 289Q92 160 189
70T449 -20Q674 -20 803 96Q963 -21 1122 -20Q1212 -20 1261 19T1311 115Q1254 92 1204 92Q1081 92 913 231Q1017 415 1030 698Q1044 698 1072 697T1110 696Q1163 696 1204 724T1245 793L1243 825Q1233 807 1180 807H924ZM358 578Q536 312 733 150Q667 101 553
100Q430 100 347 184T264 381Q264 510 358 578ZM674 995Q674 856 475 731Q358 909 358 1020Q358 1083 398 1119T510 1155Q674 1155 674 995Z" />
<glyph unicode="&apos;" glyph-name="quotesingle" horiz-adv-x="475" d="M266 1554H373L350 1389Q319 1180 164 1118Q139 1110 113 1112T82 1118Q143 1173 165 1285T202 1475T266 1554Z" />
<glyph unicode="(" glyph-name="parenleft" horiz-adv-x="675" d="M131 485Q131 241 198 8T381 -372T621 -520Q611 -520 578 -472T500 -331T413 -120T342 161T313 485Q313 641 341 788T409 1039T493 1223T571 1341T621 1380Q484 1380 370 1251T194 917T131 485Z" />
<glyph unicode=")" glyph-name="parenright" horiz-adv-x="675" d="M545 485Q545 241 478 8T295 -372T55 -520Q65 -520 98 -472T176 -331T263 -120T333 161T362 485Q362 641 335 788T267 1039T183 1223T105 1341T55 1380Q192 1380 306 1251T482 917T545 485Z" />
<glyph unicode="*" glyph-name="asterisk" horiz-adv-x="823" d="M524 1274L510 1249Q508 1245 504 1243H565Q788 1243 811 1260Q797 1174 735 1147T565 1120H506L514 1108Q524 1090 543 1057T573 1008T598 967T620 929T639 901T656 880T670 870Q636 858 608 858Q573
858 545 871T490 919T449 976T406 1053L397 1077L387 1053Q266 844 266 813V809Q207 856 207 924Q207 990 289 1128Q250 1130 178 1130Q28 1130 4 1112Q12 1161 37 1192T109 1234T189 1248T287 1251H301L297 1257Q176 1478 139 1495Q172 1507 199 1507Q232 1507
259 1493T313 1448T355 1395T397 1327L406 1305Q410 1321 414 1327Q541 1532 541 1577V1581Q600 1534 600 1468Q600 1409 524 1274Z" />
<glyph unicode="+" glyph-name="plus" horiz-adv-x="964" d="M535 139H403Q411 139 412 457Q363 457 303 458T198 459T150 459Q121 459 113 457V588Q113 580 412 580V606Q412 866 395 889Q442 899 461 899Q477 899 489 895T511 886T525 870T533 850T538 825T539
798T539 766T539 735Q539 731 538 678T537 580H580Q842 580 864 596Q858 553 834 525T789 483T715 463T646 457T561 457H535Q533 359 532 176Q533 147 535 139Z" />
<glyph unicode="," glyph-name="comma" horiz-adv-x="409" d="M43 -295L6 -246Q141 -117 141 -20Q141 70 82 70Q76 119 108 156T186 193Q303 193 303 61Q303 -19 235 -117T43 -295Z" />
<glyph unicode="-" glyph-name="hyphen" horiz-adv-x="618" d="M59 436V567Q59 559 281 559Q543 559 565 575Q559 532 535 504T490 462T416 443T346 436T262 436Q235 436 172 437T96 438Q67 438 59 436Z" />
<glyph unicode="." glyph-name="period" horiz-adv-x="409" d="M301 129T301 84T270 6T193 -27T115 5T82 84Q82 129 114 161T192 193T269 161Z" />
<glyph unicode="/" glyph-name="slash" horiz-adv-x="595" d="M129 -500H-33Q151 233 258 746T356 1341Q364 1355 409 1373T494 1391Q539 1391 541 1337Q543 1312 537 1280T521 1213T510 1169Q510 1165 480 1040T412 762T328 407T241 32T169 -290T129 -500Z" />
<glyph unicode="0" glyph-name="zero" horiz-adv-x="1001" d="M543 1204Q334 1204 208 1025T82 567Q82 270 190 121T453 -29Q670 -29 795 154T920 614Q920 901 814 1052T543 1204ZM518 78Q409 78 337 240T260 651Q262 827 322 952T467 1077Q580 1077 658 925T737
537Q737 344 669 211T518 78Z" />
<glyph unicode="1" glyph-name="one" horiz-adv-x="1001" d="M711 0H508V8L514 860Q514 969 477 999L180 907L143 1010L614 1208H645L696 1122Q690 999 690 965Q690 619 694 154Q695 78 711 0Z" />
<glyph unicode="2" glyph-name="two" horiz-adv-x="1001" d="M125 0H721Q889 0 889 117Q889 144 883 164Q865 146 830 143T639 139H289Q312 155 347 185T475 305T638 483T767 691T825 913Q825 1034 735 1119T459 1204Q330 1204 230 1151T129 1018Q129 983 154
960T219 936Q254 936 285 958V973Q285 1024 330 1063T438 1102Q528 1102 573 1029T618 850Q618 758 568 647T446 441T300 267T176 139L125 90V0Z" />
<glyph unicode="3" glyph-name="three" horiz-adv-x="1001" d="M211 -170Q168 -170 142 -148T109 -102L102 -80Q135 -84 156 -84Q271 -84 374 -52T559 65T645 276Q645 348 627 402T584 486T518 537T449 565T377 580L399 635Q401 635 403 637Q495 680 554 757T614
915Q614 989 573 1045T446 1102Q380 1102 334 1062T293 958Q238 921 188 943T137 1018Q137 1096 230 1150T451 1204Q629 1204 722 1127T815 946Q815 770 563 641Q622 633 667 617T761 566T834 469T860 315Q860 192 799 95T639 -57T432 -141T211 -170Z" />
<glyph unicode="4" glyph-name="four" horiz-adv-x="1001" d="M57 203L31 233Q97 434 310 790T618 1208H743L739 1122Q733 999 733 965Q731 684 733 342Q846 342 888 346T946 367Q983 205 784 203H735Q735 53 737 -14Q737 -90 754 -168H551V-160L553 203H57ZM571
1004Q508 934 389 718T211 342H553L557 848Q559 928 571 1004Z" />
<glyph unicode="5" glyph-name="five" horiz-adv-x="1001" d="M250 1178H582Q594 1178 619 1178Q741 1178 774 1181T825 1202Q862 1040 664 1038H324L311 750Q837 750 838 336Q838 94 660 -38T250 -170Q207 -170 181 -148T147 -102L141 -80Q174 -84 195 -84Q367
-84 491 12T623 297Q623 414 577 492T475 601T354 641Q313 647 276 648T220 646L203 643L184 676L217 1151L250 1178Z" />
<glyph unicode="6" glyph-name="six" horiz-adv-x="1001" d="M602 848Q455 848 307 741Q325 997 418 1123T647 1249Q813 1249 872 1157Q880 1184 881 1214Q881 1368 606 1368Q516 1368 431 1326T270 1195T147 944T100 569Q100 454 120 354T184 166T306 26T492
-27Q693 -27 805 119T918 477Q918 665 831 756T602 848ZM303 633V686Q391 739 500 739Q725 739 725 397Q725 78 541 78Q303 78 303 633Z" />
<glyph unicode="7" glyph-name="seven" horiz-adv-x="1001" d="M436 -49L950 1143L918 1178H375Q363 1178 337 1178Q205 1178 162 1182T102 1202Q102 1184 100 1157T117 1102T167 1049T261 1008T414 991Q512 991 590 999T696 1016L725 1024L328 80Q258 -108 190
-137Q221 -160 262 -169T354 -152T436 -49Z" />
<glyph unicode="8" glyph-name="eight" horiz-adv-x="1001" d="M109 291Q109 402 161 493T264 625T375 696Q264 782 204 860T143 1028Q143 1182 247 1275T530 1368Q675 1368 765 1297T856 1110Q856 1047 830 987T760 883T684 814T618 768Q692 715 736 678T831
588T907 481T932 369Q932 197 802 85T477 -27Q332 -27 221 51T109 291ZM496 82Q588 80 663 147T739 297Q739 354 694 417T608 515T471 623Q452 637 442 645Q260 549 260 332Q260 221 328 153T496 82ZM324 1096Q324 1026 382 962T553 815Q709 895 709 1067Q709 1161
656 1213T508 1266Q424 1266 374 1221T324 1096Z" />
<glyph unicode="9" glyph-name="nine" horiz-adv-x="1001" d="M385 330H408Q551 330 700 434Q677 176 589 52T362 -72Q288 -72 219 -39T117 41Q109 14 109 -14Q109 -102 199 -146T406 -190Q496 -190 581 -147T741 -14T863 239T909 618Q909 772 875 898T749 1114T518
1204Q317 1204 206 1057T94 694Q94 518 173 426T385 330ZM479 1100Q545 1098 591 1050T661 922T696 757T707 573Q707 516 705 489Q621 440 512 440Q287 440 287 776Q287 1100 469 1100H479Z" />
<glyph unicode=":" glyph-name="colon" horiz-adv-x="528" d="M387 86Q387 37 353 3T272 -31Q223 -31 190 3T156 86Q156 133 189 167T272 201Q319 201 353 167T387 86ZM387 676Q387 627 353 593T272 559Q223 559 190 593T156 676Q156 723 189 757T272 791Q319
791 353 757T387 676Z" />
<glyph unicode=";" glyph-name="semicolon" horiz-adv-x="528" d="M342 715T342 670T311 592T234 559T156 591T123 670Q123 715 155 746T233 778T310 747ZM84 -295L47 -246Q182 -117 182 -20Q182 70 123 70Q117 119 149 156T227 193Q344 193 344 61Q344 -19 276
-117T84 -295Z" />
<glyph unicode="&lt;" glyph-name="less" horiz-adv-x="755" d="M268 506Q311 535 336 569L563 872Q618 942 659 956H629Q570 956 499 933T389 866L121 547L80 506Q109 479 125 461L397 139Q434 96 501 74T629 51H659Q639 59 617 77T583 111L571 125L340 438Q326
454 309 470T280 497L268 506Z" />
<glyph unicode="=" glyph-name="equal" horiz-adv-x="983" d="M113 600V731Q113 723 580 723Q842 723 864 739Q858 696 834 668T789 626T715 606T646 600T561 600Q534 600 348 601T150 602Q121 602 113 600ZM113 293V424Q113 416 580 416Q842 416 864 432Q858
389 834 361T789 319T715 299T646 293T561 293Q534 293 348 294T150 295Q121 295 113 293Z" />
<glyph unicode="&gt;" glyph-name="greater" horiz-adv-x="755" d="M473 506Q430 535 406 569L178 872Q123 942 82 956H113Q172 956 242 933T352 866L623 547L662 506Q633 479 616 461L344 139Q307 96 240 74T113 51H82Q102 59 124 77T159 111L170 125L401 438Q415
454 433 470T462 497L473 506Z" />
<glyph unicode="?" glyph-name="question" horiz-adv-x="753" d="M375 319L328 297Q203 348 203 446Q203 524 236 595T317 715T412 807T492 891T526 969Q526 1039 484 1078T377 1118Q330 1118 298 1090T266 1008Q266 985 274 963Q243 924 190 924Q141 924 117
951T92 1012Q92 1106 174 1158T367 1210Q498 1210 595 1136T692 932Q692 869 655 809T567 698T464 600T375 499T338 393Q338 348 375 319ZM436 129T436 84T405 6T328 -27T250 5T217 84Q217 129 250 161T328 193T404 161Z" />
<glyph unicode="@" glyph-name="at" horiz-adv-x="1847" d="M1219 348Q1219 176 1236 132Q1258 76 1319 76Q1423 76 1508 225T1593 578Q1593 846 1403 1035T942 1225Q647 1225 454 1006T260 455Q260 168 407 -28T797 -268Q811 -272 846 -272Q905 -272 924 -260Q891
-381 735 -381Q481 -381 296 -141T111 406Q111 660 228 877T549 1221T991 1348Q1300 1348 1510 1143T1720 631Q1720 361 1576 153T1225 -55Q1135 -55 1085 1T1042 174Q993 76 919 27T770 -23Q647 -23 558 98T469 381Q469 664 641 850T1057 1036Q1151 1036 1245
1006Q1237 943 1232 855T1226 697T1223 516T1219 348ZM1030 219L1057 946Q1043 946 1031 946T973 936T892 910T809 853T730 759T676 616T653 416Q653 299 717 212T868 125Q958 125 1030 219Z" />
<glyph unicode="A" glyph-name="A" horiz-adv-x="1208" d="M717 1395Q729 1327 766 1221L1126 164Q1151 74 1198 0H950Q946 45 936 70L799 471H324L168 27Q166 21 164 12T162 0H10L475 1221Q487 1260 506 1289T544 1335T588 1363T632 1378T678 1387T717 1395ZM764
569L565 1153L358 569H764Z" />
<glyph unicode="B" glyph-name="B" horiz-adv-x="1138" d="M225 0L227 139V1085Q227 1114 225 1139T222 1183T216 1219T209 1246T201 1268T193 1285T182 1300L174 1313L188 1348L551 1358Q739 1364 842 1275T946 1065Q946 887 748 770Q1037 686 1036 414Q1036
226 904 113T549 0H225ZM518 698L432 702Q428 301 436 98H567Q710 98 782 171T854 346Q854 512 761 602T518 698ZM543 797Q611 797 680 784Q772 872 772 1008Q772 1119 707 1183T543 1245L442 1243Q442 1112 440 1024Q434 803 434 797H543Z" />
<glyph unicode="C" glyph-name="C" horiz-adv-x="1247" d="M1157 311Q1165 295 1165 268Q1165 137 1031 55T700 -27Q419 -27 263 161T106 645Q106 967 287 1169T762 1372Q893 1372 1009 1322T1161 1202Q1161 1165 1121 1101T1032 1016L999 1042Q999 1099 930 1174T737
1249Q538 1249 435 1100T332 733Q332 475 451 294T791 113Q891 113 998 165T1157 311Z" />
<glyph unicode="D" glyph-name="D" horiz-adv-x="1386" d="M659 0H225Q227 35 227 96V139V1069Q227 1247 174 1313L188 1348L651 1358Q909 1362 1094 1193T1280 715Q1280 408 1109 204T659 0ZM684 109Q827 109 941 249T1057 608Q1061 876 914 1063T557 1243L442
1239Q442 1231 437 949T432 508Q432 279 438 109H684Z" />
<glyph unicode="E" glyph-name="E" horiz-adv-x="1024" d="M227 1085Q227 1114 225 1139T222 1183T216 1219T209 1246T201 1268T193 1285T182 1300L174 1313L188 1348H496L846 1354Q881 1319 887 1230T872 1126H834Q824 1173 765 1205T618 1239L444 1245Q430 1001
430 745H752Q781 745 799 751T822 765L827 772Q831 756 831 731Q831 690 815 666T764 632T709 621T647 618Q645 618 596 619T506 621T428 621Q426 420 434 141Q434 137 438 129H827Q856 129 874 136T898 150L903 156Q907 140 907 115Q907 82 894 59T865 25T818
8T771 1T723 0H225L227 139V1085Z" />
<glyph unicode="F" glyph-name="F" horiz-adv-x="972" d="M451 0H225L227 139V1085Q227 1114 225 1139T222 1183T216 1219T209 1246T201 1268T193 1285T182 1300L174 1313L188 1348H498L848 1354Q883 1319 889 1230T874 1126H836Q826 1173 767 1205T621 1239L444
1245Q430 1001 430 745H752Q781 745 799 751T822 765L827 772Q831 756 831 731Q831 690 815 666T764 632T709 621T647 618Q645 618 596 619T506 621T428 621Q426 420 434 141Q435 55 451 0Z" />
<glyph unicode="G" glyph-name="G" horiz-adv-x="1323" d="M762 1372H764Q895 1372 1011 1322T1163 1202Q1163 1165 1123 1101T1034 1016L1001 1042Q1001 1099 932 1174T737 1249Q563 1249 452 1120T334 750Q334 447 470 275T786 102Q817 102 864 110T943 126L975
133V291Q975 320 973 345T970 389T964 425T956 451T948 473T940 489T931 504T922 516L936 551Q999 578 1077 578Q1143 578 1194 553Q1182 322 1180 229L1182 43Q1149 39 1124 33Q839 -26 670 -27Q441 -27 274 156T106 645Q106 967 287 1169T762 1372Z" />
<glyph unicode="H" glyph-name="H" horiz-adv-x="1546" d="M1317 541Q1317 47 1339 0H1120Q1114 35 1114 119Q1114 121 1114 198T1115 398T1116 629H426V541Q426 47 449 0H223Q227 135 227 1087Q227 1116 225 1141T222 1185T216 1221T209 1248T201 1269T193 1286T183
1300T174 1313L188 1348Q251 1375 330 1374Q396 1374 446 1350Q432 1020 426 735H1116Q1118 887 1118 1087Q1118 1116 1116 1141T1113 1185T1107 1221T1100 1248T1092 1269T1083 1286T1074 1300T1065 1313L1079 1348Q1140 1375 1219 1374Q1282 1374 1337 1350Q1317
891 1317 541Z" />
<glyph unicode="I" glyph-name="I" horiz-adv-x="653" d="M449 0H223Q227 135 227 1090Q227 1119 225 1144T222 1187T216 1223T209 1250T201 1272T193 1288T183 1302T174 1315L188 1350Q251 1377 330 1376Q396 1376 446 1352Q426 893 426 541Q426 47 449 0Z" />
<glyph unicode="J" glyph-name="J" horiz-adv-x="643" d="M424 121Q422 -119 274 -253T-63 -387Q-141 -387 -186 -346T-231 -252Q-231 -215 -206 -190T-133 -164Q-113 -164 -88 -170Q-78 -254 18 -254Q135 -254 181 -162T227 127Q227 1008 223 1090Q223 1119 221
1144T218 1187T212 1223T205 1250T197 1272T188 1288T179 1302T170 1315L184 1350Q247 1377 326 1376Q392 1376 442 1352Q422 893 422 541Q422 484 423 329T424 121Z" />
<glyph unicode="K" glyph-name="K" horiz-adv-x="1189" d="M449 0H223Q227 135 227 1090Q227 1119 225 1144T222 1187T216 1223T209 1250T201 1272T193 1288T183 1302T174 1315L188 1350Q251 1377 330 1376Q396 1376 446 1352Q432 1012 426 713L850 1180Q895 1227
895 1276Q895 1294 885 1315L899 1350Q954 1373 1038 1372Q1128 1372 1153 1352Q1137 1323 1125 1304T1101 1266T1066 1221T1024 1174T960 1106T877 1022T761 904T614 756Q649 709 814 488T1079 135T1190 0H905Q641 422 473 612L426 670V541Q426 47 449 0Z" />
<glyph unicode="L" glyph-name="L" horiz-adv-x="964" d="M897 0H223Q227 135 227 1090Q227 1119 225 1144T222 1187T216 1223T209 1250T201 1272T193 1288T183 1302T174 1315L188 1350Q251 1377 330 1376Q396 1376 446 1352Q426 893 426 541Q426 226 432 113H668Q756
113 814 143T883 221H922Q942 196 935 114T897 0Z" />
<glyph unicode="M" glyph-name="M" horiz-adv-x="1843" d="M965 -43L879 -25Q766 -5 729 131L391 961Q377 998 356 1079Q360 1022 360 944Q346 133 346 106Q346 32 354 0H205L209 33Q248 756 254 1237Q219 1300 199 1315L213 1350Q289 1377 354 1376Q440 1376
483 1346Q520 1203 685 790T934 201L1354 1276Q1358 1288 1366 1298T1386 1317T1409 1331T1438 1342T1469 1351T1506 1357T1543 1361T1585 1364T1628 1368Q1626 1321 1625 1285T1624 1182T1622 1032Q1616 682 1634 121Q1638 39 1649 0H1423L1425 123Q1429 379 1417
956Q1417 974 1415 1021T1413 1079L1370 946L1020 131L965 -43Z" />
<glyph unicode="N" glyph-name="N" horiz-adv-x="1548" d="M1188 440Q1192 450 1192 1094Q1192 1252 1139 1315L1153 1350Q1188 1375 1255 1374Q1318 1374 1348 1352Q1323 807 1323 391Q1323 160 1333 0H1221L442 891Q372 981 358 1018Q364 983 365 928Q365 879
363 778T360 625Q360 162 381 0H233V33Q235 299 236 764V1094Q236 1244 182 1315L197 1350Q277 1383 319 1370L1126 442Q1144 422 1164 389T1193 334L1202 311Q1188 397 1188 440Z" />
<glyph unicode="O" glyph-name="O" horiz-adv-x="1392" d="M741 1372Q462 1372 281 1170T100 652T257 155T621 -27Q918 -27 1099 179T1286 698Q1286 1017 1130 1194T741 1372ZM719 96Q555 96 439 284T322 717Q322 936 422 1090T670 1245Q830 1245 946 1063T1063
629Q1063 408 964 252T719 96Z" />
<glyph unicode="P" glyph-name="P" horiz-adv-x="1132" d="M449 0H225V33Q225 96 227 275T227 545Q227 600 228 742T228 944T223 1096T206 1237T172 1313L186 1348L555 1360H578Q662 1360 736 1341T879 1277T989 1147T1030 942Q1030 756 888 634T539 512Q486 512
430 524Q439 74 449 0ZM559 614Q682 614 765 692T848 897Q848 1075 755 1162T547 1245L436 1241Q430 1167 430 694V633Q467 614 559 614Z" />
<glyph unicode="Q" glyph-name="Q" horiz-adv-x="1398" d="M741 1372Q462 1372 281 1170T100 652T257 155T621 -27Q623 -27 629 -26T639 -25Q659 -189 774 -288T1032 -387Q1130 -387 1189 -356T1300 -252Q1284 -256 1262 -256Q1096 -256 958 -195T768 -10Q1004
39 1142 232T1286 698Q1286 1017 1130 1194T741 1372ZM719 96Q555 96 439 284T322 717Q322 936 422 1090T670 1245Q830 1245 946 1063T1063 629Q1063 408 964 252T719 96Z" />
<glyph unicode="R" glyph-name="R" horiz-adv-x="1218" d="M449 0H225V33Q225 96 227 275T227 545Q227 600 228 742T228 944T223 1096T206 1237T172 1313L186 1348Q563 1358 578 1358Q662 1358 735 1339T878 1276T989 1147T1030 942Q1030 807 954 704T748 551Q775
539 983 280T1219 0H942Q928 31 907 65T851 144T796 216T727 298T666 369T597 447T539 512Q486 512 430 524Q439 74 449 0ZM559 614Q682 614 765 692T848 897Q848 1077 755 1163T547 1245L436 1241Q430 1167 430 694V633Q467 614 559 614Z" />
<glyph unicode="S" glyph-name="S" horiz-adv-x="983" d="M449 -27Q316 -27 215 36T113 180Q113 213 135 248Q147 203 245 160T440 117Q546 117 621 161T696 305Q696 381 637 446T493 566T323 679T179 822T119 1012Q119 1157 220 1267T498 1378Q664 1378 819 1286Q833
1253 826 1176T784 1063L745 1071Q712 1169 631 1218T475 1268Q397 1268 337 1222T276 1094Q276 1020 339 956T493 838T674 724T827 572T891 365Q891 201 768 87T449 -27Z" />
<glyph unicode="T" glyph-name="T" horiz-adv-x="1107" d="M766 1348H350L68 1360Q25 1313 22 1224T35 1126H74Q80 1173 139 1204T289 1235H446Q454 1186 455 1079Q459 563 455 33V0H678Q666 74 666 90Q664 170 664 314T665 611T667 901T669 1135T670 1235H827Q917
1235 976 1205T1042 1126H1081Q1097 1134 1095 1223T1049 1360L766 1348Z" />
<glyph unicode="U" glyph-name="U" horiz-adv-x="1445" d="M1247 444Q1247 239 1108 105T725 -29Q494 -29 367 72T231 428Q221 817 221 1090Q221 1119 219 1144T216 1187T210 1223T203 1250T195 1272T186 1288T177 1302T168 1315L182 1350Q245 1377 324 1376Q390
1376 440 1352Q430 1098 430 455Q430 349 461 275T543 168T642 122T743 109Q893 109 994 188T1104 383Q1112 451 1112 1094Q1112 1252 1059 1315L1073 1350Q1108 1375 1176 1374Q1239 1374 1268 1352Q1247 897 1247 444Z" />
<glyph unicode="V" glyph-name="V" horiz-adv-x="1280" d="M733 -43L788 131L1186 1075Q1254 1237 1260 1348Q1219 1377 1153 1376Q1085 1376 1028 1350L1014 1315Q1057 1270 1057 1200Q1057 1141 1026 1065L748 352L702 201Q634 355 488 771T309 1339Q272 1376
186 1376Q106 1376 45 1348L31 1313Q41 1309 58 1290T110 1197T180 1018L498 131Q533 -2 647 -25L733 -43Z" />
<glyph unicode="W" glyph-name="W" horiz-adv-x="1900" d="M1384 -43L1440 131L1800 1075Q1863 1237 1874 1348Q1829 1368 1755 1368Q1683 1368 1642 1348L1628 1313Q1671 1268 1671 1198Q1671 1141 1640 1065L1399 352Q1387 321 1377 284T1361 223L1356 201Q1295
336 1165 753T997 1339Q960 1376 872 1376Q788 1376 727 1348L713 1313Q723 1309 740 1290T792 1197T862 1018L901 897L717 352Q705 321 695 284T679 223L674 201Q613 336 483 753T315 1339Q278 1376 190 1376Q106 1376 45 1348L31 1313Q41 1309 58 1290T110 1197T180
1018L467 131Q502 -2 616 -25L702 -43L758 131L967 692L1149 131Q1184 -2 1298 -25L1384 -43Z" />
<glyph unicode="X" glyph-name="X" horiz-adv-x="1079" d="M104 100L459 659L264 1020Q250 1047 232 1081T204 1132T183 1172T163 1207T147 1234T131 1256T117 1274T101 1289T83 1300T63 1313L78 1348Q139 1377 219 1376Q305 1376 342 1339Q352 1316 371 1274T402
1207T439 1132T505 1008T604 829Q624 870 647 907L754 1081Q822 1194 822 1241T799 1313L813 1348Q860 1377 928 1376Q1000 1376 1044 1348Q1026 1244 907 1067L668 713L993 121Q1009 90 1034 60T1074 14L1090 0H817L528 537Q489 465 469 434L260 111Q246 86 235
59T219 15L215 0H33L104 100Z" />
<glyph unicode="Y" glyph-name="Y" horiz-adv-x="1064" d="M674 0H451V33Q451 117 452 233T453 383Q453 582 451 616Q437 630 408 680L211 1024Q184 1071 154 1128T111 1208T80 1256T47 1293T10 1313L25 1348Q86 1377 168 1376Q254 1376 289 1339Q334 1226 432
1037T586 758Q598 795 621 834L791 1135Q844 1231 793 1313L807 1348Q868 1377 922 1376Q973 1376 1030 1348Q1030 1313 990 1220T911 1067L659 662Q659 627 658 521T657 352Q658 106 674 0Z" />
<glyph unicode="Z" glyph-name="Z" horiz-adv-x="1159" d="M37 0L31 41Q72 86 84 104L764 1161L825 1231H631H362Q272 1231 213 1200T147 1122H109Q93 1130 95 1223T141 1364L424 1352H1102L1108 1309Q1069 1264 1057 1243L385 199L328 133H563H844Q934 133 993
164T1059 242H1098Q1114 234 1111 141T1065 0H782H37Z" />
<glyph unicode="[" glyph-name="bracketleft" horiz-adv-x="507" d="M395 1483V1384H205V-43H395V-141H57V1483H395Z" />
<glyph unicode="\" glyph-name="backslash" horiz-adv-x="729" d="M584 -500H745Q499 229 347 743T195 1341Q187 1355 141 1373T53 1391Q10 1391 10 1337Q10 1312 19 1281T42 1212T57 1169L99 1041Q141 913 190 762T305 407T425 31T524 -290T584 -500Z" />
<glyph unicode="]" glyph-name="bracketright" horiz-adv-x="509" d="M453 1499V-319H135V-201H326V1380H135V1499H453Z" />
<glyph unicode="^" glyph-name="asciicircum" horiz-adv-x="1277" d="M1128 655H985L637 1284L289 655H145L580 1450H694Q1099 704 1128 655Z" />
<glyph unicode="_" glyph-name="underscore" horiz-adv-x="921" d="M983 -154L922 -276H0V-154H983Z" />
<glyph unicode="`" glyph-name="grave" horiz-adv-x="692" d="M250 1524H127L207 1384Q316 1198 483 1198Q499 1198 518 1205T548 1219T559 1231Q496 1251 451 1301T386 1400T330 1486T250 1524Z" />
<glyph unicode="a" glyph-name="a" horiz-adv-x="1067" d="M643 1116Q657 1057 686 977L997 131Q1020 57 1059 0H834Q828 39 821 55L705 371H291L158 20Q156 16 154 9T152 0H8L410 977Q426 1024 460 1053T517 1091T590 1108T643 1116ZM672 461L500 922L322 461H672Z" />
<glyph unicode="b" glyph-name="b" horiz-adv-x="1019" d="M182 0L184 111V868Q184 991 137 1057L150 1083L475 1092Q639 1098 731 1024T823 852Q823 719 645 623Q758 592 829 519T901 332Q901 180 785 90T475 0H182ZM449 553L373 555Q369 250 377 90H489Q614
90 672 145T731 283Q731 416 655 482T449 553ZM469 643Q537 643 588 633Q662 703 662 807Q662 895 609 943T469 989H383Q383 889 381 819Q381 799 379 764T376 701T375 643H469Z" />
<glyph unicode="c" glyph-name="c" horiz-adv-x="1107" d="M1020 250Q1028 236 1028 215Q1028 109 912 41T625 -27Q383 -27 248 126T113 516Q113 772 269 938T678 1104Q793 1104 893 1064T1024 969Q1024 938 989 881T911 807L885 827Q885 874 825 933T657 993Q493
993 406 876T319 586Q319 381 420 239T705 96Q793 96 885 135T1020 250Z" />
<glyph unicode="d" glyph-name="d" horiz-adv-x="1230" d="M580 0H205Q207 29 207 78V111V856Q207 1003 160 1057L172 1083L573 1092Q796 1096 956 961T1116 578Q1116 332 968 166T580 0ZM602 98Q725 98 817 207T911 494Q915 711 797 853T498 989L406 985Q406
979 401 756T395 406Q395 234 401 98H602Z" />
<glyph unicode="e" glyph-name="e" horiz-adv-x="913" d="M209 874Q209 933 200 974T185 1024T162 1057L174 1083H440L743 1090Q774 1061 779 984T766 895H733Q723 932 672 957T547 985L408 989Q396 743 395 602H662Q687 602 703 608T723 620L727 625Q731 605
731 586Q731 490 571 489H395Q393 303 399 125Q399 123 403 115H727Q752 115 768 121T788 132L793 137Q797 117 797 98Q797 0 637 0H207L209 111V874Z" />
<glyph unicode="f" glyph-name="f" horiz-adv-x="862" d="M416 0H209L211 111V874Q211 933 202 974T188 1024T164 1057L176 1083H444L748 1090Q777 1061 781 984T770 895H737Q727 932 676 957T551 985L410 989Q398 743 397 602H664Q689 602 705 608T725 620L729
625Q733 605 733 586Q733 490 573 489H397Q395 294 401 113Q402 45 416 0Z" />
<glyph unicode="g" glyph-name="g" horiz-adv-x="1200" d="M678 1104H680Q795 1104 895 1064T1026 969Q1026 938 991 881T913 807L885 827Q885 874 826 933T657 993Q514 993 420 892T322 600Q322 358 436 223T700 88Q725 88 766 94T835 106L862 113V233Q862 260
861 282T857 321T851 349T843 371T835 388T825 402T817 414L829 440Q884 463 950 463Q1003 463 1053 442Q1043 274 1040 184L1042 29Q1013 25 991 20Q741 -27 600 -27Q401 -27 257 121T113 516Q113 772 269 938T678 1104Z" />
<glyph unicode="h" glyph-name="h" horiz-adv-x="1382" d="M1176 432Q1176 35 1194 0H993Q987 29 987 94Q987 96 987 158T988 318T989 502H406V432Q406 39 424 0H217Q221 106 221 877Q221 897 220 915T217 948T213 974T208 995T203 1012T196 1026T188 1037T181
1047T174 1057L186 1083Q247 1106 315 1106Q374 1106 422 1085Q408 749 406 598H989Q991 719 991 877Q991 897 990 915T987 948T983 974T978 995T973 1012T966 1026T959 1037T951 1047T944 1057L956 1083Q1015 1106 1083 1106Q1142 1106 1192 1085Q1176 721 1176
432Z" />
<glyph unicode="i" glyph-name="i" horiz-adv-x="626" d="M420 0H213Q217 106 217 879Q217 899 216 917T213 950T209 976T204 997T199 1014T192 1028T184 1039T177 1049T170 1059L182 1085Q243 1108 311 1108Q370 1108 418 1087Q402 718 401 432Q402 39 420 0Z" />
<glyph unicode="j" glyph-name="j" horiz-adv-x="647" d="M436 96Q434 -94 303 -201T8 -309Q-60 -309 -101 -276T-143 -201Q-143 -170 -121 -145T-57 -119Q-47 -119 -18 -123Q-12 -191 74 -190Q174 -190 214 -122T254 102Q254 813 250 879Q250 906 249 928T245
966T239 994T231 1017T222 1033T213 1047T205 1059L217 1085Q276 1108 342 1108Q403 1108 453 1087Q435 755 434 432Q434 387 435 263T436 96Z" />
<glyph unicode="k" glyph-name="k" horiz-adv-x="1073" d="M422 0H215Q219 106 219 877Q219 897 218 915T215 948T211 974T206 995T201 1012T194 1026T186 1037T179 1047T172 1057L184 1083Q245 1106 313 1106Q372 1106 420 1085Q406 737 403 569L772 948Q811
987 811 1024Q811 1040 801 1057L813 1083Q860 1101 934 1102Q1024 1102 1044 1085Q1003 1013 954 962T708 727Q627 652 578 604Q623 549 755 386T977 114T1075 0H817Q596 326 444 489L403 537V432Q404 39 422 0Z" />
<glyph unicode="l" glyph-name="l" horiz-adv-x="870" d="M797 0H215Q219 106 219 877Q219 897 218 915T215 948T211 974T206 995T201 1012T194 1026T186 1037T179 1047T172 1057L184 1083Q245 1106 313 1106Q372 1106 420 1085Q404 716 403 432Q403 192 408 102H600Q676
102 726 127T784 188H819Q837 170 832 98T797 0Z" />
<glyph unicode="m" glyph-name="m" horiz-adv-x="1677" d="M883 -35L784 -20Q686 -2 655 104L373 772Q355 817 342 868Q346 819 346 760Q346 713 342 446T334 86Q334 31 340 0H199L203 27Q236 615 242 993Q219 1032 195 1057L207 1083Q275 1106 340 1106Q428 1106
465 1081Q496 962 636 627T844 160L1196 1024Q1200 1034 1207 1042T1226 1058T1249 1070T1279 1078T1310 1084T1347 1089T1382 1093T1421 1096T1458 1098Q1456 1059 1455 1032T1454 950T1452 829Q1448 557 1462 96Q1466 30 1477 0H1268L1270 98Q1276 346 1264 770Q1264
784 1262 822T1260 868L1223 762L930 104L883 -35Z" />
<glyph unicode="n" glyph-name="n" horiz-adv-x="1406" d="M1057 352Q1061 362 1061 879Q1061 1006 1014 1057L1026 1083Q1057 1103 1122 1104Q1183 1104 1208 1085Q1185 688 1186 313Q1186 155 1194 0H1073L412 717Q351 789 338 819Q344 790 344 745Q344 706
342 624T340 500Q340 131 358 0H217V27Q219 240 219 610V879Q219 1000 174 1057L186 1083Q264 1114 317 1100L1004 354Q1020 338 1036 312T1061 267L1069 250Q1057 317 1057 352Z" />
<glyph unicode="o" glyph-name="o" horiz-adv-x="1249" d="M668 1104Q426 1104 266 939T106 520Q106 268 244 121T563 -27Q819 -27 979 141T1145 559Q1145 815 1008 959T668 1104ZM647 84Q506 84 409 231T311 573Q311 749 395 869T606 989Q743 989 840 848T938
504Q938 326 856 205T647 84Z" />
<glyph unicode="p" glyph-name="p" horiz-adv-x="1005" d="M406 0H201V27Q201 76 203 220T203 436Q203 481 204 595T204 758T200 880T186 995T156 1057L168 1083L498 1094H518Q590 1094 654 1078T778 1024T873 918T909 754Q909 604 784 504T483 403Q444 403 389
414Q398 66 406 0ZM502 498Q606 498 672 556T739 717Q739 860 665 926T492 989L395 987Q389 928 389 561V512Q426 498 502 498Z" />
<glyph unicode="q" glyph-name="q" horiz-adv-x="1247" d="M668 1104Q426 1104 266 939T106 520Q106 268 244 121T563 -27H580Q598 -158 696 -236T918 -315Q1002 -315 1053 -286T1151 -195Q1135 -199 1116 -199Q971 -199 853 -155T690 -14Q893 25 1016 183T1145
559Q1145 815 1008 959T668 1104ZM647 84Q506 84 409 231T311 573Q311 749 395 869T606 989Q743 989 840 848T938 504Q938 326 856 205T647 84Z" />
<glyph unicode="r" glyph-name="r" horiz-adv-x="1095" d="M401 0H197V27Q197 76 199 220T199 436Q199 481 200 595T200 758T196 880T182 995T152 1057L164 1083Q490 1091 514 1092Q586 1092 651 1076T778 1023T875 918T911 754Q911 645 844 560T666 440Q689 430
870 223T1073 0H821Q762 111 473 410Q440 410 385 420Q393 63 401 0ZM498 498Q602 498 671 556T741 717Q741 862 664 927T487 989L391 987Q385 928 385 561V512Q422 498 498 498Z" />
<glyph unicode="s" glyph-name="s" horiz-adv-x="835" d="M387 -27Q272 -27 185 23T98 137Q98 176 117 205Q127 168 212 134T381 100Q596 100 596 244Q596 297 545 347T420 440T273 531T148 651T96 809Q96 926 187 1015T430 1104Q573 1104 709 1030Q721 1003 715
935T678 840L643 846Q616 926 546 965T410 1004Q342 1004 294 972T246 874Q246 825 285 780T383 704T511 630T639 546T737 438T776 291Q776 160 666 67T387 -27Z" />
<glyph unicode="t" glyph-name="t" horiz-adv-x="958" d="M662 1083H303L59 1094Q22 1057 19 979T31 895H63Q69 932 120 956T250 981H379Q387 942 387 858Q391 452 387 27V0H592Q582 51 582 72Q580 135 580 250T581 486T583 716T585 902T586 981H715Q793 981 844
957T901 895H934Q948 901 945 979T905 1094L662 1083Z" />
<glyph unicode="u" glyph-name="u" horiz-adv-x="1271" d="M1098 356Q1098 190 975 82T641 -27Q440 -27 328 56T209 342Q199 655 199 877Q199 904 198 926T194 964T187 992T179 1015T171 1031T162 1045T154 1057L166 1083Q221 1106 289 1106Q352 1106 401 1085Q391
882 391 365Q391 97 657 96Q786 96 870 155T963 307Q969 362 969 879Q969 1006 924 1057L936 1083Q963 1103 1030 1104Q1091 1104 1116 1085Q1098 694 1098 356Z" />
<glyph unicode="v" glyph-name="v" horiz-adv-x="1122" d="M641 -35L696 104L1040 866Q1101 1005 1104 1083Q1067 1108 1012 1108Q938 1108 893 1085L881 1059Q918 1022 918 967Q918 918 891 858L647 283Q637 258 629 228T617 178L614 160Q555 285 428 621T272
1077Q241 1108 162 1108Q86 1108 33 1083L20 1057Q28 1053 43 1038T90 965T150 821L426 104Q455 -2 555 -20L641 -35Z" />
<glyph unicode="w" glyph-name="w" horiz-adv-x="1660" d="M1202 -35L1249 104L1563 866Q1616 989 1628 1083Q1589 1099 1524 1100Q1461 1100 1427 1083L1415 1057Q1452 1020 1452 965Q1452 918 1425 858L1214 283L1178 160Q1127 271 1013 607T866 1077Q835 1108
758 1108Q686 1108 633 1083L621 1057Q629 1053 644 1036T691 960T752 815L784 717L625 283L588 160Q537 271 423 607T276 1077Q245 1108 168 1108Q96 1108 43 1083L31 1057Q39 1053 54 1038T100 965T160 821L410 104Q439 -2 539 -20L612 -35L662 104L842 553L999
104Q1028 -2 1128 -20L1202 -35Z" />
<glyph unicode="x" glyph-name="x" horiz-adv-x="954" d="M86 80L397 532L229 815Q209 850 185 892T151 950T127 987T105 1016T85 1033T57 1051L70 1077Q123 1102 190 1102Q278 1102 309 1071Q317 1053 338 1009T373 940T427 846T530 674Q544 703 563 731L659
864Q716 956 717 993Q717 1032 698 1051L711 1077Q750 1102 809 1102Q887 1102 924 1077Q910 997 805 854L590 569L879 96Q893 71 914 47T949 11L963 0H709L461 420Q436 373 420 348L240 88L201 0H25L86 80Z" />
<glyph unicode="y" glyph-name="y" horiz-adv-x="892" d="M594 0H377V27Q377 95 378 188T379 307Q379 465 377 494Q367 504 340 545L170 819Q147 856 120 904T82 969T55 1009T24 1041T-8 1057L4 1083Q57 1108 129 1108Q215 1108 246 1077Q285 987 371 834T506
606Q516 635 537 668L684 907Q731 993 688 1057L700 1083Q753 1108 801 1108Q858 1108 907 1083Q907 1054 871 978T799 854L582 528Q582 499 581 416T580 283Q580 88 594 0Z" />
<glyph unicode="z" glyph-name="z" horiz-adv-x="1013" d="M27 0L20 33Q55 70 66 84L641 920L694 975H539H307Q229 975 178 950T121 887H88Q74 893 77 975T117 1094L360 1083H958L963 1049Q930 1014 920 997L350 172L301 119H494H735Q813 119 864 143T922 205H954Q968
199 966 118T926 0H682H27Z" />
<glyph unicode="{" glyph-name="braceleft" horiz-adv-x="681" d="M37 623Q191 623 190 1202Q190 1368 289 1459T506 1550Q578 1550 631 1503Q512 1501 442 1417T371 1184Q371 1045 353 927T307 738T250 627T195 584Q201 582 213 574T256 521T309 410T351 203T371
-117Q371 -174 373 -211T387 -293T420 -363T482 -407T580 -426Q594 -426 631 -422Q563 -502 457 -502Q353 -502 272 -423T190 -211Q190 20 178 180T143 421T95 536T37 578V623Z" />
<glyph unicode="|" glyph-name="bar" horiz-adv-x="163" d="M164 1548V-520H0V1548H164Z" />
<glyph unicode="}" glyph-name="braceright" horiz-adv-x="681" d="M645 623Q491 623 492 1202Q492 1368 393 1459T176 1550Q104 1550 51 1503Q170 1501 240 1417T311 1184Q311 1045 329 927T375 738T432 627T487 584Q481 582 469 574T426 521T373 410T331 203T311
-117Q311 -174 309 -211T295 -293T262 -363T200 -407T102 -426Q88 -426 51 -422Q119 -502 225 -502Q329 -502 410 -423T492 -211Q492 20 504 180T539 421T587 536T645 578V623Z" />
<glyph unicode="~" glyph-name="asciitilde" horiz-adv-x="1079" d="M184 535Q260 590 313 586Q346 584 438 552T598 516Q696 510 774 551T870 680Q786 621 719 625Q684 629 589 658T442 692Q346 698 273 660T184 535Z" />
<glyph unicode="&#xa0;" glyph-name="uni00A0" horiz-adv-x="460" />
<glyph unicode="&#xa1;" glyph-name="exclamdown" horiz-adv-x="540" d="M209 770H285L342 59Q344 22 354 -6T373 -44L381 -53V-92Q322 -131 264 -131Q188 -131 157 -103T125 -14Q125 17 141 115Q159 224 164 274L209 770ZM139 952T139 997T171 1075T248 1108Q295
1108 326 1076T358 997Q358 952 326 921T248 889T171 920Z" />
<glyph unicode="&#xa2;" glyph-name="cent" horiz-adv-x="1003" d="M635 -223H535Q535 -88 537 -27H532Q354 -27 234 96T113 461Q113 694 229 857T537 1036Q537 1065 526 1223Q573 1233 584 1233Q604 1233 615 1226T631 1200T635 1166T634 1118T633 1069V1036Q768
1024 839 962T893 803Q860 842 787 870T631 901Q625 422 625 264V129Q709 133 790 182T924 309Q932 284 932 260Q932 164 843 86T627 -16L635 -223ZM295 528Q295 387 357 276T537 135Q543 745 541 897Q447 883 393 825Q295 716 295 528Z" />
<glyph unicode="&#xa3;" glyph-name="sterling" horiz-adv-x="1124" d="M74 551L86 684Q86 688 223 688Q223 711 224 774T225 854T227 914T231 981T238 1036T252 1100Q264 1157 286 1211T353 1328T455 1437T604 1513T803 1544Q903 1544 994 1494T1085 1360Q1085
1292 1048 1258T965 1223T885 1253Q893 1253 893 1296Q893 1343 842 1385T707 1427Q596 1427 515 1330T422 1100Q414 1022 403 684Q534 680 557 680Q819 680 842 696Q836 653 811 625T766 583T692 563T623 557T539 557H397Q393 393 351 175T266 -104Q504 -149 670
-150Q844 -150 984 -118T1180 -27Q1186 -54 1186 -80Q1186 -299 776 -299Q727 -299 672 -295T541 -281T411 -262T247 -236T78 -209Q137 -80 174 135T221 559H131Q107 559 74 551Z" />
<glyph unicode="&#xa4;" glyph-name="currency" horiz-adv-x="1183" d="M25 731L49 862Q49 856 176 856Q231 1092 403 1232T817 1372Q1005 1372 1088 1305T1098 1130Q1094 1169 1007 1209T793 1249Q619 1249 496 1137T336 854H721Q983 854 1006 870Q1000 827 975
799T930 757T856 737T787 731T702 731H324Q324 659 334 567H598Q860 567 883 584Q877 541 852 512T807 470T733 451T664 444T580 444H358Q460 90 819 90Q872 90 960 117T1108 209Q1110 92 1015 32T756 -29Q520 -29 370 98T172 446H66Q37 446 29 444L49 575Q78 571
154 571Q152 596 152 645Q152 704 156 733H61Q33 733 25 731Z" />
<glyph unicode="&#xa5;" glyph-name="yen" horiz-adv-x="1064" d="M205 715Q205 711 391 707L211 1024Q184 1071 154 1128T111 1208T81 1256T48 1293T10 1313L25 1348Q86 1377 168 1376Q254 1376 289 1339Q334 1226 432 1037T586 758Q598 795 621 834L791 1135Q818
1180 817 1229Q817 1274 793 1313L807 1348Q868 1377 922 1376Q973 1376 1030 1348Q1032 1313 992 1224T911 1067L686 707Q934 707 956 723Q948 674 921 643T843 600T758 586T658 584Q647 584 643 584Q631 418 631 399Q934 399 956 416Q948 367 920 336T839 293T752
279T650 276Q636 276 631 276Q631 104 647 0H449V33Q449 86 450 166T451 276Q353 278 242 279Q213 279 205 276V408Q205 400 451 399V584Q353 586 242 586Q213 586 205 584V715Z" />
<glyph unicode="&#xa7;" glyph-name="section" horiz-adv-x="860" d="M418 -496Q268 -496 185 -435T102 -311L106 -274Q163 -325 241 -357T387 -387H406Q422 -227 396 -28T264 543Q162 910 162 1114Q162 1288 261 1408T512 1528Q662 1528 745 1466T827 1343L823
1307Q766 1358 688 1389T543 1419H522Q508 1257 535 1058T666 489Q768 122 768 -82Q768 -256 669 -376T418 -496ZM399 510Q440 342 460 254T500 38T515 -186T483 -369Q651 -308 649 -49Q649 27 626 133T530 522Q489 688 469 777T430 993T414 1217T444 1401Q278
1338 281 1081Q281 1005 304 899T399 510Z" />
<glyph unicode="&#xa8;" glyph-name="dieresis" horiz-adv-x="786" d="M311 1313Q311 1266 281 1233T209 1200T137 1233T106 1313Q106 1358 137 1391T209 1425T280 1392T311 1313ZM688 1313Q688 1266 658 1233T586 1200T514 1233T483 1313Q483 1358 514 1391T586
1425T657 1392T688 1313Z" />
<glyph unicode="&#xa9;" glyph-name="copyright" horiz-adv-x="1617" d="M1505 727Q1505 401 1304 192T776 -18Q485 -18 299 163T113 627Q113 951 319 1159T860 1368Q1143 1368 1324 1188T1505 727ZM1378 680Q1378 936 1221 1100T817 1264Q579 1264 412 1095T244
672Q244 422 408 256T821 90Q1050 90 1214 259T1378 680ZM1079 879Q1071 887 1056 899T982 931T852 952Q766 952 702 889Q630 817 631 692Q631 588 688 513T852 438Q918 438 984 473T1096 571Q1108 534 1108 514Q1108 432 1012 372T801 311Q662 311 568 396T473
651Q473 823 573 946T831 1069Q954 1069 1024 1014T1079 879Z" />
<glyph unicode="&#xab;" glyph-name="guillemotleft" horiz-adv-x="1302" d="M127 506Q150 526 168 547L436 866Q590 1050 707 956Q689 950 665 929T626 890L610 872L383 569Q373 553 356 538T327 514L315 506Q358 477 383 442L610 139Q665 69 707 55Q590 -39
436 145L168 465L127 506ZM582 506Q605 526 623 547L891 866Q1045 1050 1161 956Q1143 950 1120 929T1080 890L1065 872L838 569Q828 553 811 538T781 514L770 506Q813 477 838 442L1065 139Q1120 69 1161 55Q1044 -39 891 145L623 465L582 506Z" />
<glyph unicode="&#xae;" glyph-name="registered" horiz-adv-x="1617" d="M842 313H623Q637 465 637 799Q637 871 620 911T589 958T565 965V1008Q643 1049 707 1049Q785 1049 784 971Q786 959 782 918L781 908L780 899Q870 1057 989 1057Q1044 1057 1071 1029T1098
965Q1098 893 1004 866Q986 919 936 920Q860 920 819 841T778 659T795 457T842 313ZM1505 727Q1505 401 1304 192T776 -18Q485 -18 299 163T113 627Q113 951 319 1159T860 1368Q1143 1368 1324 1188T1505 727ZM1378 680Q1378 936 1221 1100T817 1264Q579 1264 412
1095T244 672Q244 422 408 256T821 90Q1050 90 1214 259T1378 680Z" />
<glyph unicode="&#xaf;" glyph-name="overscore" horiz-adv-x="686" d="M100 1266V1397Q100 1389 322 1389Q584 1389 606 1405Q600 1362 576 1334T531 1292T457 1272T387 1266T303 1266Q276 1266 213 1267T137 1268Q108 1268 100 1266Z" />
<glyph unicode="&#xb0;" glyph-name="degree" horiz-adv-x="817" d="M739 1176Q739 1033 640 932T399 831Q256 831 156 931T55 1176Q55 1317 155 1416T399 1516Q540 1516 639 1417T739 1176ZM623 1176Q623 1272 559 1336T397 1401Q303 1401 238 1337T172 1176Q172
1084 238 1017T397 950Q493 950 558 1016T623 1176Z" />
<glyph unicode="&#xb4;" glyph-name="acute" horiz-adv-x="692" d="M449 1524H571L492 1384Q383 1198 215 1198Q199 1198 181 1205T151 1219T139 1231Q202 1251 247 1301T313 1400T369 1486T449 1524Z" />
<glyph unicode="&#xb6;" glyph-name="paragraph" horiz-adv-x="1273" d="M117 762Q117 1006 273 1179T649 1352H651H872Q1134 1352 1157 1368Q1139 1253 1010 1235Q1008 1215 1008 1169Q1008 1161 1006 1043T1002 735T999 385L1010 -496H909Q921 956 907 1229H817Q815
1211 815 1169Q815 1161 813 1043T809 735T807 385L817 -496H717Q721 -45 721 98Q721 157 725 184Q674 166 623 162Q418 148 266 334T117 762Z" />
<glyph unicode="&#xb7;" glyph-name="middot" horiz-adv-x="528" d="M365 547T365 502T333 424T256 391Q209 391 177 423T145 502Q145 547 178 578T256 610T333 579Z" />
<glyph unicode="&#xb8;" glyph-name="cedilla" horiz-adv-x="823" d="M369 -14L412 -12Q398 -41 397 -72Q397 -92 429 -105T498 -127T566 -168T598 -252Q598 -346 530 -413T365 -481Q291 -481 248 -454T205 -377Q205 -354 213 -332Q256 -375 358 -375Q407 -375
440 -354T473 -297Q473 -270 445 -252T382 -223T320 -188T291 -127Q291 -57 369 -14Z" />
<glyph unicode="&#xbb;" glyph-name="guillemotright" horiz-adv-x="1316" d="M1163 506Q1140 526 1122 547L854 866Q700 1050 584 956Q602 950 625 929T665 890L680 872L907 569Q917 553 934 538T964 514L975 506Q932 477 907 442L680 139Q625 69 584 55Q701
-39 854 145L1122 465L1163 506ZM709 506Q686 526 668 547L399 866Q245 1050 129 956Q147 950 171 929T210 890L225 872L453 569Q463 553 480 538T509 514L520 506Q477 477 453 442L225 139Q170 69 129 55Q246 -39 399 145L668 465L709 506Z" />
<glyph unicode="&#xbf;" glyph-name="questiondown" horiz-adv-x="849" d="M412 762L459 784Q584 733 584 635Q584 557 550 487T469 367T375 274T294 191T260 113Q260 43 302 3T410 -37Q457 -37 488 -9T520 74Q520 97 512 119Q543 158 596 158Q645 158 669 130T694
70Q694 -24 612 -76T420 -129Q289 -129 192 -55T94 150Q94 213 131 273T220 384T323 481T412 582T449 688Q449 733 412 762ZM350 952T350 997T382 1075T459 1108T536 1076T569 997Q569 952 537 921T459 889T382 920Z" />
<glyph unicode="&#xc0;" glyph-name="Agrave" horiz-adv-x="1208" d="M162 0H10L475 1221Q487 1260 506 1289T544 1335T588 1363T632 1378T678 1387T717 1395Q729 1327 766 1221L1126 164Q1151 74 1198 0H950Q948 27 934 70Q907 172 772 549L354 551L168 27Q166
21 164 12T162 0ZM563 1153L391 649H741Q708 739 666 864T597 1063T563 1153ZM430 1737H279L358 1638Q424 1556 491 1518T657 1479Q712 1479 743 1516Q680 1536 634 1575T567 1648T510 1710T430 1737Z" />
<glyph unicode="&#xc1;" glyph-name="Aacute" horiz-adv-x="1208" d="M852 1737H1004L924 1638Q858 1556 791 1518T625 1479Q570 1479 539 1516Q602 1536 648 1575T715 1648T772 1710T852 1737ZM717 1395Q729 1327 766 1221L1126 164Q1151 74 1198 0H950Q946 45
936 70L799 471H324L168 27Q166 21 164 12T162 0H10L475 1221Q487 1260 506 1289T544 1335T588 1363T632 1378T678 1387T717 1395ZM764 569L565 1153L358 569H764Z" />
<glyph unicode="&#xc2;" glyph-name="Acircumflex" horiz-adv-x="1208" d="M631 1729H649Q682 1729 724 1694T803 1617T890 1536T985 1489Q985 1485 972 1479T938 1468T899 1462Q698 1462 621 1653Q576 1559 517 1511T342 1462Q324 1462 304 1467T270 1479T256
1489Q313 1499 381 1559T504 1674T592 1729H631ZM717 1395Q729 1327 766 1221L1126 164Q1151 74 1198 0H950Q946 45 936 70L799 471H324L168 27Q166 21 164 12T162 0H10L475 1221Q487 1260 506 1289T544 1335T588 1363T632 1378T678 1387T717 1395ZM764 569L565
1153L358 569H764Z" />
<glyph unicode="&#xc3;" glyph-name="Atilde" horiz-adv-x="1208" d="M201 1522Q295 1579 354 1579Q397 1579 528 1540T762 1501Q877 1501 965 1547T1075 1681Q971 1622 895 1622Q840 1622 704 1660T496 1698Q383 1698 301 1654T201 1522ZM717 1395Q729 1327 766
1221L1126 164Q1151 74 1198 0H950Q946 45 936 70L799 471H324L168 27Q166 21 164 12T162 0H10L475 1221Q487 1260 506 1289T544 1335T588 1363T632 1378T678 1387T717 1395ZM764 569L565 1153L358 569H764Z" />
<glyph unicode="&#xc4;" glyph-name="Adieresis" horiz-adv-x="1208" d="M475 1599Q475 1552 445 1520T373 1487T301 1519T270 1599Q270 1644 301 1678T373 1712T444 1678T475 1599ZM954 1599Q954 1552 924 1520T852 1487T781 1519T750 1599Q750 1644 780 1678T852
1712T923 1678T954 1599ZM717 1395Q729 1327 766 1221L1126 164Q1151 74 1198 0H950Q946 45 936 70L799 471H324L168 27Q166 21 164 12T162 0H10L475 1221Q487 1260 506 1289T544 1335T588 1363T632 1378T678 1387T717 1395ZM764 569L565 1153L358 569H764Z" />
<glyph unicode="&#xc5;" glyph-name="Aring" horiz-adv-x="1208" d="M717 1395Q729 1327 766 1221L1126 164Q1151 74 1198 0H950Q946 45 936 70L799 471H324L168 27Q166 21 164 12T162 0H10L475 1221Q487 1260 506 1289T544 1335T588 1363T632 1378T678 1387T717
1395ZM764 569L565 1153L358 569H764ZM659 1821Q575 1821 518 1770T461 1636Q461 1556 507 1511T616 1466Q702 1466 760 1519T819 1653Q819 1729 772 1775T659 1821ZM643 1524Q602 1524 573 1559T543 1659Q543 1712 569 1737T633 1763Q676 1763 705 1730T735 1632Q735
1577 708 1551T643 1524Z" />
<glyph unicode="&#xc6;" glyph-name="AE" horiz-adv-x="1560" d="M621 1348H1032L1382 1354Q1417 1319 1423 1230T1409 1126H1370Q1360 1173 1301 1205T1155 1239L981 1245Q967 1001 967 745H1288Q1317 745 1335 751T1359 765L1364 772Q1368 756 1368 731Q1368
690 1352 666T1301 632T1246 621T1184 618Q1182 618 1133 619T1042 621T965 621Q963 420 971 141Q971 137 975 129H1364Q1393 129 1411 136T1435 150L1440 156Q1444 140 1444 115Q1444 82 1431 59T1401 25T1355 8T1308 1T1260 0H762Q764 35 764 96V471H381L164
41Q162 35 159 27T154 10T152 0H-8L621 1202Q633 1249 630 1267T606 1317L621 1348ZM766 1260L725 1151L430 569H764V1090Q764 1217 766 1260Z" />
<glyph unicode="&#xc7;" glyph-name="Ccedilla" horiz-adv-x="1267" d="M1135 309Q1158 260 1157 223Q1157 117 1036 49T743 -27Q735 -47 735 -72Q735 -92 767 -105T835 -127T904 -168T936 -252Q936 -346 868 -413T702 -481Q628 -481 586 -454T543 -377Q543 -354
551 -332Q594 -375 696 -375Q745 -375 778 -354T811 -297Q811 -270 783 -252T720 -223T658 -188T629 -127Q629 -70 684 -27Q408 -19 255 164T102 645Q102 964 287 1168T768 1372Q913 1372 1036 1313T1159 1157Q1159 1124 1131 1092T1053 1059Q1018 1059 975 1081Q973
1101 962 1126T927 1180T855 1229T743 1249Q544 1249 441 1100T338 733Q338 622 362 517T435 318T570 166T770 109Q870 109 980 158T1135 309Z" />
<glyph unicode="&#xc8;" glyph-name="Egrave" horiz-adv-x="985" d="M324 1737H172L252 1638Q318 1556 385 1518T551 1479Q606 1479 637 1516Q574 1536 528 1575T460 1648T404 1710T324 1737ZM178 1085Q178 1114 176 1139T173 1183T167 1219T160 1246T152 1268T143
1285T133 1300L125 1313L139 1348H446L797 1354Q832 1319 838 1230T823 1126H784Q774 1173 715 1205T569 1239L395 1245Q381 1001 381 745H702Q731 745 749 751T773 765L778 772Q782 756 782 731Q782 690 766 666T715 632T660 621T598 618Q596 618 547 619T457
621T379 621Q377 420 385 141Q385 137 389 129H778Q807 129 825 136T849 150L854 156Q858 140 858 115Q858 82 845 59T815 25T769 8T722 1T674 0H176L178 139V1085Z" />
<glyph unicode="&#xc9;" glyph-name="Eacute" horiz-adv-x="985" d="M709 1737H860L780 1638Q714 1556 647 1518T481 1479Q426 1479 395 1516Q458 1536 504 1575T572 1648T629 1710T709 1737ZM178 1085Q178 1114 176 1139T173 1183T167 1219T160 1246T152 1268T143
1285T133 1300L125 1313L139 1348H446L797 1354Q832 1319 838 1230T823 1126H784Q774 1173 715 1205T569 1239L395 1245Q381 1001 381 745H702Q731 745 749 751T773 765L778 772Q782 756 782 731Q782 690 766 666T715 632T660 621T598 618Q596 618 547 619T457
621T379 621Q377 420 385 141Q385 137 389 129H778Q807 129 825 136T849 150L854 156Q858 140 858 115Q858 82 845 59T815 25T769 8T722 1T674 0H176L178 139V1085Z" />
<glyph unicode="&#xca;" glyph-name="Ecircumflex" horiz-adv-x="985" d="M508 1729H526Q559 1729 601 1694T680 1617T767 1536T862 1489Q862 1485 849 1479T816 1468T776 1462Q575 1462 498 1653Q453 1559 394 1511T219 1462Q201 1462 181 1467T147 1479T133
1489Q190 1499 258 1559T381 1674T469 1729H508ZM180 1085Q180 1114 178 1139T175 1183T169 1219T162 1246T154 1268T145 1285T135 1300L127 1313L141 1348H449L799 1354Q834 1319 840 1230T825 1126H786Q776 1173 717 1205T571 1239L397 1245Q383 1001 383 745H705Q734
745 752 751T775 765L780 772Q784 756 784 731Q784 690 768 666T717 632T662 621T600 618Q598 618 549 619T459 621T381 621Q379 420 387 141Q387 137 391 129H780Q809 129 827 136T851 150L856 156Q860 140 860 115Q860 82 847 59T818 25T771 8T724 1T676 0H178L180
139V1085Z" />
<glyph unicode="&#xcb;" glyph-name="Edieresis" horiz-adv-x="985" d="M373 1599Q373 1552 342 1520T270 1487T199 1519T168 1599Q168 1644 198 1678T270 1712T342 1678T373 1599ZM852 1599Q852 1552 822 1520T750 1487T678 1519T647 1599Q647 1644 678 1678T750
1712T821 1678T852 1599ZM178 1085Q178 1114 176 1139T173 1183T167 1219T160 1246T152 1268T143 1285T133 1300L125 1313L139 1348H446L797 1354Q832 1319 838 1230T823 1126H784Q774 1173 715 1205T569 1239L395 1245Q381 1001 381 745H702Q731 745 749 751T773
765L778 772Q782 756 782 731Q782 690 766 666T715 632T660 621T598 618Q596 618 547 619T457 621T379 621Q377 420 385 141Q385 137 389 129H778Q807 129 825 136T849 150L854 156Q858 140 858 115Q858 82 845 59T815 25T769 8T722 1T674 0H176L178 139V1085Z"
/>
<glyph unicode="&#xcc;" glyph-name="Igrave" horiz-adv-x="661" d="M135 1737H-16L63 1638Q129 1556 196 1518T362 1479Q417 1479 449 1516Q386 1536 340 1575T272 1648T215 1710T135 1737ZM446 0H221Q225 135 225 1090Q225 1119 223 1144T220 1187T214 1223T207
1250T199 1272T191 1288T181 1302T172 1315L186 1350Q249 1377 328 1376Q394 1376 444 1352Q424 893 424 541Q423 47 446 0Z" />
<glyph unicode="&#xcd;" glyph-name="Iacute" horiz-adv-x="661" d="M481 1737H633L553 1638Q487 1556 420 1518T254 1479Q199 1479 168 1516Q231 1536 277 1575T345 1648T401 1710T481 1737ZM446 0H221Q225 135 225 1090Q225 1119 223 1144T220 1187T214 1223T207
1250T199 1272T191 1288T181 1302T172 1315L186 1350Q249 1377 328 1376Q394 1376 444 1352Q424 893 424 541Q423 47 446 0Z" />
<glyph unicode="&#xce;" glyph-name="Icircumflex" horiz-adv-x="661" d="M334 1729H352Q385 1729 427 1694T506 1617T593 1536T688 1489Q688 1485 675 1479T642 1468T602 1462Q401 1462 324 1653Q279 1559 220 1511T45 1462Q27 1462 7 1467T-27 1479T-41 1489Q16
1499 84 1559T207 1674T295 1729H334ZM446 0H221Q225 135 225 1090Q225 1119 223 1144T220 1187T214 1223T207 1250T199 1272T191 1288T181 1302T172 1315L186 1350Q249 1377 328 1376Q394 1376 444 1352Q424 893 424 541Q423 47 446 0Z" />
<glyph unicode="&#xcf;" glyph-name="Idieresis" horiz-adv-x="661" d="M225 1599Q225 1552 195 1520T123 1487T51 1519T20 1599Q20 1644 51 1678T123 1712T194 1678T225 1599ZM602 1599Q602 1552 572 1520T500 1487T428 1519T397 1599Q397 1644 428 1678T500
1712T571 1678T602 1599ZM446 0H221Q225 135 225 1090Q225 1119 223 1144T220 1187T214 1223T207 1250T199 1272T191 1288T181 1302T172 1315L186 1350Q249 1377 328 1376Q394 1376 444 1352Q424 893 424 541Q423 47 446 0Z" />
<glyph unicode="&#xd1;" glyph-name="Ntilde" horiz-adv-x="1538" d="M326 1522Q420 1579 479 1579Q522 1579 653 1540T887 1501Q1002 1501 1090 1547T1200 1681Q1096 1622 1020 1622Q965 1622 829 1660T621 1698Q508 1698 426 1654T326 1522ZM1188 440Q1192 450
1192 1094Q1192 1252 1139 1315L1153 1350Q1188 1375 1255 1374Q1318 1374 1348 1352Q1323 807 1323 391Q1323 160 1333 0H1221L442 891Q372 981 358 1018Q364 983 365 928Q365 879 363 778T360 625Q360 162 381 0H233V33Q235 299 236 764V1094Q236 1244 182 1315L197
1350Q277 1383 319 1370L1126 442Q1144 422 1164 389T1193 334L1202 311Q1188 397 1188 440Z" />
<glyph unicode="&#xd2;" glyph-name="Ograve" horiz-adv-x="1390" d="M522 1737H371L451 1638Q517 1556 584 1518T750 1479Q805 1479 836 1516Q773 1536 727 1575T659 1648T602 1710T522 1737ZM741 1372Q462 1372 281 1170T100 652T257 155T621 -27Q918 -27 1099
179T1286 698Q1286 1017 1130 1194T741 1372ZM719 96Q555 96 439 284T322 717Q322 936 422 1090T670 1245Q830 1245 946 1063T1063 629Q1063 408 964 252T719 96Z" />
<glyph unicode="&#xd3;" glyph-name="Oacute" horiz-adv-x="1390" d="M887 1737H1038L958 1638Q892 1556 825 1518T659 1479Q604 1479 573 1516Q636 1536 682 1575T750 1648T807 1710T887 1737ZM741 1372Q462 1372 281 1170T100 652T257 155T621 -27Q918 -27 1099
179T1286 698Q1286 1017 1130 1194T741 1372ZM719 96Q555 96 439 284T322 717Q322 936 422 1090T670 1245Q830 1245 946 1063T1063 629Q1063 408 964 252T719 96Z" />
<glyph unicode="&#xd4;" glyph-name="Ocircumflex" horiz-adv-x="1390" d="M729 1729H748Q781 1729 822 1694T901 1617T988 1536T1083 1489Q1083 1485 1070 1479T1037 1468T997 1462Q796 1462 719 1653Q674 1559 615 1511T440 1462Q422 1462 402 1467T368 1479T354
1489Q411 1499 479 1559T602 1674T690 1729H729ZM741 1372Q462 1372 281 1170T100 652T257 155T621 -27Q918 -27 1099 179T1286 698Q1286 1017 1130 1194T741 1372ZM719 96Q555 96 439 284T322 717Q322 936 422 1090T670 1245Q830 1245 946 1063T1063 629Q1063
408 964 252T719 96Z" />
<glyph unicode="&#xd5;" glyph-name="Otilde" horiz-adv-x="1390" d="M287 1522Q381 1579 440 1579Q483 1579 614 1540T848 1501Q963 1501 1051 1547T1161 1681Q1057 1622 981 1622Q926 1622 790 1660T582 1698Q469 1698 387 1654T287 1522ZM741 1372Q462 1372
281 1170T100 652T257 155T621 -27Q918 -27 1099 179T1286 698Q1286 1017 1130 1194T741 1372ZM719 96Q555 96 439 284T322 717Q322 936 422 1090T670 1245Q830 1245 946 1063T1063 629Q1063 408 964 252T719 96Z" />
<glyph unicode="&#xd6;" glyph-name="Odieresis" horiz-adv-x="1390" d="M547 1599Q547 1552 516 1520T444 1487T373 1519T342 1599Q342 1644 372 1678T444 1712T516 1678T547 1599ZM1026 1599Q1026 1552 996 1520T924 1487T852 1519T821 1599Q821 1644 852 1678T924
1712T995 1678T1026 1599ZM741 1372Q462 1372 281 1170T100 652T257 155T621 -27Q918 -27 1099 179T1286 698Q1286 1017 1130 1194T741 1372ZM719 96Q555 96 439 284T322 717Q322 936 422 1090T670 1245Q830 1245 946 1063T1063 629Q1063 408 964 252T719 96Z"
/>
<glyph unicode="&#xd8;" glyph-name="Oslash" horiz-adv-x="1392" d="M16 74L86 2L236 158Q375 -30 612 -31Q909 -31 1096 178T1288 698Q1288 956 1194 1118Q1212 1134 1244 1163T1292 1207T1327 1243T1354 1278T1362 1307Q1362 1334 1298 1372Q1214 1272 1141
1196Q1000 1372 766 1372Q475 1372 292 1172T102 651Q102 403 184 240L16 74ZM1077 602Q1073 385 960 240T709 94Q615 94 535 157T401 332L1018 950Q1077 811 1077 602ZM369 420Q324 555 324 713Q324 936 425 1089T670 1243Q846 1243 977 1032L369 420Z" />
<glyph unicode="&#xd9;" glyph-name="Ugrave" horiz-adv-x="1445" d="M569 1737H418L498 1638Q564 1556 631 1518T797 1479Q852 1479 883 1516Q820 1536 774 1575T706 1648T649 1710T569 1737ZM1247 444Q1247 239 1108 105T725 -29Q494 -29 367 72T231 428Q221
817 221 1090Q221 1119 219 1144T216 1187T210 1223T203 1250T195 1272T186 1288T177 1302T168 1315L182 1350Q245 1377 324 1376Q390 1376 440 1352Q430 1098 430 455Q430 349 461 275T543 168T642 122T743 109Q893 109 994 188T1104 383Q1112 451 1112 1094Q1112
1252 1059 1315L1073 1350Q1108 1375 1176 1374Q1239 1374 1268 1352Q1247 897 1247 444Z" />
<glyph unicode="&#xda;" glyph-name="Uacute" horiz-adv-x="1445" d="M901 1737H1053L973 1638Q907 1556 840 1518T674 1479Q619 1479 588 1516Q651 1536 697 1575T764 1648T821 1710T901 1737ZM1247 444Q1247 239 1108 105T725 -29Q494 -29 367 72T231 428Q221
817 221 1090Q221 1119 219 1144T216 1187T210 1223T203 1250T195 1272T186 1288T177 1302T168 1315L182 1350Q245 1377 324 1376Q390 1376 440 1352Q430 1098 430 455Q430 349 461 275T543 168T642 122T743 109Q893 109 994 188T1104 383Q1112 451 1112 1094Q1112
1252 1059 1315L1073 1350Q1108 1375 1176 1374Q1239 1374 1268 1352Q1247 897 1247 444Z" />
<glyph unicode="&#xdb;" glyph-name="Ucircumflex" horiz-adv-x="1445" d="M768 1729H786Q819 1729 861 1694T940 1617T1027 1536T1122 1489Q1122 1485 1109 1479T1076 1468T1036 1462Q835 1462 758 1653Q713 1559 654 1511T479 1462Q461 1462 441 1467T407 1479T393
1489Q450 1499 518 1559T641 1674T729 1729H768ZM1247 444Q1247 239 1108 105T725 -29Q494 -29 367 72T231 428Q221 817 221 1090Q221 1119 219 1144T216 1187T210 1223T203 1250T195 1272T186 1288T177 1302T168 1315L182 1350Q245 1377 324 1376Q390 1376 440
1352Q430 1098 430 455Q430 349 461 275T543 168T642 122T743 109Q893 109 994 188T1104 383Q1112 451 1112 1094Q1112 1252 1059 1315L1073 1350Q1108 1375 1176 1374Q1239 1374 1268 1352Q1247 897 1247 444Z" />
<glyph unicode="&#xdc;" glyph-name="Udieresis" horiz-adv-x="1445" d="M621 1599Q621 1552 590 1520T518 1487T447 1519T416 1599Q416 1644 446 1678T518 1712T590 1678T621 1599ZM1100 1599Q1100 1552 1069 1520T997 1487T926 1519T895 1599Q895 1644 925 1678T997
1712T1069 1678T1100 1599ZM1247 444Q1247 239 1108 105T725 -29Q494 -29 367 72T231 428Q221 817 221 1090Q221 1119 219 1144T216 1187T210 1223T203 1250T195 1272T186 1288T177 1302T168 1315L182 1350Q245 1377 324 1376Q390 1376 440 1352Q430 1098 430 455Q430
349 461 275T543 168T642 122T743 109Q893 109 994 188T1104 383Q1112 451 1112 1094Q1112 1252 1059 1315L1073 1350Q1108 1375 1176 1374Q1239 1374 1268 1352Q1247 897 1247 444Z" />
<glyph unicode="&#xdf;" glyph-name="germandbls" horiz-adv-x="1671" d="M387 -27Q272 -27 185 23T98 137Q98 176 117 205Q127 168 212 134T381 100Q596 100 596 244Q596 297 545 347T420 440T273 531T148 651T96 809Q96 926 187 1015T430 1104Q573 1104 709
1030Q721 1003 715 935T678 840L643 846Q616 926 546 965T410 1004Q342 1004 294 972T246 874Q246 825 285 780T383 704T511 630T639 546T737 438T776 291Q776 160 666 67T387 -27ZM1223 -27Q1108 -27 1021 23T934 137Q934 176 952 205Q962 168 1047 134T1217 100Q1432
100 1432 244Q1432 297 1381 347T1256 440T1108 531T983 651T932 809Q932 926 1023 1015T1266 1104Q1409 1104 1544 1030Q1556 1003 1550 935T1513 840L1479 846Q1452 926 1382 965T1245 1004Q1177 1004 1129 972T1081 874Q1081 825 1120 780T1218 704T1346 630T1474
546T1573 438T1612 291Q1612 160 1502 67T1223 -27Z" />
<glyph unicode="&#xe0;" glyph-name="agrave" horiz-adv-x="1067" d="M643 1116Q657 1057 686 977L997 131Q1020 57 1059 0H834Q828 39 821 55L705 371H291L158 20Q156 16 154 9T152 0H8L410 977Q426 1024 460 1053T517 1091T590 1108T643 1116ZM672 461L500 922L322
461H672ZM342 1524H219L299 1384Q408 1198 575 1198Q591 1198 610 1205T640 1219T651 1231Q588 1251 543 1301T478 1400T422 1486T342 1524Z" />
<glyph unicode="&#xe1;" glyph-name="aacute" horiz-adv-x="1067" d="M643 1116Q657 1057 686 977L997 131Q1020 57 1059 0H834Q828 39 821 55L705 371H291L158 20Q156 16 154 9T152 0H8L410 977Q426 1024 460 1053T517 1091T590 1108T643 1116ZM672 461L500 922L322
461H672ZM745 1524H868L788 1384Q679 1198 512 1198Q496 1198 478 1205T448 1219T436 1231Q499 1251 544 1301T610 1400T665 1486T745 1524Z" />
<glyph unicode="&#xe2;" glyph-name="acircumflex" horiz-adv-x="1067" d="M643 1116Q657 1057 686 977L997 131Q1020 57 1059 0H834Q828 39 821 55L705 371H291L158 20Q156 16 154 9T152 0H8L410 977Q426 1024 460 1053T517 1091T590 1108T643 1116ZM672 461L500
922L322 461H672ZM541 1524H557Q594 1524 643 1457T748 1315T854 1231Q854 1227 843 1220T813 1205T778 1198Q700 1198 663 1223T575 1319Q563 1335 553 1363T538 1411L532 1432Q514 1354 487 1319Q448 1260 405 1229T287 1198Q271 1198 252 1205T222 1219T211
1231Q250 1239 297 1287T378 1387T447 1482T508 1524H541Z" />
<glyph unicode="&#xe3;" glyph-name="atilde" horiz-adv-x="1067" d="M643 1116Q657 1057 686 977L997 131Q1020 57 1059 0H834Q828 39 821 55L705 371H291L158 20Q156 16 154 9T152 0H8L410 977Q426 1024 460 1053T517 1091T590 1108T643 1116ZM672 461L500 922L322
461H672ZM195 1282Q271 1337 324 1333Q357 1331 449 1300T608 1264Q706 1258 784 1298T881 1427Q797 1368 729 1372Q694 1376 599 1406T453 1440Q357 1446 284 1407T195 1282Z" />
<glyph unicode="&#xe4;" glyph-name="adieresis" horiz-adv-x="1067" d="M643 1116Q657 1057 686 977L997 131Q1020 57 1059 0H834Q828 39 821 55L705 371H291L158 20Q156 16 154 9T152 0H8L410 977Q426 1024 460 1053T517 1091T590 1108T643 1116ZM672 461L500
922L322 461H672ZM446 1313Q446 1266 416 1233T344 1200T273 1233T242 1313Q242 1358 272 1391T344 1425T415 1392T446 1313ZM823 1313Q823 1266 793 1233T721 1200T649 1233T618 1313Q618 1358 649 1391T721 1425T792 1392T823 1313Z" />
<glyph unicode="&#xe5;" glyph-name="aring" horiz-adv-x="1067" d="M643 1116Q657 1057 686 977L997 131Q1020 57 1059 0H834Q828 39 821 55L705 371H291L158 20Q156 16 154 9T152 0H8L410 977Q426 1024 460 1053T517 1091T590 1108T643 1116ZM672 461L500 922L322
461H672ZM563 1532Q479 1532 422 1481T365 1348Q365 1268 411 1223T520 1178Q606 1178 664 1231T723 1364Q723 1440 676 1486T563 1532ZM547 1235Q506 1235 476 1271T446 1370Q446 1423 473 1449T537 1475Q580 1475 609 1441T639 1343Q639 1288 612 1262T547 1235Z"
/>
<glyph unicode="&#xe6;" glyph-name="ae" horiz-adv-x="1396" d="M549 1081L940 1083L1243 1090Q1274 1061 1279 984T1266 895H1233Q1223 932 1172 957T1047 985L918 989Q893 989 881 987Q881 971 880 910T876 743T870 573H1139Q1164 573 1180 579T1201 591L1206
596Q1208 582 1208 563Q1208 536 1200 517T1172 487T1132 469T1076 462T1015 461T943 462T870 463V356Q870 282 874 123Q874 117 877 113H1206Q1231 113 1246 118T1266 129L1270 135Q1274 121 1274 102Q1274 0 1114 0H684V78V367H348L166 33Q162 27 159 13L156
0H8L549 963Q569 1012 539 1053L549 1081ZM686 1008L651 922L395 455H684V872Q684 973 686 1008Z" />
<glyph unicode="&#xe7;" glyph-name="ccedilla" horiz-adv-x="1107" d="M1004 258Q1022 221 1022 178Q1022 94 920 40T666 -20Q656 -49 655 -72Q655 -92 687 -105T756 -127T824 -168T856 -252Q856 -346 788 -413T623 -481Q549 -481 506 -454T463 -377Q463 -354
471 -332Q514 -375 616 -375Q665 -375 698 -354T731 -297Q731 -270 703 -252T640 -223T578 -188T549 -127Q549 -64 612 -23Q374 -17 244 131T113 516Q113 772 272 935T686 1098Q813 1098 919 1051T1026 926Q1026 901 1001 875T932 848Q901 848 866 864Q864 882
856 900T830 940T771 976T676 989Q510 989 418 873T326 586Q326 467 362 360T487 174T698 96Q782 96 873 136T1004 258Z" />
<glyph unicode="&#xe8;" glyph-name="egrave" horiz-adv-x="913" d="M209 874Q209 933 200 974T185 1024T162 1057L174 1083H440L743 1090Q774 1061 779 984T766 895H733Q723 932 672 957T547 985L408 989Q396 743 395 602H662Q687 602 703 608T723 620L727 625Q731
605 731 586Q731 490 571 489H395Q393 303 399 125Q399 123 403 115H727Q752 115 768 121T788 132L793 137Q797 117 797 98Q797 0 637 0H207L209 111V874ZM319 1524H197L276 1384Q385 1198 553 1198Q569 1198 587 1205T617 1219T629 1231Q566 1251 521 1301T455
1400T399 1486T319 1524Z" />
<glyph unicode="&#xe9;" glyph-name="eacute" horiz-adv-x="913" d="M666 1524H788L709 1384Q600 1198 432 1198Q416 1198 398 1205T368 1219T356 1231Q419 1251 464 1301T530 1400T586 1486T666 1524ZM209 874Q209 933 200 974T185 1024T162 1057L174 1083H440L743
1090Q774 1061 779 984T766 895H733Q723 932 672 957T547 985L408 989Q396 743 395 602H662Q687 602 703 608T723 620L727 625Q731 605 731 586Q731 490 571 489H395Q393 303 399 125Q399 123 403 115H727Q752 115 768 121T788 132L793 137Q797 117 797 98Q797
0 637 0H207L209 111V874Z" />
<glyph unicode="&#xea;" glyph-name="ecircumflex" horiz-adv-x="913" d="M209 874Q209 933 200 974T185 1024T162 1057L174 1083H440L743 1090Q774 1061 779 984T766 895H733Q723 932 672 957T547 985L408 989Q396 743 395 602H662Q687 602 703 608T723 620L727
625Q731 605 731 586Q731 490 571 489H395Q393 303 399 125Q399 123 403 115H727Q752 115 768 121T788 132L793 137Q797 117 797 98Q797 0 637 0H207L209 111V874ZM500 1524H516Q553 1524 602 1457T707 1315T813 1231Q813 1227 802 1220T773 1205T737 1198Q659
1198 622 1223T535 1319Q523 1335 513 1363T497 1411L492 1432Q474 1354 446 1319Q407 1260 365 1229T246 1198Q230 1198 212 1205T182 1219T170 1231Q209 1239 256 1287T337 1387T406 1482T467 1524H500Z" />
<glyph unicode="&#xeb;" glyph-name="edieresis" horiz-adv-x="913" d="M209 874Q209 933 200 974T185 1024T162 1057L174 1083H440L743 1090Q774 1061 779 984T766 895H733Q723 932 672 957T547 985L408 989Q396 743 395 602H662Q687 602 703 608T723 620L727
625Q731 605 731 586Q731 490 571 489H395Q393 303 399 125Q399 123 403 115H727Q752 115 768 121T788 132L793 137Q797 117 797 98Q797 0 637 0H207L209 111V874ZM391 1313Q391 1266 361 1233T289 1200T217 1233T186 1313Q186 1358 217 1391T289 1425T360 1392T391
1313ZM768 1313Q768 1266 738 1233T666 1200T594 1233T563 1313Q563 1358 594 1391T666 1425T737 1392T768 1313Z" />
<glyph unicode="&#xec;" glyph-name="igrave" horiz-adv-x="626" d="M422 0H219V27V874Q219 1019 133 1030V1061Q194 1104 287 1104Q375 1104 399 1041T414 825Q394 551 414 72Q414 56 418 29T422 0ZM256 1524H133L213 1384Q322 1198 489 1198Q505 1198 524 1205T554
1219T565 1231Q502 1251 457 1301T392 1400T336 1486T256 1524Z" />
<glyph unicode="&#xed;" glyph-name="iacute" horiz-adv-x="626" d="M451 1524H573L494 1384Q385 1198 217 1198Q201 1198 183 1205T153 1219T141 1231Q204 1251 249 1301T315 1400T371 1486T451 1524ZM422 0H219V27V874Q219 1019 133 1030V1061Q194 1104 287
1104Q375 1104 399 1041T414 825Q394 551 414 72Q414 56 418 29T422 0Z" />
<glyph unicode="&#xee;" glyph-name="icircumflex" horiz-adv-x="626" d="M422 0H219V27V874Q219 1019 133 1030V1061Q194 1104 287 1104Q375 1104 399 1041T414 825Q394 551 414 72Q414 56 418 29T422 0ZM463 1524H479Q516 1524 565 1457T670 1315T776 1231Q776
1227 765 1220T736 1205T700 1198Q622 1198 585 1223T498 1319Q486 1335 476 1363T460 1411L455 1432Q437 1354 410 1319Q371 1260 328 1229T209 1198Q193 1198 175 1205T145 1219T133 1231Q172 1239 219 1287T300 1387T370 1482T430 1524H463Z" />
<glyph unicode="&#xef;" glyph-name="idieresis" horiz-adv-x="626" d="M422 0H219V27V874Q219 1019 133 1030V1061Q194 1104 287 1104Q375 1104 399 1041T414 825Q394 551 414 72Q414 56 418 29T422 0ZM338 1313Q338 1266 307 1233T236 1200T164 1233T133 1313Q133
1358 164 1391T235 1425T307 1392T338 1313ZM715 1313Q715 1266 684 1233T612 1200T541 1233T510 1313Q510 1358 540 1391T612 1425T684 1392T715 1313Z" />
<glyph unicode="&#xf1;" glyph-name="ntilde" horiz-adv-x="1406" d="M1057 352Q1061 362 1061 879Q1061 1006 1014 1057L1026 1083Q1057 1103 1122 1104Q1183 1104 1208 1085Q1185 688 1186 313Q1186 155 1194 0H1073L412 717Q351 789 338 819Q344 790 344 745Q344
706 342 624T340 500Q340 131 358 0H217V27Q219 240 219 610V879Q219 1000 174 1057L186 1083Q264 1114 317 1100L1004 354Q1020 338 1036 312T1061 267L1069 250Q1057 317 1057 352ZM344 1282Q420 1337 473 1333Q506 1331 598 1300T758 1264Q856 1258 934 1298T1030
1427Q946 1368 879 1372Q844 1376 749 1406T602 1440Q506 1446 433 1407T344 1282Z" />
<glyph unicode="&#xf2;" glyph-name="ograve" horiz-adv-x="1249" d="M668 1104Q426 1104 266 939T106 520Q106 268 244 121T563 -27Q819 -27 979 141T1145 559Q1145 815 1008 959T668 1104ZM647 84Q506 84 409 231T311 573Q311 749 395 869T606 989Q743 989 840
848T938 504Q938 326 856 205T647 84ZM449 1524H326L406 1384Q515 1198 682 1198Q698 1198 716 1205T746 1219T758 1231Q695 1251 650 1301T584 1400T529 1486T449 1524Z" />
<glyph unicode="&#xf3;" glyph-name="oacute" horiz-adv-x="1249" d="M668 1104Q426 1104 266 939T106 520Q106 268 244 121T563 -27Q819 -27 979 141T1145 559Q1145 815 1008 959T668 1104ZM647 84Q506 84 409 231T311 573Q311 749 395 869T606 989Q743 989 840
848T938 504Q938 326 856 205T647 84ZM774 1524H897L817 1384Q708 1198 541 1198Q525 1198 506 1205T476 1219T465 1231Q528 1251 573 1301T638 1400T694 1486T774 1524Z" />
<glyph unicode="&#xf4;" glyph-name="ocircumflex" horiz-adv-x="1249" d="M668 1104Q426 1104 266 939T106 520Q106 268 244 121T563 -27Q819 -27 979 141T1145 559Q1145 815 1008 959T668 1104ZM647 84Q506 84 409 231T311 573Q311 749 395 869T606 989Q743
989 840 848T938 504Q938 326 856 205T647 84ZM635 1524H651Q688 1524 737 1457T842 1315T948 1231Q948 1227 937 1220T908 1205T872 1198Q794 1198 757 1223T670 1319Q658 1335 648 1363T632 1411L627 1432Q609 1354 582 1319Q543 1260 500 1229T381 1198Q365
1198 347 1205T317 1219T305 1231Q344 1239 391 1287T472 1387T542 1482T602 1524H635Z" />
<glyph unicode="&#xf5;" glyph-name="otilde" horiz-adv-x="1249" d="M668 1104Q426 1104 266 939T106 520Q106 268 244 121T563 -27Q819 -27 979 141T1145 559Q1145 815 1008 959T668 1104ZM647 84Q506 84 409 231T311 573Q311 749 395 869T606 989Q743 989 840
848T938 504Q938 326 856 205T647 84ZM279 1282Q355 1337 408 1333Q441 1331 533 1300T692 1264Q790 1258 868 1298T965 1427Q881 1368 813 1372Q778 1376 683 1406T537 1440Q441 1446 368 1407T279 1282Z" />
<glyph unicode="&#xf6;" glyph-name="odieresis" horiz-adv-x="1249" d="M668 1104Q426 1104 266 939T106 520Q106 268 244 121T563 -27Q819 -27 979 141T1145 559Q1145 815 1008 959T668 1104ZM647 84Q506 84 409 231T311 573Q311 749 395 869T606 989Q743 989
840 848T938 504Q938 326 856 205T647 84ZM522 1313Q522 1266 492 1233T420 1200T348 1233T317 1313Q317 1358 348 1391T420 1425T491 1392T522 1313ZM899 1313Q899 1266 869 1233T797 1200T725 1233T694 1313Q694 1358 725 1391T797 1425T868 1392T899 1313Z"
/>
<glyph unicode="&#xf7;" glyph-name="divide" horiz-adv-x="1001" d="M596 229Q596 180 562 147T481 113Q432 113 399 146T365 229Q365 276 398 310T481 344Q528 344 562 310T596 229ZM596 819Q596 770 562 736T481 702Q432 702 399 736T365 819Q365 866 398 900T481
934Q528 934 562 900T596 819ZM180 461V592Q180 584 524 584Q786 584 809 600Q803 557 779 529T734 487T660 467T590 461T506 461Q479 461 354 462T217 463Q188 463 180 461Z" />
<glyph unicode="&#xf8;" glyph-name="oslash" horiz-adv-x="1249" d="M117 2L221 115L229 123Q352 -24 551 -25Q809 -25 969 142T1137 559Q1137 788 1030 928Q1040 938 1054 951T1078 974T1097 994T1113 1015T1120 1034T1118 1053T1104 1073Q1096 1081 1057 1106Q1047
1094 967 997Q852 1097 680 1098Q428 1098 271 937T113 520Q113 334 178 203L47 74L117 2ZM635 76Q471 76 377 270L885 784Q944 655 944 504Q944 324 850 200T635 76ZM602 995Q739 995 838 862L340 362Q311 466 311 584Q311 760 395 877T602 995Z" />
<glyph unicode="&#xf9;" glyph-name="ugrave" horiz-adv-x="1263" d="M1116 356Q1116 190 993 82T659 -27Q458 -27 346 56T227 342Q217 655 217 877Q217 904 216 926T212 964T206 992T198 1015T190 1031T180 1045T172 1057L184 1083Q239 1106 307 1106Q370 1106
420 1085Q410 882 410 365Q410 97 676 96Q805 96 889 155T981 307Q987 362 987 879Q987 1006 942 1057L954 1083Q981 1103 1049 1104Q1110 1104 1135 1085Q1116 694 1116 356ZM500 1524H377L457 1384Q566 1198 733 1198Q749 1198 767 1205T797 1219T809 1231Q746
1251 701 1301T635 1400T580 1486T500 1524Z" />
<glyph unicode="&#xfa;" glyph-name="uacute" horiz-adv-x="1263" d="M1116 356Q1116 190 993 82T659 -27Q458 -27 346 56T227 342Q217 655 217 877Q217 904 216 926T212 964T206 992T198 1015T190 1031T180 1045T172 1057L184 1083Q239 1106 307 1106Q370 1106
420 1085Q410 882 410 365Q410 97 676 96Q805 96 889 155T981 307Q987 362 987 879Q987 1006 942 1057L954 1083Q981 1103 1049 1104Q1110 1104 1135 1085Q1116 694 1116 356ZM817 1524H940L860 1384Q751 1198 584 1198Q568 1198 549 1205T519 1219T508 1231Q571
1251 616 1301T682 1400T737 1486T817 1524Z" />
<glyph unicode="&#xfb;" glyph-name="ucircumflex" horiz-adv-x="1263" d="M1116 356Q1116 190 993 82T659 -27Q458 -27 346 56T227 342Q217 655 217 877Q217 904 216 926T212 964T206 992T198 1015T190 1031T180 1045T172 1057L184 1083Q239 1106 307 1106Q370
1106 420 1085Q410 882 410 365Q410 97 676 96Q805 96 889 155T981 307Q987 362 987 879Q987 1006 942 1057L954 1083Q981 1103 1049 1104Q1110 1104 1135 1085Q1116 694 1116 356ZM651 1524H668Q705 1524 754 1457T859 1315T965 1231Q965 1227 954 1220T924 1205T889
1198Q811 1198 773 1223T686 1319Q674 1335 664 1363T648 1411L643 1432Q625 1354 598 1319Q559 1260 516 1229T397 1198Q381 1198 363 1205T333 1219T322 1231Q361 1239 408 1287T488 1387T558 1482T618 1524H651Z" />
<glyph unicode="&#xfc;" glyph-name="udieresis" horiz-adv-x="1263" d="M1116 356Q1116 190 993 82T659 -27Q458 -27 346 56T227 342Q217 655 217 877Q217 904 216 926T212 964T206 992T198 1015T190 1031T180 1045T172 1057L184 1083Q239 1106 307 1106Q370
1106 420 1085Q410 882 410 365Q410 97 676 96Q805 96 889 155T981 307Q987 362 987 879Q987 1006 942 1057L954 1083Q981 1103 1049 1104Q1110 1104 1135 1085Q1116 694 1116 356ZM580 1313Q580 1266 549 1233T477 1200T406 1233T375 1313Q375 1358 405 1391T477
1425T549 1392T580 1313ZM956 1313Q956 1266 926 1233T854 1200T783 1233T752 1313Q752 1358 782 1391T854 1425T925 1392T956 1313Z" />
<glyph unicode="&#xff;" glyph-name="ydieresis" horiz-adv-x="892" d="M594 0H377V27Q377 95 378 188T379 307Q379 465 377 494Q367 504 340 545L170 819Q147 856 120 904T82 969T55 1009T24 1041T-8 1057L4 1083Q57 1108 129 1108Q215 1108 246 1077Q285 987
371 834T506 606Q516 635 537 668L684 907Q731 993 688 1057L700 1083Q753 1108 801 1108Q858 1108 907 1083Q907 1054 871 978T799 854L582 528Q582 499 581 416T580 283Q580 88 594 0ZM383 1313Q383 1266 353 1233T281 1200T209 1233T178 1313Q178 1358 209 1391T281
1425T352 1392T383 1313ZM760 1313Q760 1266 729 1233T657 1200T586 1233T555 1313Q555 1358 585 1391T657 1425T729 1392T760 1313Z" />
<glyph unicode="&#x131;" glyph-name="dotlessi" horiz-adv-x="626" d="M422 0H219V27V874Q219 1019 133 1030V1061Q194 1104 287 1104Q375 1104 399 1041T414 825Q394 551 414 72Q414 56 418 29T422 0Z" />
<glyph unicode="&#x152;" glyph-name="OE" horiz-adv-x="1730" d="M825 109H930V139V1090Q930 1182 915 1239H698Q555 1239 442 1099T326 739Q320 473 467 291T825 109ZM1430 0H731Q467 0 284 165T102 641Q110 948 278 1148T723 1348H1202L1552 1354Q1587 1319
1593 1230T1579 1126H1540Q1530 1173 1471 1205T1325 1239L1151 1245Q1137 1001 1137 745H1458Q1487 745 1505 751T1529 765L1534 772Q1538 756 1538 731Q1538 690 1522 666T1471 632T1416 621T1354 618Q1352 618 1303 619T1212 621T1135 621Q1133 420 1141 141Q1141
137 1145 129H1534Q1563 129 1581 136T1605 150L1610 156Q1614 140 1614 115Q1614 82 1601 59T1571 25T1525 8T1478 1T1430 0Z" />
<glyph unicode="&#x153;" glyph-name="oe" horiz-adv-x="1536" d="M645 1085H1079L1382 1092Q1413 1063 1418 986T1405 897H1372Q1362 934 1311 959T1186 987L1047 991Q1022 991 1010 989Q1010 887 1008 813Q1004 696 999 606H1280Q1303 606 1319 612T1339 624L1343
629Q1347 615 1348 596Q1348 496 1188 496Q1047 496 999 494Q995 285 1006 123V113H1343Q1368 113 1384 118T1405 129L1409 135Q1411 121 1411 102Q1411 0 1253 0H651Q426 0 266 136T109 522Q117 768 261 926T645 1085ZM733 96H823V121V866Q823 942 811 981H635Q508
981 411 874T311 592Q307 377 426 237T733 96Z" />
<glyph unicode="&#x178;" glyph-name="Ydieresis" horiz-adv-x="1005" d="M406 1599Q406 1552 375 1520T303 1487T232 1519T201 1599Q201 1644 231 1678T303 1712T375 1678T406 1599ZM885 1599Q885 1552 854 1520T782 1487T711 1519T680 1599Q680 1644 710 1678T782
1712T854 1678T885 1599ZM674 0H451V33Q451 117 452 233T453 383Q453 582 451 616Q437 630 408 680L211 1024Q184 1071 154 1128T111 1208T80 1256T47 1293T10 1313L25 1348Q86 1377 168 1376Q254 1376 289 1339Q334 1226 432 1037T586 758Q598 795 621 834L791
1135Q844 1231 793 1313L807 1348Q868 1377 922 1376Q973 1376 1030 1348Q1030 1313 990 1220T911 1067L659 662Q659 627 658 521T657 352Q658 106 674 0Z" />
<glyph unicode="&#x192;" glyph-name="florin" horiz-adv-x="989" d="M465 1126Q436 1011 336 1004L315 942L321 940Q326 938 333 935T350 926T369 910T386 885T398 850T403 805Q399 733 397 684T387 522T366 322T333 121T284 -77T218 -235T130 -351T18 -391Q-37
-391 -68 -369T-100 -311Q-100 -303 -96 -287Q-102 -287 -110 -286T-123 -285Q-180 -285 -214 -311T-248 -377Q-248 -438 -182 -476T-29 -514Q104 -514 202 -461T363 -308T462 -99T524 158Q569 412 590 887Q596 887 655 886T729 885Q903 885 903 1032Q891 1007
829 1008H604Q610 1020 614 1055L637 1217Q664 1420 813 1419Q854 1419 876 1395T901 1335Q926 1325 946 1325Q989 1325 1024 1355T1059 1430Q1059 1481 1003 1513T877 1546Q754 1546 637 1448T465 1126Z" />
<glyph unicode="&#x2c6;" glyph-name="circumflex" horiz-adv-x="823" d="M418 1524H434Q471 1524 520 1457T625 1315T731 1231Q731 1227 720 1220T691 1205T655 1198Q577 1198 540 1223T453 1319Q441 1335 431 1363T415 1411L410 1432Q392 1354 365 1319Q326
1260 283 1229T164 1198Q148 1198 130 1205T100 1219T88 1231Q127 1239 174 1287T255 1387T324 1482T385 1524H418Z" />
<glyph unicode="&#x2d8;" glyph-name="breve" horiz-adv-x="823" d="M416 1288Q490 1288 549 1376T635 1561Q664 1489 664 1421Q664 1310 588 1248T410 1186Q310 1186 237 1245T164 1411Q164 1479 197 1559Q213 1504 239 1448T315 1340T416 1288Z" />
<glyph unicode="&#x2d9;" glyph-name="dotaccent" horiz-adv-x="380" d="M301 1368T301 1323T270 1245T193 1212T115 1245T82 1323T114 1400T192 1432T269 1400Z" />
<glyph unicode="&#x2da;" glyph-name="ring" horiz-adv-x="1064" d="M543 1532Q459 1532 402 1481T344 1348Q344 1268 390 1223T500 1178Q586 1178 644 1231T702 1364Q702 1440 656 1486T543 1532ZM526 1235Q485 1235 456 1271T426 1370Q426 1423 452 1449T516
1475Q559 1475 588 1441T618 1343Q618 1288 591 1262T526 1235Z" />
<glyph unicode="&#x2dc;" glyph-name="tilde" horiz-adv-x="778" d="M51 1282Q127 1337 180 1333Q213 1331 305 1300T465 1264Q563 1258 641 1298T737 1427Q653 1368 586 1372Q551 1376 456 1406T309 1440Q213 1446 140 1407T51 1282Z" />
<glyph unicode="&#x2013;" glyph-name="endash" horiz-adv-x="925" d="M59 438V569Q59 561 588 561Q850 561 872 578Q866 535 842 506T797 464T723 445T654 438T569 438Q542 438 326 439T96 440Q67 440 59 438Z" />
<glyph unicode="&#x2014;" glyph-name="emdash" horiz-adv-x="1390" d="M53 438V569Q53 561 1053 561Q1315 561 1337 578Q1331 535 1307 506T1262 464T1188 445T1119 438T1034 438Q1007 438 555 439T90 440Q61 440 53 438Z" />
<glyph unicode="&#x2018;" glyph-name="quoteleft" horiz-adv-x="452" d="M342 1542L379 1493Q244 1364 244 1268Q244 1178 303 1178Q309 1129 277 1092T199 1055Q82 1055 82 1186Q82 1266 150 1364T342 1542Z" />
<glyph unicode="&#x2019;" glyph-name="quoteright" horiz-adv-x="452" d="M106 1055L70 1104Q205 1233 205 1329Q205 1419 145 1419Q139 1468 172 1505T250 1542Q367 1542 367 1411Q367 1331 298 1233T106 1055Z" />
<glyph unicode="&#x201a;" glyph-name="quotesinglbase" horiz-adv-x="452" d="M106 -295L70 -246Q205 -117 205 -20Q205 70 145 70Q139 119 172 156T250 193Q367 193 367 61Q367 -19 298 -117T106 -295Z" />
<glyph unicode="&#x201c;" glyph-name="quotedblleft" horiz-adv-x="813" d="M702 1542L739 1493Q604 1364 604 1268Q604 1178 664 1178Q670 1129 637 1092T559 1055Q442 1055 442 1186Q442 1266 510 1364T702 1542ZM344 1542L381 1493Q246 1364 246 1268Q246
1178 305 1178Q311 1129 279 1092T201 1055Q84 1055 84 1186Q84 1266 152 1364T344 1542Z" />
<glyph unicode="&#x201d;" glyph-name="quotedblright" horiz-adv-x="813" d="M106 1055L70 1104Q205 1233 205 1329Q205 1419 145 1419Q139 1468 172 1505T250 1542Q367 1542 367 1411Q367 1331 298 1233T106 1055ZM465 1055L428 1104Q563 1233 563 1329Q563
1419 504 1419Q498 1468 530 1505T608 1542Q725 1542 725 1411Q725 1331 657 1233T465 1055Z" />
<glyph unicode="&#x201e;" glyph-name="quotedblbase" horiz-adv-x="813" d="M111 -295L74 -246Q209 -117 209 -20Q209 70 150 70Q144 119 176 156T254 193Q371 193 371 61Q371 -19 303 -117T111 -295ZM469 -295L432 -246Q567 -117 567 -20Q567 70 508 70Q502
119 534 156T612 193Q729 193 729 61Q729 -19 661 -117T469 -295Z" />
<glyph unicode="&#x2020;" glyph-name="dagger" horiz-adv-x="997" d="M543 -166Q549 -291 529 -379T483 -494L459 -520Q449 -508 433 -484T391 -369T367 -172Q381 219 381 508Q381 690 377 883Q279 885 160 885Q131 885 123 883V1014Q123 1006 375 1006Q375 1012
354 1315Q401 1325 430 1325Q553 1325 553 1161Q553 1157 552 1137T549 1079T547 1006H590Q852 1006 874 1022Q868 979 844 951T799 909T725 889T656 883T571 883H543Q533 652 532 397Q531 194 543 -166Z" />
<glyph unicode="&#x2021;" glyph-name="daggerdbl" horiz-adv-x="1017" d="M123 -2V129Q123 121 395 121Q397 127 397 139Q401 381 401 508Q401 690 397 883Q299 885 180 885Q151 885 143 883V1014Q143 1006 395 1006Q395 1012 375 1315Q422 1325 451 1325Q574
1325 573 1161Q573 1157 572 1137T569 1079T567 1006H610Q872 1006 895 1022Q889 979 865 951T820 909T746 889T676 883T592 883H563Q553 652 553 397Q550 246 553 121H590Q852 121 874 137Q868 94 844 66T799 24T725 4T656 -2T571 -2H557Q561 -100 563 -166Q569
-291 549 -379T504 -494L479 -520Q469 -508 453 -484T411 -369T387 -172Q389 -149 390 -101T391 -29Q393 -19 393 0H160Q131 0 123 -2Z" />
<glyph unicode="&#x2022;" glyph-name="bullet" horiz-adv-x="868" d="M432 758Q536 758 611 684T686 506Q686 400 612 326T432 252Q326 252 252 325T178 506Q178 610 252 684T432 758Z" />
<glyph unicode="&#x2026;" glyph-name="ellipsis" horiz-adv-x="1357" d="M377 129T377 84T345 6T268 -27Q221 -27 190 5T158 84Q158 129 190 161T268 193T345 161ZM797 129T797 84T765 6T688 -27T611 5T578 84Q578 129 610 161T688 193T765 161ZM1206 129T1206
84T1175 6T1098 -27T1020 5T987 84Q987 129 1020 161T1098 193T1174 161Z" />
<glyph unicode="&#x2030;" glyph-name="perthousand" horiz-adv-x="2375" d="M432 0H287Q815 754 999 1027T1188 1350Q1227 1381 1270 1380Q1331 1380 1331 1339Q1331 1321 1319 1295T1294 1249T1260 1202T1235 1169Q1231 1163 1050 906T680 376T432 0ZM1249 662Q1093
662 997 564T901 307Q901 145 978 61T1171 -23Q1327 -23 1425 79T1528 334Q1528 490 1449 576T1249 662ZM1221 59Q1135 59 1087 138T1038 350Q1038 454 1082 516T1200 578Q1290 578 1342 502T1395 297Q1395 191 1345 125T1221 59ZM481 1378Q325 1378 229 1280T133
1024Q133 862 210 778T403 694Q559 694 657 796T760 1051Q760 1207 681 1292T481 1378ZM453 776Q367 776 319 855T270 1067Q270 1171 314 1232T432 1294Q522 1294 574 1219T627 1014Q627 908 577 842T453 776ZM1970 662Q1814 662 1718 564T1622 307Q1622 145 1699
61T1892 -23Q2048 -23 2146 79T2249 334Q2249 490 2170 576T1970 662ZM1942 59Q1856 59 1808 138T1759 350Q1759 454 1803 516T1921 578Q2011 578 2063 502T2116 297Q2116 191 2066 125T1942 59Z" />
<glyph unicode="&#x2039;" glyph-name="guilsinglleft" horiz-adv-x="755" d="M80 506Q103 526 121 547L389 866Q543 1050 659 956Q641 950 618 929T579 890L563 872L336 569Q326 553 309 538T280 514L268 506Q311 477 336 442L563 139Q618 69 659 55Q542 -39
389 145L121 465L80 506Z" />
<glyph unicode="&#x203a;" glyph-name="guilsinglright" horiz-adv-x="755" d="M662 506Q639 526 621 547L352 866Q198 1050 82 956Q100 950 123 929T163 890L178 872L406 569Q416 553 433 538T462 514L473 506Q430 477 406 442L178 139Q123 69 82 55Q199 -39
352 145L621 465L662 506Z" />
<glyph unicode="&#x2044;" glyph-name="fraction" horiz-adv-x="1044" d="M139 0H-6Q522 754 706 1027T895 1350Q934 1381 977 1380Q1038 1380 1038 1339Q1038 1321 1026 1295T1001 1249T967 1202T942 1169Q938 1163 757 906T387 376T139 0Z" />
<glyph unicode="&#x20ac;" glyph-name="Euro" horiz-adv-x="1183" d="M25 731L49 862Q49 856 176 856Q231 1092 403 1232T817 1372Q1005 1372 1088 1305T1098 1130Q1094 1169 1007 1209T793 1249Q619 1249 496 1137T336 854H721Q983 854 1006 870Q1000 827 975
799T930 757T856 737T787 731T702 731H324Q324 659 334 567H598Q860 567 883 584Q877 541 852 512T807 470T733 451T664 444T580 444H358Q460 90 819 90Q872 90 960 117T1108 209Q1110 92 1015 32T756 -29Q520 -29 370 98T172 446H66Q37 446 29 444L49 575Q78 571
154 571Q152 596 152 645Q152 704 156 733H61Q33 733 25 731Z" />
<glyph unicode="&#x2122;" glyph-name="trademark" horiz-adv-x="1642" d="M1573 686H1423Q1417 719 1419 881T1421 1077Q1425 1169 1404 1209T1325 1249Q1231 1249 1161 1184Q1161 1172 1159 1098T1157 975Q1157 768 1176 686H1026Q1024 719 1024 1077Q1024 1171
1004 1210T928 1249Q826 1249 752 1165Q752 932 756 795Q756 772 768 686H612L621 1145Q621 1208 604 1245T568 1287L551 1292V1333Q614 1370 680 1370Q766 1370 756 1253Q852 1374 991 1374Q1052 1374 1095 1341T1155 1253Q1247 1374 1391 1374Q1463 1374 1509
1325T1559 1208V1120Q1559 1097 1558 1039T1556 948Q1557 752 1573 686ZM291 1462L274 1354H403Q430 1354 448 1361T472 1374L477 1380Q493 1327 464 1290T371 1253Q367 1253 326 1255T274 1255Q274 1189 273 1103T272 965Q272 918 273 900T280 852T303 812T346
797Q385 793 432 809T489 842Q501 776 456 722T324 668Q215 668 176 721T137 885Q137 930 141 1023T145 1159Q145 1237 133 1251Q102 1292 72 1292L76 1354Q146 1354 209 1462H291Z" />
<glyph unicode="&#x2202;" glyph-name="partialdiff" horiz-adv-x="24" d="M25 1421V0H0V1421H25Z" />
<glyph unicode="&#xf8ff;" glyph-name="uniF8FF" horiz-adv-x="1415" d="M145 0V1008H1274V0H145ZM500 399L295 592V123L1118 127V592L911 399L707 598L500 399ZM473 729T473 774T442 851T365 883T287 851T254 774T286 697T364 664T441 696ZM821 729T821 774T790
851T713 883T635 851T602 774T635 697T713 664T789 696ZM1174 729T1174 774T1142 851T1065 883T987 851T954 774T987 697T1065 664T1142 696Z" />
<glyph unicode="&#xfb01;" glyph-name="uniFB01" horiz-adv-x="1488" d="M416 0H209L211 111V874Q211 933 202 974T188 1024T164 1057L176 1083H444L748 1090Q777 1061 781 984T770 895H737Q727 932 676 957T551 985L410 989Q398 743 397 602H664Q689 602 705
608T725 620L729 625Q733 605 733 586Q733 490 573 489H397Q395 294 401 113Q402 45 416 0ZM1282 0H1075Q1079 106 1079 879Q1079 899 1078 917T1075 950T1071 976T1066 997T1061 1014T1054 1028T1047 1039T1039 1049T1032 1059L1044 1085Q1105 1108 1174 1108Q1233
1108 1280 1087Q1264 718 1264 432Q1264 39 1282 0Z" />
<glyph unicode="&#xfb02;" glyph-name="uniFB02" horiz-adv-x="1732" d="M416 0H209L211 111V874Q211 933 202 974T188 1024T164 1057L176 1083H444L748 1090Q777 1061 781 984T770 895H737Q727 932 676 957T551 985L410 989Q398 743 397 602H664Q689 602 705
608T725 620L729 625Q733 605 733 586Q733 490 573 489H397Q395 294 401 113Q402 45 416 0ZM1659 0H1077Q1081 106 1081 877Q1081 897 1080 915T1077 948T1073 974T1068 995T1063 1012T1056 1026T1049 1037T1042 1047T1034 1057L1047 1083Q1108 1106 1176 1106Q1235
1106 1282 1085Q1266 716 1266 432Q1266 192 1270 102H1462Q1538 102 1588 127T1647 188H1681Q1699 170 1694 98T1659 0Z" />
</font>
</defs>
</svg>
