<?xml version="1.0" standalone="no"?> <!DOCTYPE svg PUBLIC "-//W3C//DTD SVG 1.0//EN" "http://www.w3.org/TR/2001/REC-SVG-20010904/DTD/svg10.dtd" > <svg xmlns="http://www.w3.org/2000/svg" width="100%" height="100%">
<defs >
<font id="FontinSans-Bold" horiz-adv-x="927" ><font-face
    font-family="Fontin Sans Rg"
    units-per-em="2048"
    panose-1="2 0 0 0 0 0 0 0 0 0"
    ascent="1800"
    descent="-520"
    alphabetic="0" />
<missing-glyph horiz-adv-x="1024" />
<glyph unicode=" " glyph-name="space" horiz-adv-x="512" />
<glyph unicode="!" glyph-name="exclam" horiz-adv-x="561" d="M438 1569L381 444L193 414L150 1337L121 1528L438 1569ZM444 125Q444 62 401 18T291 -27T180 17T137 125Q137 186 181 232T290 279T400 233T444 125Z" />
<glyph unicode="&quot;" glyph-name="quotedbl" horiz-adv-x="841" d="M346 874H147L154 1133L117 1337L346 1376V874ZM694 874H496L502 1133L465 1337L694 1376V874Z" />
<glyph unicode="#" glyph-name="numbersign" horiz-adv-x="1462" d="M1323 346H1034L995 0H754L795 346H547L508 0H266L307 346H29V539H326L362 858H86V1051H381L414 1348H653L618 1051H866L899 1348H1141L1106 1051H1401L1378 858H1090L1053 539H1346L1323 346ZM813
539L850 858H602L565 539H813Z" />
<glyph unicode="$" glyph-name="dollar" horiz-adv-x="1003" d="M575 1548V1391Q743 1377 901 1280L850 1053Q727 1157 575 1182V819Q647 774 680 752T773 681T863 592T917 492T942 367Q942 205 844 100T575 -23V-193H451V-25Q349 -17 259 18T129 83L90 113L111
352Q127 334 156 308T275 232T451 174V551Q392 590 353 616T262 688T182 775T131 874T109 993Q109 1147 201 1256T451 1386V1548H575ZM686 315Q686 387 575 467V182Q686 213 686 315ZM352 1053Q352 977 451 903V1178Q352 1147 352 1053Z" />
<glyph unicode="%" glyph-name="percent" horiz-adv-x="1761" d="M793 1174T793 1039T691 804T453 705Q320 705 220 804T119 1038T219 1273T453 1372Q588 1372 690 1273ZM612 1040Q612 1101 564 1147T455 1194Q392 1194 346 1149T299 1040Q299 979 344 928T455
877Q527 877 569 927T612 1040ZM1448 1325L530 0H291L1253 1409L1448 1325ZM1642 442T1642 307T1540 73T1303 -27Q1170 -27 1070 72T969 307T1069 541T1303 641Q1438 641 1540 542ZM1462 309Q1462 370 1414 416T1305 463Q1242 463 1196 418T1149 309Q1149 248 1194
197T1305 145Q1377 145 1419 195T1462 309Z" />
<glyph unicode="&amp;" glyph-name="ampersand" horiz-adv-x="1574" d="M1516 113L1333 -45Q1198 10 1024 141Q866 -27 582 -27Q375 -27 244 85T113 358Q113 479 182 586T389 807Q219 1055 219 1206Q219 1360 342 1463T645 1567Q811 1567 911 1483T1012 1280Q1012
1165 921 1053T662 805Q809 621 991 453Q1063 598 1063 834Q1063 928 1055 1028H1552L1511 846H1272Q1272 682 1237 540T1153 317Q1360 158 1516 113ZM639 164Q702 164 760 190T846 244L872 270Q692 428 502 662Q373 533 373 385Q373 293 438 229T639 164ZM451
1233Q451 1135 565 950Q665 1032 718 1097T772 1227Q772 1288 733 1340T623 1393Q562 1393 507 1351T451 1233Z" />
<glyph unicode="&apos;" glyph-name="quotesingle" horiz-adv-x="493" d="M346 874H147L154 1133L117 1337L346 1376V874Z" />
<glyph unicode="(" glyph-name="parenleft" horiz-adv-x="696" d="M350 639T350 486T381 184T456 -69T549 -259T635 -388T688 -440L502 -508Q338 -406 221 -106T104 485Q104 772 219 1043T502 1417L688 1350Q670 1342 635 1305T550 1191T456 1018T381 781Z" />
<glyph unicode=")" glyph-name="parenright" horiz-adv-x="696" d="M346 332T346 485T316 780T241 1018T147 1191T62 1304T8 1350L195 1417Q361 1315 476 1044T592 485Q592 194 475 -107T195 -508L8 -440Q24 -432 61 -388T147 -259T241 -70T315 183Z" />
<glyph unicode="*" glyph-name="asterisk" horiz-adv-x="843" d="M-23 1104L59 1272L281 1266L115 1524L326 1538L418 1360L543 1589L680 1456L555 1266L858 1272L776 1104L555 1110L721 852L510 838L418 1014L293 788L160 922L281 1110L-23 1104Z" />
<glyph unicode="+" glyph-name="plus" horiz-adv-x="985" d="M381 123V418H88V618H381V934L606 872V618H915L864 418H606V123H381Z" />
<glyph unicode="," glyph-name="comma" horiz-adv-x="573" d="M186 -272L104 -172Q225 -63 225 27Q225 68 212 87T166 121V135Q166 184 206 229T303 274Q364 274 406 234T449 117Q449 33 383 -74T186 -272Z" />
<glyph unicode="-" glyph-name="hyphen" horiz-adv-x="638" d="M33 612H629L571 399H33V612Z" />
<glyph unicode="." glyph-name="period" horiz-adv-x="573" d="M440 125Q440 62 397 18T287 -27T176 17T133 125Q133 186 177 232T286 279T396 233T440 125Z" />
<glyph unicode="/" glyph-name="slash" horiz-adv-x="616" d="M586 1346L147 -500H-78L354 1346H586Z" />
<glyph unicode="0" glyph-name="zero" horiz-adv-x="1044" d="M535 1235Q992 1235 991 606Q991 321 871 147T489 -27Q294 -27 175 126T55 608Q55 891 174 1063T535 1235ZM522 1038Q319 1038 319 631Q319 166 512 166Q612 166 671 280T731 598Q731 1038 522 1038Z" />
<glyph unicode="1" glyph-name="one" horiz-adv-x="839" d="M70 0V197H322V944L121 883L47 1065L575 1239V197H827L799 0H70Z" />
<glyph unicode="2" glyph-name="two" horiz-adv-x="1044" d="M938 0H150L123 115Q388 399 486 535Q628 734 629 854Q629 936 582 981T473 1026Q410 1026 348 995T254 932L223 901L117 1087Q281 1224 502 1225Q662 1225 775 1135T889 881Q889 795 846 696T743 515T622
366T518 259L475 221H965L938 0Z" />
<glyph unicode="3" glyph-name="three" horiz-adv-x="1044" d="M893 924Q893 840 838 769T690 651Q807 622 874 523T942 309Q942 121 827 -7T538 -180T172 -195L111 -2Q172 -14 244 -16T395 -2T535 46T639 139T680 283Q680 363 615 418T483 491T362 510L391 678Q487
711 559 770T631 897Q631 963 585 996T481 1030Q446 1030 408 1019T338 993T282 961T243 932T231 918L147 1096Q305 1225 506 1225Q668 1225 780 1145T893 924Z" />
<glyph unicode="4" glyph-name="four" horiz-adv-x="1044" d="M29 340L610 1229L827 1192V416H1024L983 195H827V-16L852 -205H573V195H55L29 340ZM578 416V735L594 893L520 741L358 477L313 416H578Z" />
<glyph unicode="5" glyph-name="five" horiz-adv-x="1044" d="M905 1198L864 977H434L424 768Q631 766 779 640T928 319Q928 143 830 21T591 -154T287 -207Q213 -207 158 -199L96 -8Q176 -22 248 -23Q352 -23 444 8T602 114T668 299Q668 416 551 502T293 588Q240
588 190 582L219 1198H905Z" />
<glyph unicode="6" glyph-name="six" horiz-adv-x="1044" d="M977 1266L891 1065Q780 1186 631 1186Q527 1186 440 1092T338 825Q453 893 600 893Q770 893 882 793T995 487Q995 266 873 120T528 -27Q303 -27 187 147T70 610Q70 825 115 981T242 1223T423 1349T643
1389Q735 1389 819 1358T940 1296L977 1266ZM514 686Q418 686 330 623Q338 181 563 180Q645 180 691 255T737 430Q737 563 676 624T514 686Z" />
<glyph unicode="7" glyph-name="seven" horiz-adv-x="1044" d="M428 -233L199 -201L715 977H129L63 1198H987L1026 1145L428 -233Z" />
<glyph unicode="8" glyph-name="eight" horiz-adv-x="1044" d="M494 -27Q420 -27 352 -9T220 47T117 154T78 317Q78 438 145 526T342 713Q127 891 127 1034Q127 1200 237 1294T547 1389Q709 1389 817 1310T926 1104Q926 989 870 912T702 748Q835 646 908 561T981
383Q981 199 843 86T494 -27ZM494 608Q328 489 328 350Q328 282 377 232T512 182Q594 182 658 226T723 338Q723 379 686 429T611 513T494 608ZM555 854Q680 946 680 1061Q680 1116 640 1160T524 1204Q454 1204 414 1172T373 1075Q373 989 555 854Z" />
<glyph unicode="9" glyph-name="nine" horiz-adv-x="1044" d="M74 -109L160 92Q271 -29 420 -29Q522 -29 610 78T713 375Q598 307 451 307Q281 307 168 407T55 713Q55 934 178 1079T522 1225Q747 1225 864 1044T981 569Q981 153 822 -39T408 -231Q316 -231 232
-201T111 -139L74 -109ZM537 514Q633 514 721 578Q713 1018 487 1018Q405 1018 359 944T313 770Q313 637 375 576T537 514Z" />
<glyph unicode=":" glyph-name="colon" horiz-adv-x="548" d="M139 662Q139 721 181 763T283 805Q338 805 379 763T420 662Q420 605 379 565T283 524Q224 524 182 564T139 662ZM139 111Q139 170 181 212T283 254Q338 254 379 212T420 111Q420 54 379 14T283 -27Q224
-27 182 13T139 111Z" />
<glyph unicode=";" glyph-name="semicolon" horiz-adv-x="548" d="M156 -272L74 -172Q195 -63 195 27Q195 68 182 87T137 121Q135 125 135 135Q135 184 175 229T272 274Q333 274 375 234T418 117Q418 33 353 -74T156 -272ZM139 662Q139 721 181 763T283 805Q338
805 379 763T420 662Q420 605 379 565T283 524Q224 524 182 564T139 662Z" />
<glyph unicode="&lt;" glyph-name="less" horiz-adv-x="776" d="M702 821L389 504L702 190L610 6L59 506L610 1006L702 821Z" />
<glyph unicode="=" glyph-name="equal" horiz-adv-x="1003" d="M88 412H903L852 219H88V412ZM88 791H924L872 598H88V791Z" />
<glyph unicode="&gt;" glyph-name="greater" horiz-adv-x="776" d="M70 190L383 508L70 821L162 1006L713 506L162 6L70 190Z" />
<glyph unicode="?" glyph-name="question" horiz-adv-x="899" d="M416 389L209 461Q199 502 199 532Q199 606 236 678T327 806T435 917T527 1033T565 1151Q565 1237 505 1283T358 1329Q321 1329 272 1318T193 1294L162 1282L94 1503Q250 1556 383 1556Q563 1556
693 1460T823 1174Q823 1090 780 1010T675 868T550 748T444 630T401 514Q402 430 416 389ZM487 125Q487 62 444 18T334 -27T223 17T180 125Q180 186 224 232T333 279T443 233T487 125Z" />
<glyph unicode="@" glyph-name="at" horiz-adv-x="1867" d="M1280 831V358Q1280 165 1300 143Q1419 143 1489 279T1559 578Q1559 838 1404 1013T973 1188Q703 1188 503 968T303 469Q303 303 382 148T619 -115T979 -231L870 -418Q628 -387 448 -252T182 70T96 469Q96
635 156 793T327 1081T613 1289T1001 1368Q1337 1368 1554 1149T1772 606Q1772 491 1738 382T1640 178T1466 27T1219 -31Q1160 -31 1126 -27Q1083 20 1059 104Q1051 90 1035 70T962 16T840 -18Q680 -18 591 113T502 420Q502 694 665 865T1090 1036Q1131 1036 1183
1026T1267 1006L1298 995L1280 831ZM1036 242L1034 856Q991 848 952 828T866 764T792 638T764 442Q764 340 794 264T895 188Q930 188 964 201T1018 228L1036 242Z" />
<glyph unicode="A" glyph-name="A" horiz-adv-x="1212" d="M-20 0L506 1352L680 1395L1098 254L1212 0H915L799 317H346L225 0H-20ZM559 924L412 528H739L598 926L580 1006L559 924Z" />
<glyph unicode="B" glyph-name="B" horiz-adv-x="1179" d="M465 1178V829Q539 829 698 817Q764 911 764 1016Q764 1106 714 1144T549 1182Q526 1182 465 1178ZM170 1368L537 1378Q758 1378 885 1299T1012 1057Q1012 918 850 770Q1096 657 1096 430Q1096 233 970
117T590 0H199V1157L170 1368ZM465 633V199H592Q703 199 764 258T825 422Q825 633 541 633H465Z" />
<glyph unicode="C" glyph-name="C" horiz-adv-x="1267" d="M1219 1223L1110 1026Q948 1190 752 1190Q580 1190 463 1038T346 676Q346 447 471 315T772 182Q878 182 988 232T1186 375L1235 164Q1139 76 1003 25T733 -27Q461 -27 266 153T70 655T264 1185T750 1393Q1029
1393 1219 1223Z" />
<glyph unicode="D" glyph-name="D" horiz-adv-x="1398" d="M170 1368H723Q842 1368 947 1328T1139 1208T1276 995T1327 692Q1327 391 1144 196T662 0H199V1157L170 1368ZM465 1169V199H686Q842 199 944 336T1047 680Q1047 889 945 1029T686 1169H465Z" />
<glyph unicode="E" glyph-name="E" horiz-adv-x="1044" d="M199 0V1157L170 1368H954V1165H465V803H897L846 600H465V203H981L930 0H199Z" />
<glyph unicode="F" glyph-name="F" horiz-adv-x="993" d="M199 1157L170 1368H954V1165H465V803H897L846 600H465V176L487 0H199V1157Z" />
<glyph unicode="G" glyph-name="G" horiz-adv-x="1343" d="M1219 1223L1110 1026Q948 1190 752 1190Q580 1190 463 1038T346 676Q346 447 473 311T770 174Q819 174 871 181T952 195L981 201V489L944 666H1239L1241 63Q1001 -27 733 -27Q461 -27 266 153T70 655T264
1185T750 1393Q1029 1393 1219 1223Z" />
<glyph unicode="H" glyph-name="H" horiz-adv-x="1566" d="M1370 1368V176L1393 0H1104V578H465V176L487 0H199V1157L170 1368H465V801H1104V1157L1075 1368H1370Z" />
<glyph unicode="I" glyph-name="I" horiz-adv-x="673" d="M467 1368V176L489 0H201V1157L172 1368H467Z" />
<glyph unicode="J" glyph-name="J" horiz-adv-x="663" d="M473 1368V98Q473 -117 362 -262T31 -408Q-28 -408 -121 -389L-106 -160Q-51 -191 31 -190Q111 -190 159 -109T207 98V1157L178 1368H473Z" />
<glyph unicode="K" glyph-name="K" horiz-adv-x="1210" d="M465 176L487 0H199V1157L170 1368H465V739L795 1223L860 1368H1202L725 721L1235 0H907L465 668V176Z" />
<glyph unicode="L" glyph-name="L" horiz-adv-x="985" d="M199 0V1157L170 1368H465V207H987L936 0H199Z" />
<glyph unicode="M" glyph-name="M" horiz-adv-x="1830" d="M911 127L483 715L416 848V176L438 0H180V1157L152 1368H362L934 555L1456 1368H1634V176L1657 0H1368V846L1309 715L911 127Z" />
<glyph unicode="N" glyph-name="N" horiz-adv-x="1519" d="M1341 1368V176L1356 0H1186L496 776L416 905V176L438 0H180V1157L152 1368H356L1028 578L1106 451V1157L1077 1368H1341Z" />
<glyph unicode="O" glyph-name="O" horiz-adv-x="1413" d="M719 1389Q1026 1389 1189 1200T1352 694Q1352 387 1163 180T692 -27Q399 -27 231 170T63 670Q63 975 251 1182T719 1389ZM346 903T346 682T446 317T708 172T969 316T1069 682T970 1047T709 1192T447 1048Z" />
<glyph unicode="P" glyph-name="P" horiz-adv-x="1138" d="M170 1368H594Q795 1368 936 1258T1077 942Q1077 756 919 620T524 483H465V176L487 0H199V1157L170 1368ZM465 688H557Q655 688 728 762T801 942Q801 1053 732 1111T557 1169H465V688Z" />
<glyph unicode="Q" glyph-name="Q" horiz-adv-x="1413" d="M608 -131V-20Q352 9 208 199T63 668Q63 973 251 1178T719 1384Q1026 1384 1189 1196T1352 692Q1352 426 1205 231T827 -12L1262 -178L1165 -387L608 -131ZM346 903T346 680T447 310T708 162T968 309T1069
680T969 1050T709 1198T448 1051Z" />
<glyph unicode="R" glyph-name="R" horiz-adv-x="1239" d="M1243 0H909L569 483H465V176L487 0H199V1157L170 1368H594Q795 1368 936 1258T1077 942Q1077 827 1006 714T819 543L1243 0ZM465 678H557Q655 678 728 756T801 942Q801 1055 730 1117T557 1180H465V678Z" />
<glyph unicode="S" glyph-name="S" horiz-adv-x="1003" d="M90 113L111 342Q129 324 163 295T297 219T494 172Q578 172 632 222T686 342Q686 405 626 458T480 557T310 654T165 793T104 989Q104 1159 219 1276T520 1393Q737 1393 901 1290L850 1085Q836 1097 807
1116T691 1166T514 1198Q453 1198 401 1154T348 1042Q348 979 408 926T556 828T729 732T875 592T936 387Q936 209 818 91T508 -27Q389 -27 285 8T135 78L90 113Z" />
<glyph unicode="T" glyph-name="T" horiz-adv-x="1138" d="M0 1161V1368H1139V1161H696V176L719 0H430V1161H0Z" />
<glyph unicode="U" glyph-name="U" horiz-adv-x="1466" d="M1083 526V1157L1055 1368H1319V549Q1319 289 1158 131T729 -27Q623 -27 535 1T392 70T298 168T239 274T208 377T195 454T193 496V1157L164 1368H459V512Q459 360 546 267T766 174Q901 174 992 274T1083 526Z" />
<glyph unicode="V" glyph-name="V" horiz-adv-x="1273" d="M1274 1368L727 -27L541 14L133 1114L0 1368H328L627 510L657 348L700 510L1018 1368H1274Z" />
<glyph unicode="W" glyph-name="W" horiz-adv-x="1970" d="M1970 1368L1423 -27L1237 14L997 651L727 -27L541 14L133 1114L0 1368H328L629 510L657 348L700 510L881 965L731 1368H1024L1325 510L1354 348L1397 510L1714 1368H1970Z" />
<glyph unicode="X" glyph-name="X" horiz-adv-x="1097" d="M0 0L418 684L137 1190L6 1368H332L541 983L571 911L598 983L819 1368H1090L692 717L1098 0H799L575 416L543 487L514 416L283 0H0Z" />
<glyph unicode="Y" glyph-name="Y" horiz-adv-x="1126" d="M707 612V176L729 0H440V592L127 1194L0 1368H326L567 901L594 821L621 901L860 1368H1126L707 612Z" />
<glyph unicode="Z" glyph-name="Z" horiz-adv-x="1179" d="M49 0L39 72L664 1053L748 1159H70L125 1368H1112L1122 1296L502 315L418 207H1145V0H49Z" />
<glyph unicode="[" glyph-name="bracketleft" horiz-adv-x="528" d="M442 1503V1325H266V39H442V-141H31V1503H442Z" />
<glyph unicode="\" glyph-name="backslash" horiz-adv-x="749" d="M537 -500L-6 1346H231L758 -500H537Z" />
<glyph unicode="]" glyph-name="bracketright" horiz-adv-x="528" d="M74 1325V1503H485V-141H74V39H250V1325H74Z" />
<glyph unicode="^" glyph-name="asciicircum" horiz-adv-x="1298" d="M1192 655H961L645 1231L328 655H102L559 1450H735L1192 655Z" />
<glyph unicode="_" glyph-name="underscore" horiz-adv-x="1009" d="M1053 -133L985 -297H0V-133H1053Z" />
<glyph unicode="`" glyph-name="grave" horiz-adv-x="712" d="M47 1483H352L588 1204L426 1147L47 1483Z" />
<glyph unicode="a" glyph-name="a" horiz-adv-x="1071" d="M227 729L123 909Q129 915 141 925T195 963T282 1011T400 1048T551 1065Q696 1065 798 998T901 782V252Q901 197 927 136T980 40L1006 6L748 -23Q697 34 678 104Q547 -27 369 -27Q240 -27 155 54T70 242Q70
408 225 519T647 639V678Q647 883 508 883Q463 883 417 868T338 830T280 784T241 744L227 729ZM453 162Q500 162 556 188T647 250V459Q332 432 332 274Q332 227 364 195T453 162Z" />
<glyph unicode="b" glyph-name="b" horiz-adv-x="1144" d="M133 1526L416 1556V989Q514 1065 641 1065Q817 1065 946 927T1075 541Q1075 308 923 141T535 -27Q410 -27 304 25T162 152V1319L133 1526ZM416 819V215Q477 158 567 158Q665 158 734 263T803 522Q803
674 735 771T567 868Q530 868 493 856T435 831L416 819Z" />
<glyph unicode="c" glyph-name="c" horiz-adv-x="1001" d="M956 928L840 743Q738 870 588 870Q463 870 399 769T334 518Q334 379 397 281T580 182Q660 182 743 223T871 305L915 346L952 133Q946 127 934 116T881 77T795 29T678 -9T530 -27Q385 -27 279 51T123
245T74 500Q74 738 209 901T582 1065Q695 1065 788 1030T919 962L956 928Z" />
<glyph unicode="d" glyph-name="d" horiz-adv-x="1150" d="M983 1571V254Q983 199 1009 138T1062 42L1087 8L829 -20Q784 23 760 100Q713 49 631 12T479 -25Q305 -25 188 114T70 498Q70 731 222 898T610 1065L729 1055V1333L700 1540L983 1571ZM545 166Q619 166
729 262V870Q657 882 578 883Q482 883 412 777T342 516Q342 354 400 260T545 166Z" />
<glyph unicode="e" glyph-name="e" horiz-adv-x="1021" d="M561 1065Q936 1065 950 528L901 479H334Q342 348 407 265T590 182Q670 182 756 218T888 291L934 328L971 119Q953 103 918 78T771 13T541 -27Q324 -27 199 127T74 492Q74 736 196 900T561 1065ZM537
891Q385 891 344 659H686Q680 751 646 821T537 891Z" />
<glyph unicode="f" glyph-name="f" horiz-adv-x="692" d="M51 844V1034H176V1157Q176 1366 271 1465T514 1565Q651 1565 784 1487L698 1280Q616 1346 535 1346Q431 1346 430 1194V1034H688L621 844H430V233L453 0H176V844H51Z" />
<glyph unicode="g" glyph-name="g" horiz-adv-x="1056" d="M498 248Q461 248 429 253T384 263L371 268Q328 225 328 188Q328 147 399 136T572 125T775 113T948 38T1020 -141Q1020 -311 863 -404T494 -498Q390 -498 305 -476T173 -421T97 -357T55 -301L45 -279L193
-143Q195 -149 201 -161T232 -203T291 -256T384 -297T516 -315Q622 -315 701 -284T780 -184Q780 -139 731 -118T609 -95T448 -89T287 -73T164 -16T115 106Q115 204 242 332Q170 379 122 465T74 645Q74 825 200 945T520 1065Q577 1065 639 1045T721 1008L758 1034H1057L1014
877H870Q940 791 940 662Q940 482 813 365T498 248ZM334 756T334 656T386 491T510 426T631 490T680 655Q680 757 631 822T510 887T386 822Z" />
<glyph unicode="h" glyph-name="h" horiz-adv-x="1208" d="M1077 0H801V598Q801 748 777 800T676 852Q606 852 543 824T450 767L420 739V176L442 0H166V1319L137 1526L420 1556V942Q555 1065 745 1065Q872 1065 963 997T1055 803V172L1077 0Z" />
<glyph unicode="i" glyph-name="i" horiz-adv-x="581" d="M416 1065V176L438 0H162V827L133 1034L416 1065ZM141 1337Q141 1396 183 1438T285 1481Q340 1481 381 1439T422 1337Q422 1280 381 1240T285 1200Q226 1200 184 1240T141 1337Z" />
<glyph unicode="j" glyph-name="j" horiz-adv-x="569" d="M418 1065V35Q418 -201 301 -349T6 -500L-82 -289Q164 -289 164 57V827L135 1034L418 1065ZM141 1337Q141 1396 183 1438T285 1481Q340 1481 381 1439T422 1337Q422 1280 381 1240T285 1200Q226 1200 184
1240T141 1337Z" />
<glyph unicode="k" glyph-name="k" horiz-adv-x="1112" d="M420 1556V567L700 924L750 1034H1092L676 565L1112 0H795L420 518V176L442 0H166V1319L137 1526L420 1556Z" />
<glyph unicode="l" glyph-name="l" horiz-adv-x="585" d="M420 1556V176L442 0H166V1319L137 1526L420 1556Z" />
<glyph unicode="m" glyph-name="m" horiz-adv-x="1847" d="M1710 0H1434V598Q1434 748 1409 800T1309 852Q1241 852 1178 824T1084 765L1055 735V172L1077 0H801V598Q801 748 777 800T676 852Q606 852 543 823T450 763L420 733V176L442 0H166V825L137 1032L420
1063V936Q561 1065 745 1065Q831 1065 908 1027T1024 922Q1032 934 1065 962T1187 1028T1378 1065Q1505 1065 1596 997T1688 803V172L1710 0Z" />
<glyph unicode="n" glyph-name="n" horiz-adv-x="1214" d="M1077 0H801V598Q801 748 777 800T676 852Q606 852 543 824T450 765L420 735V176L442 0H166V825L137 1032L420 1063V938Q559 1065 745 1065Q872 1065 963 997T1055 803V172L1077 0Z" />
<glyph unicode="o" glyph-name="o" horiz-adv-x="1153" d="M1083 541Q1083 301 937 137T543 -27Q324 -27 197 133T70 504Q70 744 215 904T612 1065Q825 1065 954 933T1083 541ZM340 678T340 520T403 259T575 156T747 259T811 520T748 780T576 883T404 781Z" />
<glyph unicode="p" glyph-name="p" horiz-adv-x="1155" d="M166 -492V827L137 1034L420 1065V950Q545 1065 670 1065Q842 1065 960 926T1079 541Q1079 308 927 141T539 -27Q502 -27 420 -18V-315L442 -492H166ZM604 854Q553 854 507 833T440 790L420 768V166Q492
158 571 158Q669 158 738 263T807 522Q807 682 750 768T604 854Z" />
<glyph unicode="q" glyph-name="q" horiz-adv-x="1130" d="M1001 -502H729V29Q627 -26 520 -27Q336 -27 203 108T70 500Q70 733 222 899T610 1065Q665 1065 758 1055T918 1034L983 1024V-293L1001 -502ZM729 207V868Q655 880 578 881Q480 881 411 776T342 518Q342
364 410 259T578 154Q666 154 729 207Z" />
<glyph unicode="r" glyph-name="r" horiz-adv-x="868" d="M868 989L791 764Q732 819 653 819Q569 819 495 731T420 528V176L442 0H166V823L137 1030L420 1061V874Q424 882 432 894T467 940T523 998T601 1044T698 1065Q794 1065 868 989Z" />
<glyph unicode="s" glyph-name="s" horiz-adv-x="874" d="M70 94L94 309Q112 293 144 270T262 206T420 166Q481 166 525 192T569 268Q569 311 518 348T395 415T248 484T123 585T72 733Q72 907 186 985T479 1063Q559 1063 633 1046T739 1012L772 995L725 791Q713
801 692 816T594 857T436 883Q383 883 344 855T305 786Q305 741 356 706T481 639T628 569T753 461T805 295Q805 141 701 57T418 -27Q352 -27 293 -15T195 16T126 52T83 82L70 94Z" />
<glyph unicode="t" glyph-name="t" horiz-adv-x="776" d="M451 1247L430 1034H735L670 844H428V299Q428 205 514 205Q567 205 639 235T750 301L776 78Q764 66 739 49T625 2T438 -27Q305 -27 241 51T176 305V844H51V1034H176V1217L451 1247Z" />
<glyph unicode="u" glyph-name="u" horiz-adv-x="1212" d="M1149 10L883 -27Q832 39 817 113Q803 97 774 74T653 12T465 -27Q338 -27 247 42T156 236V825L127 1032L410 1063V440Q410 297 432 241T528 184T667 216T762 280L791 311V825L762 1032L1044 1063V256Q1044
201 1071 140T1123 44L1149 10Z" />
<glyph unicode="v" glyph-name="v" horiz-adv-x="1050" d="M1051 1063L604 -27L383 12L100 836L0 1026L287 1063L496 403L518 266L551 403L778 1024L1051 1063Z" />
<glyph unicode="w" glyph-name="w" horiz-adv-x="1726" d="M1726 1063L1280 -27L1071 12L885 555L858 657L836 553L592 -27L383 12L100 836L0 1026L281 1063L489 401L512 266L549 401L750 928L709 1026L969 1063L1178 401L1200 266L1235 401L1460 1024L1726 1063Z" />
<glyph unicode="x" glyph-name="x" horiz-adv-x="1052" d="M0 0L383 516L164 852L14 1026L309 1063L502 745L526 690L555 745L752 1026L1053 1063L649 537L1004 0H713L530 303L502 356L475 301L270 0H0Z" />
<glyph unicode="y" glyph-name="y" horiz-adv-x="1050" d="M1051 1063L545 -180Q416 -497 139 -498Q65 -498 -8 -469L-43 -223Q41 -258 109 -258Q201 -258 267 -199T385 6L100 831L0 1022L283 1059L496 403L518 266L553 403L782 1024L1051 1063Z" />
<glyph unicode="z" glyph-name="z" horiz-adv-x="931" d="M29 0L20 59L473 762L539 844H33L86 1034H883L891 975L438 270L375 190H901V0H29Z" />
<glyph unicode="{" glyph-name="braceleft" horiz-adv-x="636" d="M25 539V686Q82 686 117 719T158 778T164 829V1221Q164 1381 278 1463T575 1546V1378Q409 1378 410 1214V831Q410 765 381 711T324 635L295 612Q307 604 326 588T378 515T410 393V-164Q410 -328
575 -328V-496Q393 -496 279 -413T164 -170V395Q164 420 158 446T117 506T25 539Z" />
<glyph unicode="|" glyph-name="bar" horiz-adv-x="485" d="M356 1548V-520H129V1548H356Z" />
<glyph unicode="}" glyph-name="braceright" horiz-adv-x="636" d="M612 686V539Q555 539 520 506T479 447T473 395V-170Q473 -330 359 -413T61 -496V-328Q227 -328 227 -164V393Q227 459 256 513T313 590L342 612Q330 620 311 636T259 709T227 831V1214Q227 1378
61 1378V1546Q243 1546 358 1463T473 1221V829Q473 804 479 778T520 719T612 686Z" />
<glyph unicode="~" glyph-name="asciitilde" horiz-adv-x="1204" d="M1047 713L1139 530Q1080 469 993 431T813 393Q725 393 585 450T367 508Q238 508 154 414L70 594Q222 725 385 725Q487 725 623 668T821 610Q930 611 1047 713Z" />
<glyph unicode="&#xa1;" glyph-name="exclamdown" horiz-adv-x="561" d="M127 -221L184 903L373 934L416 10L444 -180L127 -221ZM121 1223Q121 1286 164 1330T274 1374T385 1330T428 1223Q428 1162 384 1116T275 1069T165 1115T121 1223Z" />
<glyph unicode="&#xa2;" glyph-name="cent" horiz-adv-x="1007" d="M657 1217V1061Q749 1051 825 1016T932 950L963 920L834 756Q762 842 657 864V197Q723 211 788 250T888 321L922 352L958 133Q946 121 923 102T820 42T657 -14V-193H532V-27Q317 -25 199 130T80
500Q80 721 199 880T532 1061V1217H657ZM340 518Q340 395 389 305T532 193V862Q438 837 389 742T340 518Z" />
<glyph unicode="&#xa3;" glyph-name="sterling" horiz-adv-x="1144" d="M1087 -209H43Q61 -168 90 -99T166 155T213 487V539H88V719H213V1116Q213 1220 260 1306T380 1442T530 1517T678 1544Q756 1544 825 1531T940 1499T1019 1460T1067 1426L1081 1413L1008 1221Q961
1268 873 1311T700 1354Q602 1354 538 1299T473 1133V719H891L825 539H473V469Q473 371 449 250T399 56L375 -16H1139L1087 -209Z" />
<glyph unicode="&#xa5;" glyph-name="yen" horiz-adv-x="1126" d="M180 731H367L127 1192L131 1190L0 1368H326L567 901L594 821L625 901L866 1368H1126L770 731H1001L965 559H707V397H981L944 225H707V176L729 0H440V225H180V397H440V559H180V731Z" />
<glyph unicode="&#xa7;" glyph-name="section" horiz-adv-x="880" d="M588 1348L748 246Q787 -14 786 -23Q786 -181 666 -274T373 -367Q307 -367 251 -351T161 -312T103 -267T69 -227L59 -211L72 -12Q185 -147 313 -168Q114 1110 115 1200Q115 1358 235 1452T526
1546Q592 1546 648 1530T738 1491T796 1446T830 1407L840 1391L827 1192Q713 1328 588 1348ZM315 1200L510 -137Q582 -90 582 -21T385 1319Q315 1278 315 1200Z" />
<glyph unicode="&#xa8;" glyph-name="dieresis" horiz-adv-x="806" d="M334 1356T334 1305T300 1217T219 1180T138 1216T104 1304T138 1394T219 1432T300 1394ZM711 1356T711 1305T677 1217T596 1180T515 1216T481 1305Q481 1358 515 1395T596 1432T677 1394Z" />
<glyph unicode="&#xa9;" glyph-name="copyright" horiz-adv-x="1638" d="M1106 969L1030 821Q934 909 834 909Q760 909 712 846T664 686Q664 592 714 524T844 455Q893 455 952 479T1046 529L1079 555L1100 393Q1088 381 1064 364T961 316T793 285Q635 283 545
395T455 664Q455 838 555 955T838 1073Q904 1073 970 1047T1071 994L1106 969ZM1536 696Q1536 364 1336 169T786 -27Q491 -27 297 170T102 659Q102 987 309 1177T870 1368Q1161 1368 1348 1178T1536 696ZM1348 670Q1348 914 1203 1063T827 1212Q602 1212 449 1069T295
684Q295 430 440 282T831 133Q1046 133 1197 281T1348 670Z" />
<glyph unicode="&#xaa;" glyph-name="ordfeminine" horiz-adv-x="849" d="M180 1120L84 1247Q88 1253 97 1262T137 1294T205 1335T300 1368T422 1382Q539 1382 616 1332T694 1174V782Q694 745 714 700T756 630L776 604L547 580Q502 619 496 678Q416 578 305 578Q186
578 121 641T55 788Q55 901 164 977T469 1063V1106Q469 1231 383 1231Q330 1231 279 1204T204 1148L180 1120ZM469 797V934Q428 928 407 923T348 906T293 870T274 811Q274 780 296 754T352 727Q399 727 469 797Z" />
<glyph unicode="&#xab;" glyph-name="guillemotleft" horiz-adv-x="1314" d="M694 821L381 504L694 190L602 6L51 506L602 1006L694 821ZM1243 821L930 504L1243 190L1151 6L600 506L1151 1006L1243 821Z" />
<glyph unicode="&#xae;" glyph-name="registered" horiz-adv-x="1638" d="M1196 319H948L766 588V426Q766 414 780 319H559V930L545 1061H799Q920 1061 1005 998T1090 819Q1090 760 1050 700T946 610L1196 319ZM766 686H774Q827 686 866 721T905 819Q905 934 774
934H766V686ZM1536 696Q1536 364 1336 169T786 -27Q491 -27 297 170T102 659Q102 987 309 1177T870 1368Q1161 1368 1348 1178T1536 696ZM1348 670Q1348 914 1203 1063T827 1212Q602 1212 449 1069T295 684Q295 430 440 282T831 133Q1046 133 1197 281T1348 670Z"
/>
<glyph unicode="&#xaf;" glyph-name="overscore" horiz-adv-x="706" d="M78 1362H639L586 1161H78V1362Z" />
<glyph unicode="&#xb0;" glyph-name="degree" horiz-adv-x="837" d="M748 1319T748 1180T644 939T399 838Q262 838 160 939T57 1179T159 1420T399 1522Q538 1522 643 1421ZM563 1182Q563 1245 514 1292T401 1339Q335 1339 289 1292T242 1182T289 1066T401 1014Q473
1014 518 1065T563 1182Z" />
<glyph unicode="&#xb1;" glyph-name="plusminus" horiz-adv-x="985" d="M381 328V561H88V762H381V1038L606 977V762H915L864 561H606V328H381ZM137 213H858L801 0H137V213Z" />
<glyph unicode="&#xb2;" glyph-name="uni00B2" horiz-adv-x="727" d="M647 586H102L86 682L125 721Q164 760 188 786T255 862T321 950T366 1035T387 1116Q387 1204 313 1204Q245 1204 168 1143L84 1290Q193 1388 350 1389Q463 1389 542 1327T621 1145Q621 993
377 756H664L647 586Z" />
<glyph unicode="&#xb3;" glyph-name="uni00B3" horiz-adv-x="731" d="M621 1190Q621 1145 585 1101T498 1028Q561 1018 606 960T651 834Q651 742 584 680T429 597T240 575Q174 575 117 586L72 729Q142 721 180 721Q426 721 426 858Q426 940 231 940L246 1034Q293
1054 317 1067T366 1110T391 1174Q391 1244 311 1243Q274 1243 236 1229T176 1200L156 1186L98 1311Q196 1387 350 1386Q461 1386 541 1334T621 1190Z" />
<glyph unicode="&#xb4;" glyph-name="acute" horiz-adv-x="712" d="M373 1483H678L299 1147L137 1204L373 1483Z" />
<glyph unicode="&#xb6;" glyph-name="paragraph" horiz-adv-x="1335" d="M88 758Q88 1016 275 1192T731 1368H885V-500H690V150Q436 166 262 340T88 758ZM1212 1368V-500H1018V1368H1212Z" />
<glyph unicode="&#xb7;" glyph-name="middot" horiz-adv-x="548" d="M412 502Q412 439 369 395T258 350T147 394T104 502Q104 563 148 609T258 655T368 609T412 502Z" />
<glyph unicode="&#xb8;" glyph-name="cedilla" horiz-adv-x="843" d="M256 -100L281 6H406Q431 -25 495 -65T603 -149T647 -248Q647 -363 567 -422T371 -481Q246 -481 131 -401L193 -260Q256 -323 367 -324Q443 -324 442 -268Q442 -235 357 -181T256 -100Z" />
<glyph unicode="&#xb9;" glyph-name="uni00B9" horiz-adv-x="638" d="M86 586V731H240V1149L127 1114L72 1253L463 1378V731H618L598 586H86Z" />
<glyph unicode="&#xba;" glyph-name="ordmasculine" horiz-adv-x="925" d="M68 967Q68 1149 179 1262T479 1376Q641 1376 740 1281T840 995Q840 819 729 697T428 575Q330 575 256 615T149 705T95 820T71 916T68 967ZM307 981Q307 870 346 799T452 727T560 798T600
981Q600 1090 560 1157T453 1225T346 1158T307 981Z" />
<glyph unicode="&#xbb;" glyph-name="guillemotright" horiz-adv-x="1314" d="M934 504L621 821L713 1006L1264 506L713 6L621 190L934 504ZM385 504L72 821L164 1006L715 506L164 6L72 190L385 504Z" />
<glyph unicode="&#xbc;" glyph-name="onequarter" horiz-adv-x="1531" d="M1264 1145L598 182H389L1096 1208L1264 1145ZM86 586V731H240V1149L127 1114L72 1253L463 1378V731H618L598 586H86ZM801 162L1180 707L1362 653V223H1505L1466 61H1362V8L1378 -121H1143V61H821L801
162ZM1145 223L1141 401L1147 477L1110 401L1012 256L971 219L1014 223H1145Z" />
<glyph unicode="&#xbd;" glyph-name="onehalf" horiz-adv-x="1613" d="M1534 -121H989L973 -25L1012 14Q1051 53 1075 79T1142 155T1208 244T1253 329T1274 410Q1274 498 1200 498Q1132 498 1055 436L971 584Q1080 682 1237 682Q1350 682 1428 620T1507 438Q1507
286 1264 49H1550L1534 -121ZM1264 1145L598 182H389L1096 1208L1264 1145ZM86 586V731H240V1149L127 1114L72 1253L463 1378V731H618L598 586H86Z" />
<glyph unicode="&#xbe;" glyph-name="threequarters" horiz-adv-x="1499" d="M768 162L1147 707L1329 653V223H1473L1434 61H1329V8L1346 -121H1110V61H788L768 162ZM1112 223L1108 401L1114 477L1077 401L979 256L938 219L981 223H1112ZM1231 1145L565 182H356L1063
1208L1231 1145ZM621 1190Q621 1145 585 1101T498 1028Q561 1018 606 960T651 834Q651 742 584 680T429 597T240 575Q174 575 117 586L72 729Q142 721 180 721Q426 721 426 858Q426 940 231 940L246 1034Q293 1054 317 1067T366 1110T391 1174Q391 1244 311 1243Q274
1243 236 1229T176 1200L156 1186L98 1311Q196 1387 350 1386Q461 1386 541 1334T621 1190Z" />
<glyph unicode="&#xbf;" glyph-name="questiondown" horiz-adv-x="899" d="M479 928L688 961Q715 875 715 811Q715 741 676 676T581 557T468 451T373 332T334 197Q334 111 394 65T541 18Q578 18 624 34T698 69L727 86L805 -135Q680 -201 516 -201Q401 -201 306
-166T144 -43T76 174Q76 272 119 356T223 497T346 606T451 715T494 834Q493 887 479 928ZM412 1223Q412 1286 455 1330T565 1374T676 1330T719 1223Q719 1162 675 1116T566 1069T456 1115T412 1223Z" />
<glyph unicode="&#xc0;" glyph-name="Agrave" horiz-adv-x="1212" d="M-20 0L506 1352L680 1395L1098 254L1212 0H915L799 317H346L225 0H-20ZM559 924L412 528H739L598 926L580 1006L559 924ZM238 1792H543L778 1513L616 1456L238 1792Z" />
<glyph unicode="&#xc1;" glyph-name="Aacute" horiz-adv-x="1212" d="M-20 0L506 1352L680 1395L1098 254L1212 0H915L799 317H346L225 0H-20ZM559 924L412 528H739L598 926L580 1006L559 924ZM670 1772H975L596 1436L434 1493L670 1772Z" />
<glyph unicode="&#xc2;" glyph-name="Acircumflex" horiz-adv-x="1212" d="M-20 0L506 1352L680 1395L1098 254L1212 0H915L799 317H346L225 0H-20ZM559 924L412 528H739L598 926L580 1006L559 924ZM494 1792H702L936 1520L776 1458L596 1649L420 1458L260 1520L494
1792Z" />
<glyph unicode="&#xc3;" glyph-name="Atilde" horiz-adv-x="1212" d="M-20 0L506 1352L680 1395L1098 254L1212 0H915L799 317H346L225 0H-20ZM559 924L412 528H739L598 926L580 1006L559 924ZM852 1702L963 1622Q961 1616 957 1607T936 1572T896 1527T829 1492T735
1477Q663 1477 586 1511T487 1546Q446 1546 413 1529T366 1494L352 1477L246 1552Q248 1558 253 1568T277 1604T320 1649T387 1685T479 1702Q538 1702 615 1666T719 1630Q817 1630 852 1702Z" />
<glyph unicode="&#xc4;" glyph-name="Adieresis" horiz-adv-x="1212" d="M-20 0L506 1352L680 1395L1098 254L1212 0H915L799 317H346L225 0H-20ZM559 924L412 528H739L598 926L580 1006L559 924ZM524 1665T524 1614T491 1526T410 1489T329 1526T295 1614T328
1703T409 1741T490 1703ZM901 1665T901 1614T868 1526T787 1489T706 1526T672 1614Q672 1667 705 1704T786 1741T867 1703Z" />
<glyph unicode="&#xc5;" glyph-name="Aring" horiz-adv-x="1212" d="M-20 0L506 1352L680 1395L1098 254L1212 0H915L799 317H346L225 0H-20ZM559 924L412 528H739L598 926L580 1006L559 924ZM784 1694T784 1620T728 1493T598 1440T470 1493T416 1620T470 1747T598
1800T728 1747ZM688 1622Q688 1657 662 1683T600 1710Q563 1710 538 1684T512 1622T537 1557T600 1526Q641 1526 664 1555T688 1622Z" />
<glyph unicode="&#xc6;" glyph-name="AE" horiz-adv-x="1589" d="M743 0V336H391L231 0H-20L645 1368H1499V1165H1010V803H1442L1391 600H1010V203H1526L1475 0H743ZM481 528H743V1110L481 528Z" />
<glyph unicode="&#xc7;" glyph-name="Ccedilla" horiz-adv-x="1267" d="M1219 1223L1110 1026Q948 1190 752 1190Q580 1190 463 1038T346 676Q346 447 471 315T772 182Q878 182 988 232T1186 375L1235 164Q1139 76 1003 25T733 -27Q461 -27 266 153T70 655T264
1185T750 1393Q1029 1393 1219 1223ZM598 -100L623 6H748Q773 -25 837 -65T945 -149T989 -248Q989 -363 909 -422T713 -481Q588 -481 473 -401L535 -260Q598 -323 709 -324Q785 -324 784 -268Q784 -235 699 -181T598 -100Z" />
<glyph unicode="&#xc8;" glyph-name="Egrave" horiz-adv-x="1044" d="M199 0V1157L170 1368H954V1165H465V803H897L846 600H465V203H981L930 0H199ZM211 1792H516L752 1513L590 1456L211 1792Z" />
<glyph unicode="&#xc9;" glyph-name="Eacute" horiz-adv-x="1044" d="M199 0V1157L170 1368H954V1165H465V803H897L846 600H465V203H981L930 0H199ZM643 1772H948L569 1436L408 1493L643 1772Z" />
<glyph unicode="&#xca;" glyph-name="Ecircumflex" horiz-adv-x="1044" d="M199 0V1157L170 1368H954V1165H465V803H897L846 600H465V203H981L930 0H199ZM467 1792H676L909 1520L750 1458L569 1649L393 1458L233 1520L467 1792Z" />
<glyph unicode="&#xcb;" glyph-name="Edieresis" horiz-adv-x="1044" d="M199 0V1157L170 1368H954V1165H465V803H897L846 600H465V203H981L930 0H199ZM498 1665T498 1614T464 1526T383 1489T302 1526T268 1614T302 1703T383 1741T464 1703ZM874 1665T874 1614T841
1526T760 1489T679 1526T645 1614Q645 1667 679 1704T760 1741T840 1703Z" />
<glyph unicode="&#xcc;" glyph-name="Igrave" horiz-adv-x="673" d="M467 1368V176L489 0H201V1157L172 1368H467ZM-23 1792H283L518 1513L356 1456L-23 1792Z" />
<glyph unicode="&#xcd;" glyph-name="Iacute" horiz-adv-x="673" d="M467 1368V176L489 0H201V1157L172 1368H467ZM410 1772H715L336 1436L174 1493L410 1772Z" />
<glyph unicode="&#xce;" glyph-name="Icircumflex" horiz-adv-x="673" d="M467 1368V176L489 0H201V1157L172 1368H467ZM233 1792H442L676 1520L516 1458L336 1649L160 1458L0 1520L233 1792Z" />
<glyph unicode="&#xcf;" glyph-name="Idieresis" horiz-adv-x="673" d="M467 1368V176L489 0H201V1157L172 1368H467ZM264 1665T264 1614T231 1526T150 1489T69 1526T35 1614T68 1703T149 1741T230 1703ZM641 1665T641 1614T607 1526T526 1489T446 1526T412 1614Q412
1667 445 1704T526 1741T607 1703Z" />
<glyph unicode="&#xd0;" glyph-name="Eth" horiz-adv-x="1398" d="M49 803H199V1157L170 1368H723Q842 1368 947 1328T1139 1208T1276 995T1327 692Q1327 391 1144 196T662 0H199V590H49V803ZM465 1178V803H727L670 590H465V199H686Q842 199 944 336T1047 680Q1047
891 945 1034T686 1178H465Z" />
<glyph unicode="&#xd1;" glyph-name="Ntilde" horiz-adv-x="1519" d="M1341 1368V176L1356 0H1186L496 776L416 905V176L438 0H180V1157L152 1368H356L1028 578L1106 451V1157L1077 1368H1341ZM1004 1702L1114 1622Q1112 1616 1108 1607T1088 1572T1048 1527T981
1492T887 1477Q815 1477 737 1511T639 1546Q598 1546 564 1529T517 1494L504 1477L397 1552Q399 1558 404 1568T429 1604T472 1649T539 1685T631 1702Q690 1702 767 1666T870 1630Q969 1630 1004 1702Z" />
<glyph unicode="&#xd2;" glyph-name="Ograve" horiz-adv-x="1413" d="M719 1389Q1026 1389 1189 1200T1352 694Q1352 387 1163 180T692 -27Q399 -27 231 170T63 670Q63 975 251 1182T719 1389ZM346 903T346 682T446 317T708 172T969 316T1069 682T970 1047T709
1192T447 1048ZM344 1792H649L885 1513L723 1456L344 1792Z" />
<glyph unicode="&#xd3;" glyph-name="Oacute" horiz-adv-x="1413" d="M719 1389Q1026 1389 1189 1200T1352 694Q1352 387 1163 180T692 -27Q399 -27 231 170T63 670Q63 975 251 1182T719 1389ZM346 903T346 682T446 317T708 172T969 316T1069 682T970 1047T709
1192T447 1048ZM776 1772H1081L702 1436L541 1493L776 1772Z" />
<glyph unicode="&#xd4;" glyph-name="Ocircumflex" horiz-adv-x="1413" d="M719 1389Q1026 1389 1189 1200T1352 694Q1352 387 1163 180T692 -27Q399 -27 231 170T63 670Q63 975 251 1182T719 1389ZM346 903T346 682T446 317T708 172T969 316T1069 682T970 1047T709
1192T447 1048ZM600 1792H809L1042 1520L883 1458L702 1649L526 1458L367 1520L600 1792Z" />
<glyph unicode="&#xd5;" glyph-name="Otilde" horiz-adv-x="1413" d="M719 1389Q1026 1389 1189 1200T1352 694Q1352 387 1163 180T692 -27Q399 -27 231 170T63 670Q63 975 251 1182T719 1389ZM346 903T346 682T446 317T708 172T969 316T1069 682T970 1047T709
1192T447 1048ZM958 1702L1069 1622Q1067 1616 1063 1607T1043 1572T1003 1527T936 1492T842 1477Q770 1477 692 1511T594 1546Q553 1546 519 1529T472 1494L459 1477L352 1552Q354 1558 359 1568T384 1604T427 1649T494 1685T586 1702Q645 1702 722 1666T825 1630Q923
1630 958 1702Z" />
<glyph unicode="&#xd6;" glyph-name="Odieresis" horiz-adv-x="1413" d="M719 1389Q1026 1389 1189 1200T1352 694Q1352 387 1163 180T692 -27Q399 -27 231 170T63 670Q63 975 251 1182T719 1389ZM346 903T346 682T446 317T708 172T969 316T1069 682T970 1047T709
1192T447 1048ZM631 1665T631 1614T597 1526T516 1489T435 1526T401 1614T435 1703T516 1741T597 1703ZM1008 1665T1008 1614T974 1526T893 1489T812 1526T778 1614Q778 1667 812 1704T893 1741T974 1703Z" />
<glyph unicode="&#xd7;" glyph-name="multiply" horiz-adv-x="899" d="M690 127L449 367L213 131L68 279L303 516L49 766L233 870L442 657L698 915L807 723L594 512L834 270L690 127Z" />
<glyph unicode="&#xd8;" glyph-name="Oslash" horiz-adv-x="1413" d="M719 1389Q744 1389 793 1384L831 1550H987L942 1356Q1143 1293 1247 1119T1352 694Q1352 387 1163 180T692 -27Q665 -27 616 -23L578 -186H428L473 8Q278 74 171 252T63 670Q63 975 251 1182T719
1389ZM1069 682Q1069 832 1021 950T889 1133L664 176Q693 172 709 172Q871 172 970 316T1069 682ZM346 682Q346 532 393 415T524 233L748 1188Q719 1192 709 1192Q547 1192 447 1048T346 682Z" />
<glyph unicode="&#xd9;" glyph-name="Ugrave" horiz-adv-x="1466" d="M1083 526V1157L1055 1368H1319V549Q1319 289 1158 131T729 -27Q623 -27 535 1T392 70T298 168T239 274T208 377T195 454T193 496V1157L164 1368H459V512Q459 360 546 267T766 174Q901 174
992 274T1083 526ZM385 1792H690L926 1513L764 1456L385 1792Z" />
<glyph unicode="&#xda;" glyph-name="Uacute" horiz-adv-x="1466" d="M1083 526V1157L1055 1368H1319V549Q1319 289 1158 131T729 -27Q623 -27 535 1T392 70T298 168T239 274T208 377T195 454T193 496V1157L164 1368H459V512Q459 360 546 267T766 174Q901 174
992 274T1083 526ZM817 1772H1122L743 1436L582 1493L817 1772Z" />
<glyph unicode="&#xdb;" glyph-name="Ucircumflex" horiz-adv-x="1466" d="M1083 526V1157L1055 1368H1319V549Q1319 289 1158 131T729 -27Q623 -27 535 1T392 70T298 168T239 274T208 377T195 454T193 496V1157L164 1368H459V512Q459 360 546 267T766 174Q901
174 992 274T1083 526ZM641 1792H850L1083 1520L924 1458L743 1649L567 1458L408 1520L641 1792Z" />
<glyph unicode="&#xdc;" glyph-name="Udieresis" horiz-adv-x="1466" d="M1083 526V1157L1055 1368H1319V549Q1319 289 1158 131T729 -27Q623 -27 535 1T392 70T298 168T239 274T208 377T195 454T193 496V1157L164 1368H459V512Q459 360 546 267T766 174Q901 174
992 274T1083 526ZM672 1665T672 1614T638 1526T557 1489T476 1526T442 1614T476 1703T557 1741T638 1703ZM1049 1665T1049 1614T1015 1526T934 1489T853 1526T819 1614Q819 1667 853 1704T934 1741T1015 1703Z" />
<glyph unicode="&#xdd;" glyph-name="Yacute" horiz-adv-x="1126" d="M707 612V176L729 0H440V592L127 1194L0 1368H326L567 901L594 821L621 901L860 1368H1126L707 612ZM662 1772H967L588 1436L426 1493L662 1772Z" />
<glyph unicode="&#xde;" glyph-name="Thorn" horiz-adv-x="1138" d="M170 1528L461 1548V1243H594Q795 1243 936 1133T1077 817Q1077 631 919 495T524 358H465V176L487 0H199V1317L170 1528ZM465 545H557Q653 545 727 627T801 817Q801 930 730 996T557 1063H465V545Z" />
<glyph unicode="&#xdf;" glyph-name="germandbls" horiz-adv-x="1212" d="M539 49L565 260Q702 164 793 164Q932 164 932 279Q932 326 876 382T753 486T630 606T573 750Q573 820 610 882T692 984T774 1087T811 1223Q811 1272 773 1313T672 1354Q566 1354 498 1294T430
1133V233L453 0H176V846H51V1026H176V1116Q176 1220 225 1306T350 1443T507 1518T662 1544Q820 1544 939 1470T1059 1237Q1059 1167 1024 1102T946 993T869 901T834 811Q834 752 890 687T1012 571T1135 447T1192 295Q1192 164 1083 69T791 -27Q725 -27 663 -8T569
31L539 49Z" />
<glyph unicode="&#xe0;" glyph-name="agrave" horiz-adv-x="1071" d="M227 729L123 909Q129 915 141 925T195 963T282 1011T400 1048T551 1065Q696 1065 798 998T901 782V252Q901 197 927 136T980 40L1006 6L748 -23Q697 34 678 104Q547 -27 369 -27Q240 -27 155
54T70 242Q70 408 225 519T647 639V678Q647 883 508 883Q463 883 417 868T338 830T280 784T241 744L227 729ZM453 162Q500 162 556 188T647 250V459Q332 432 332 274Q332 227 364 195T453 162ZM168 1483H473L709 1204L547 1147L168 1483Z" />
<glyph unicode="&#xe1;" glyph-name="aacute" horiz-adv-x="1071" d="M227 729L123 909Q129 915 141 925T195 963T282 1011T400 1048T551 1065Q696 1065 798 998T901 782V252Q901 197 927 136T980 40L1006 6L748 -23Q697 34 678 104Q547 -27 369 -27Q240 -27 155
54T70 242Q70 408 225 519T647 639V678Q647 883 508 883Q463 883 417 868T338 830T280 784T241 744L227 729ZM453 162Q500 162 556 188T647 250V459Q332 432 332 274Q332 227 364 195T453 162ZM582 1462H887L508 1126L346 1184L582 1462Z" />
<glyph unicode="&#xe2;" glyph-name="acircumflex" horiz-adv-x="1071" d="M227 729L123 909Q129 915 141 925T195 963T282 1011T400 1048T551 1065Q696 1065 798 998T901 782V252Q901 197 927 136T980 40L1006 6L748 -23Q697 34 678 104Q547 -27 369 -27Q240
-27 155 54T70 242Q70 408 225 519T647 639V678Q647 883 508 883Q463 883 417 868T338 830T280 784T241 744L227 729ZM453 162Q500 162 556 188T647 250V459Q332 432 332 274Q332 227 364 195T453 162ZM424 1483H633L866 1210L707 1149L526 1339L350 1149L190 1210L424
1483Z" />
<glyph unicode="&#xe3;" glyph-name="atilde" horiz-adv-x="1071" d="M227 729L123 909Q129 915 141 925T195 963T282 1011T400 1048T551 1065Q696 1065 798 998T901 782V252Q901 197 927 136T980 40L1006 6L748 -23Q697 34 678 104Q547 -27 369 -27Q240 -27 155
54T70 242Q70 408 225 519T647 639V678Q647 883 508 883Q463 883 417 868T338 830T280 784T241 744L227 729ZM453 162Q500 162 556 188T647 250V459Q332 432 332 274Q332 227 364 195T453 162ZM764 1393L874 1313Q872 1307 868 1298T848 1263T808 1218T741 1183T647
1167Q575 1167 498 1202T399 1237Q358 1237 325 1220T278 1185L264 1167L158 1243Q160 1249 165 1259T189 1295T232 1340T299 1376T391 1393Q450 1393 527 1357T631 1321Q729 1321 764 1393Z" />
<glyph unicode="&#xe4;" glyph-name="adieresis" horiz-adv-x="1071" d="M227 729L123 909Q129 915 141 925T195 963T282 1011T400 1048T551 1065Q696 1065 798 998T901 782V252Q901 197 927 136T980 40L1006 6L748 -23Q697 34 678 104Q547 -27 369 -27Q240 -27
155 54T70 242Q70 408 225 519T647 639V678Q647 883 508 883Q463 883 417 868T338 830T280 784T241 744L227 729ZM453 162Q500 162 556 188T647 250V459Q332 432 332 274Q332 227 364 195T453 162ZM436 1356T436 1305T403 1217T322 1180T241 1216T207 1304T240
1394T321 1432T402 1394ZM813 1356T813 1305T779 1217T698 1180T618 1216T584 1305Q584 1358 617 1395T698 1432T779 1394Z" />
<glyph unicode="&#xe5;" glyph-name="aring" horiz-adv-x="1071" d="M227 729L123 909Q129 915 141 925T195 963T282 1011T400 1048T551 1065Q696 1065 798 998T901 782V252Q901 197 927 136T980 40L1006 6L748 -23Q697 34 678 104Q547 -27 369 -27Q240 -27 155
54T70 242Q70 408 225 519T647 639V678Q647 883 508 883Q463 883 417 868T338 830T280 784T241 744L227 729ZM453 162Q500 162 556 188T647 250V459Q332 432 332 274Q332 227 364 195T453 162ZM696 1384T696 1311T640 1184T510 1130T382 1183T328 1310T382 1437T510
1491T640 1438ZM600 1313Q600 1348 574 1374T512 1401Q475 1401 450 1375T424 1313T449 1248T512 1217Q553 1217 576 1246T600 1313Z" />
<glyph unicode="&#xe6;" glyph-name="ae" horiz-adv-x="1568" d="M233 729L115 903Q121 909 133 920T186 959T274 1008T395 1047T549 1065Q627 1065 704 1033T825 952Q950 1065 1118 1065Q1493 1065 1507 528L1458 479L891 473Q899 342 959 265T1137 188Q1221
188 1307 225T1437 299L1481 336L1518 121Q1502 105 1468 80T1322 14T1087 -27Q872 -27 748 129Q742 135 733 147Q528 -27 387 -27Q231 -27 151 53T70 248Q70 404 224 510T651 625V678Q651 883 506 883Q461 883 416 868T339 830T283 784T246 744L233 729ZM451 162Q498
162 572 195T682 264Q651 385 651 459Q327 432 328 283Q328 234 360 198T451 162ZM1094 891Q944 891 901 643L1243 649Q1237 743 1203 817T1094 891Z" />
<glyph unicode="&#xe7;" glyph-name="ccedilla" horiz-adv-x="1001" d="M956 928L840 743Q738 870 588 870Q463 870 399 769T334 518Q334 379 397 281T580 182Q660 182 743 223T871 305L915 346L952 133Q946 127 934 116T881 77T795 29T678 -9T530 -27Q385 -27
279 51T123 245T74 500Q74 738 209 901T582 1065Q695 1065 788 1030T919 962L956 928ZM432 -100L457 6H582Q607 -25 671 -65T779 -149T823 -248Q823 -363 744 -422T547 -481Q422 -481 307 -401L369 -260Q432 -323 543 -324Q619 -324 618 -268Q618 -235 533 -181T432
-100Z" />
<glyph unicode="&#xe8;" glyph-name="egrave" horiz-adv-x="1021" d="M561 1065Q936 1065 950 528L901 479H334Q342 348 407 265T590 182Q670 182 756 218T888 291L934 328L971 119Q953 103 918 78T771 13T541 -27Q324 -27 199 127T74 492Q74 736 196 900T561
1065ZM537 891Q385 891 344 659H686Q680 751 646 821T537 891ZM184 1483H489L725 1204L563 1147L184 1483Z" />
<glyph unicode="&#xe9;" glyph-name="eacute" horiz-adv-x="1021" d="M561 1065Q936 1065 950 528L901 479H334Q342 348 407 265T590 182Q670 182 756 218T888 291L934 328L971 119Q953 103 918 78T771 13T541 -27Q324 -27 199 127T74 492Q74 736 196 900T561
1065ZM537 891Q385 891 344 659H686Q680 751 646 821T537 891ZM616 1462H922L543 1126L381 1184L616 1462Z" />
<glyph unicode="&#xea;" glyph-name="ecircumflex" horiz-adv-x="1021" d="M561 1065Q936 1065 950 528L901 479H334Q342 348 407 265T590 182Q670 182 756 218T888 291L934 328L971 119Q953 103 918 78T771 13T541 -27Q324 -27 199 127T74 492Q74 736 196 900T561
1065ZM537 891Q385 891 344 659H686Q680 751 646 821T537 891ZM440 1483H649L883 1210L723 1149L543 1339L367 1149L207 1210L440 1483Z" />
<glyph unicode="&#xeb;" glyph-name="edieresis" horiz-adv-x="1021" d="M561 1065Q936 1065 950 528L901 479H334Q342 348 407 265T590 182Q670 182 756 218T888 291L934 328L971 119Q953 103 918 78T771 13T541 -27Q324 -27 199 127T74 492Q74 736 196 900T561
1065ZM537 891Q385 891 344 659H686Q680 751 646 821T537 891ZM471 1356T471 1305T437 1217T356 1180T276 1216T242 1304T275 1394T356 1432T437 1394ZM848 1356T848 1305T814 1217T733 1180T652 1216T618 1305Q618 1358 652 1395T733 1432T814 1394Z" />
<glyph unicode="&#xec;" glyph-name="igrave" horiz-adv-x="581" d="M418 1065V176L440 0H164V827L135 1034L418 1065ZM-70 1483H236L471 1204L309 1147L-70 1483Z" />
<glyph unicode="&#xed;" glyph-name="iacute" horiz-adv-x="581" d="M418 1065V176L440 0H164V827L135 1034L418 1065ZM362 1462H668L289 1126L127 1184L362 1462Z" />
<glyph unicode="&#xee;" glyph-name="icircumflex" horiz-adv-x="581" d="M418 1065V176L440 0H164V827L135 1034L418 1065ZM186 1483H395L629 1210L469 1149L289 1339L113 1149L-47 1210L186 1483Z" />
<glyph unicode="&#xef;" glyph-name="idieresis" horiz-adv-x="581" d="M418 1065V176L440 0H164V827L135 1034L418 1065ZM217 1356T217 1305T184 1217T103 1180T22 1216T-12 1304T21 1394T102 1432T183 1394ZM594 1356T594 1305T560 1217T479 1180T399 1216T365
1305Q365 1358 398 1395T479 1432T560 1394Z" />
<glyph unicode="&#xf0;" glyph-name="eth" horiz-adv-x="1142" d="M696 1411L952 1522V1368L815 1309Q942 1174 1011 990T1081 608Q1081 329 946 151T543 -27Q449 -27 372 1T247 71T163 170T110 276T83 379T72 456T70 498Q70 729 212 892T553 1055Q596 1055 645
1042T721 1016L748 1004Q689 1129 600 1217L303 1087L248 1214L471 1313Q387 1358 287 1376L358 1546Q542 1520 696 1411ZM340 674T340 516T403 257T575 156Q806 156 807 639Q807 739 793 801Q750 834 687 855T575 877Q466 877 403 776Z" />
<glyph unicode="&#xf1;" glyph-name="ntilde" horiz-adv-x="1214" d="M1077 0H801V598Q801 748 777 800T676 852Q606 852 543 824T450 765L420 735V176L442 0H166V825L137 1032L420 1063V938Q559 1065 745 1065Q872 1065 963 997T1055 803V172L1077 0ZM881 1393L991
1313Q989 1307 985 1298T965 1263T925 1218T858 1183T764 1167Q692 1167 615 1202T516 1237Q475 1237 442 1220T394 1185L381 1167L274 1243Q276 1249 281 1259T306 1295T349 1340T416 1376T508 1393Q567 1393 644 1357T748 1321Q846 1321 881 1393Z" />
<glyph unicode="&#xf2;" glyph-name="ograve" horiz-adv-x="1153" d="M1083 541Q1083 301 937 137T543 -27Q324 -27 197 133T70 504Q70 744 215 904T612 1065Q825 1065 954 933T1083 541ZM340 678T340 520T403 259T575 156T747 259T811 520T748 780T576 883T404
781ZM215 1483H520L756 1204L594 1147L215 1483Z" />
<glyph unicode="&#xf3;" glyph-name="oacute" horiz-adv-x="1153" d="M1083 541Q1083 301 937 137T543 -27Q324 -27 197 133T70 504Q70 744 215 904T612 1065Q825 1065 954 933T1083 541ZM340 678T340 520T403 259T575 156T747 259T811 520T748 780T576 883T404
781ZM647 1462H952L573 1126L412 1184L647 1462Z" />
<glyph unicode="&#xf4;" glyph-name="ocircumflex" horiz-adv-x="1153" d="M1083 541Q1083 301 937 137T543 -27Q324 -27 197 133T70 504Q70 744 215 904T612 1065Q825 1065 954 933T1083 541ZM340 678T340 520T403 259T575 156T747 259T811 520T748 780T576 883T404
781ZM471 1483H680L913 1210L754 1149L573 1339L397 1149L238 1210L471 1483Z" />
<glyph unicode="&#xf5;" glyph-name="otilde" horiz-adv-x="1153" d="M1083 541Q1083 301 937 137T543 -27Q324 -27 197 133T70 504Q70 744 215 904T612 1065Q825 1065 954 933T1083 541ZM340 678T340 520T403 259T575 156T747 259T811 520T748 780T576 883T404
781ZM829 1393L940 1313Q938 1307 934 1298T914 1263T874 1218T807 1183T713 1167Q641 1167 563 1202T465 1237Q424 1237 390 1220T343 1185L330 1167L223 1243Q225 1249 230 1259T255 1295T298 1340T365 1376T457 1393Q516 1393 593 1357T696 1321Q794 1321 829
1393Z" />
<glyph unicode="&#xf6;" glyph-name="odieresis" horiz-adv-x="1153" d="M1083 541Q1083 301 937 137T543 -27Q324 -27 197 133T70 504Q70 744 215 904T612 1065Q825 1065 954 933T1083 541ZM340 678T340 520T403 259T575 156T747 259T811 520T748 780T576 883T404
781ZM502 1356T502 1305T468 1217T387 1180T306 1216T272 1304T306 1394T387 1432T468 1394ZM879 1356T879 1305T845 1217T764 1180T683 1216T649 1305Q649 1358 683 1395T764 1432T845 1394Z" />
<glyph unicode="&#xf7;" glyph-name="divide" horiz-adv-x="989" d="M342 842Q342 901 384 943T485 985Q540 985 581 943T623 842Q623 785 582 745T485 705Q426 705 384 745T342 842ZM342 170Q342 229 384 271T485 313Q540 313 581 271T623 170Q623 113 582 73T485
33Q426 33 384 73T342 170ZM137 608H858L801 406H137V608Z" />
<glyph unicode="&#xf8;" glyph-name="oslash" horiz-adv-x="1153" d="M846 1348L772 1042Q917 999 1000 874T1083 541Q1083 301 937 137T543 -27Q539 -27 531 -26T518 -25L442 -342H293L373 0Q289 29 228 90T138 211T92 342T72 446T70 502Q70 752 217 908T612
1065H623L690 1348H846ZM811 520Q811 715 719 817L561 156H575Q684 156 747 259T811 520ZM340 520Q340 330 426 227L580 883H575Q466 883 403 781T340 520Z" />
<glyph unicode="&#xf9;" glyph-name="ugrave" horiz-adv-x="1212" d="M1149 10L883 -27Q832 39 817 113Q803 97 774 74T653 12T465 -27Q338 -27 247 42T156 236V825L127 1032L410 1063V440Q410 297 432 241T528 184T667 216T762 280L791 311V825L762 1032L1044
1063V256Q1044 201 1071 140T1123 44L1149 10ZM240 1483H545L780 1204L618 1147L240 1483Z" />
<glyph unicode="&#xfa;" glyph-name="uacute" horiz-adv-x="1212" d="M1149 10L883 -27Q832 39 817 113Q803 97 774 74T653 12T465 -27Q338 -27 247 42T156 236V825L127 1032L410 1063V440Q410 297 432 241T528 184T667 216T762 280L791 311V825L762 1032L1044
1063V256Q1044 201 1071 140T1123 44L1149 10ZM672 1462H977L598 1126L436 1184L672 1462Z" />
<glyph unicode="&#xfb;" glyph-name="ucircumflex" horiz-adv-x="1212" d="M1149 10L883 -27Q832 39 817 113Q803 97 774 74T653 12T465 -27Q338 -27 247 42T156 236V825L127 1032L410 1063V440Q410 297 432 241T528 184T667 216T762 280L791 311V825L762 1032L1044
1063V256Q1044 201 1071 140T1123 44L1149 10ZM496 1483H705L938 1210L778 1149L598 1339L422 1149L262 1210L496 1483Z" />
<glyph unicode="&#xfc;" glyph-name="udieresis" horiz-adv-x="1212" d="M1149 10L883 -27Q832 39 817 113Q803 97 774 74T653 12T465 -27Q338 -27 247 42T156 236V825L127 1032L410 1063V440Q410 297 432 241T528 184T667 216T762 280L791 311V825L762 1032L1044
1063V256Q1044 201 1071 140T1123 44L1149 10ZM526 1356T526 1305T493 1217T412 1180T331 1216T297 1304T331 1394T412 1432T492 1394ZM903 1356T903 1305T870 1217T789 1180T708 1216T674 1305Q674 1358 707 1395T788 1432T869 1394Z" />
<glyph unicode="&#xfd;" glyph-name="yacute" horiz-adv-x="1050" d="M1051 1063L545 -180Q416 -497 139 -498Q65 -498 -8 -469L-43 -223Q41 -258 109 -258Q201 -258 267 -199T385 6L100 831L0 1022L283 1059L496 403L518 266L553 403L782 1024L1051 1063ZM608
1462H913L535 1126L373 1184L608 1462Z" />
<glyph unicode="&#xfe;" glyph-name="thorn" horiz-adv-x="1153" d="M164 -492V1311L135 1518L418 1548V956Q535 1065 668 1065Q840 1065 958 926T1077 541Q1077 308 925 141T537 -27Q500 -27 418 -18V-315L440 -492H164ZM602 874Q504 874 418 768V166Q490 158
569 158Q667 158 736 263T805 522Q805 684 747 779T602 874Z" />
<glyph unicode="&#xff;" glyph-name="ydieresis" horiz-adv-x="1050" d="M1051 1063L545 -180Q416 -497 139 -498Q65 -498 -8 -469L-43 -223Q41 -258 109 -258Q201 -258 267 -199T385 6L100 831L0 1022L283 1059L496 403L518 266L553 403L782 1024L1051 1063ZM463
1356T463 1305T429 1217T348 1180T267 1216T233 1304T267 1394T348 1432T429 1394ZM840 1356T840 1305T806 1217T725 1180T644 1216T610 1305Q610 1358 644 1395T725 1432T806 1394Z" />
<glyph unicode="&#x131;" glyph-name="dotlessi" horiz-adv-x="581" d="M418 1065V176L440 0H164V827L135 1034L418 1065Z" />
<glyph unicode="&#x141;" glyph-name="Lslash" horiz-adv-x="985" d="M199 0V455L96 395L10 563L199 670V1157L170 1368H465V821L725 971L754 778L465 610V203H987L936 0H199Z" />
<glyph unicode="&#x142;" glyph-name="lslash" horiz-adv-x="581" d="M418 1556V807L532 872L561 680L418 596V176L440 0H164V449L72 395L-6 565L164 662V1319L135 1526L418 1556Z" />
<glyph unicode="&#x152;" glyph-name="OE" horiz-adv-x="1732" d="M63 674Q63 1008 241 1188T668 1368H1642V1165H1153V803H1585L1534 600H1153V203H1669L1618 0H729Q428 0 246 187T63 674ZM344 662Q344 455 446 317T705 178H887V1198H705Q551 1198 448 1038T344 662Z" />
<glyph unicode="&#x153;" glyph-name="oe" horiz-adv-x="1751" d="M1300 1065Q1675 1065 1690 528L1640 479H1073Q1081 346 1141 267T1319 188Q1403 188 1489 225T1619 299L1663 336L1700 121Q1684 105 1650 80T1505 14T1270 -27Q1055 -27 930 129Q780 -27 543
-27Q414 -27 318 26T176 147T105 303T74 432T70 502Q70 752 217 908T612 1065Q833 1065 958 926Q1087 1065 1300 1065ZM340 678T340 520T403 259T575 156T749 259T815 520T750 780T576 883T404 781ZM1276 891Q1124 891 1083 659H1425Q1419 751 1385 821T1276 891Z"
/>
<glyph unicode="&#x160;" glyph-name="Scaron" horiz-adv-x="1003" d="M90 113L111 342Q129 324 163 295T297 219T494 172Q578 172 632 222T686 342Q686 405 626 458T480 557T310 654T165 793T104 989Q104 1159 219 1276T520 1393Q737 1393 901 1290L850 1085Q836
1097 807 1116T691 1166T514 1198Q453 1198 401 1154T348 1042Q348 979 408 926T556 828T729 732T875 592T936 387Q936 209 818 91T508 -27Q389 -27 285 8T135 78L90 113ZM616 1458H408L174 1731L334 1792L514 1602L690 1792L850 1731L616 1458Z" />
<glyph unicode="&#x161;" glyph-name="scaron" horiz-adv-x="874" d="M70 94L94 309Q112 293 144 270T262 206T420 166Q481 166 525 192T569 268Q569 311 518 348T395 415T248 484T123 585T72 733Q72 907 186 985T479 1063Q559 1063 633 1046T739 1012L772 995L725
791Q713 801 692 816T594 857T436 883Q383 883 344 855T305 786Q305 741 356 706T481 639T628 569T753 461T805 295Q805 141 701 57T418 -27Q352 -27 293 -15T195 16T126 52T83 82L70 94ZM545 1149H336L102 1421L262 1483L442 1292L618 1483L778 1421L545 1149Z"
/>
<glyph unicode="&#x178;" glyph-name="Ydieresis" horiz-adv-x="1126" d="M707 612V176L729 0H440V592L127 1194L0 1368H326L567 901L594 821L621 901L860 1368H1126L707 612ZM516 1665T516 1614T483 1526T402 1489T321 1526T287 1614T320 1703T401 1741T482 1703ZM893
1665T893 1614T859 1526T778 1489T698 1526T664 1614Q664 1667 697 1704T778 1741T859 1703Z" />
<glyph unicode="&#x17d;" glyph-name="Zcaron" horiz-adv-x="1179" d="M49 0L39 72L664 1053L748 1159H70L125 1368H1112L1122 1296L502 315L418 207H1145V0H49ZM700 1458H492L258 1731L418 1792L598 1602L774 1792L934 1731L700 1458Z" />
<glyph unicode="&#x17e;" glyph-name="zcaron" horiz-adv-x="931" d="M29 0L20 59L473 762L539 844H33L86 1034H883L891 975L438 270L375 190H901V0H29ZM586 1149H377L143 1421L303 1483L483 1292L659 1483L819 1421L586 1149Z" />
<glyph unicode="&#x192;" glyph-name="florin" horiz-adv-x="1009" d="M932 1034L840 860H641L518 -25Q489 -238 357 -367T33 -498L-29 -324Q96 -324 175 -246T272 -23L387 860H240L274 1034H408L422 1153Q453 1354 568 1449T831 1544Q960 1544 1065 1479L971
1286Q922 1335 819 1335Q774 1335 735 1295T684 1184L662 1034H932Z" />
<glyph unicode="&#x2c6;" glyph-name="circumflex" horiz-adv-x="843" d="M315 1483H524L758 1210L598 1149L418 1339L242 1149L82 1210L315 1483Z" />
<glyph unicode="&#x2c7;" glyph-name="caron" horiz-adv-x="843" d="M524 1149H315L82 1421L242 1483L422 1292L598 1483L758 1421L524 1149Z" />
<glyph unicode="&#x2d8;" glyph-name="breve" horiz-adv-x="843" d="M367 1303T408 1303T492 1352T557 1450L580 1499L754 1440Q750 1428 743 1405T706 1327T640 1230T542 1153T408 1118T274 1151T174 1231T111 1326T73 1407L61 1440L236 1499Q244 1476 259 1444T320
1357Z" />
<glyph unicode="&#x2d9;" glyph-name="dotaccent" horiz-adv-x="401" d="M338 1307Q338 1252 297 1213T197 1174T95 1212T53 1307Q53 1360 95 1399T197 1438Q254 1438 296 1399T338 1307Z" />
<glyph unicode="&#x2da;" glyph-name="ring" horiz-adv-x="1085" d="M719 1405T719 1331T663 1204T533 1151T405 1204T350 1331T404 1458T532 1511T662 1458ZM623 1333Q623 1368 596 1394T535 1421Q498 1421 472 1395T446 1333T472 1268T535 1237Q576 1237 599
1266T623 1333Z" />
<glyph unicode="&#x2db;" glyph-name="ogonek" horiz-adv-x="585" d="M272 31H473Q413 -18 343 -110Q199 -297 360 -297H459V-469Q424 -477 365 -477Q250 -477 164 -435T78 -301Q78 -221 136 -128T272 31Z" />
<glyph unicode="&#x2dc;" glyph-name="tilde" horiz-adv-x="798" d="M668 1393L778 1313Q776 1307 772 1298T752 1263T712 1218T645 1183T551 1167Q479 1167 402 1202T303 1237Q262 1237 229 1220T181 1185L168 1167L61 1243Q63 1249 68 1259T93 1295T136 1340T203
1376T295 1393Q354 1393 431 1357T535 1321Q633 1321 668 1393Z" />
<glyph unicode="&#x2dd;" glyph-name="hungarumlaut" horiz-adv-x="1218" d="M334 1483H639L260 1147L98 1204L334 1483ZM752 1483H1057L678 1147L516 1204L752 1483Z" />
<glyph unicode="&#x2013;" glyph-name="endash" horiz-adv-x="946" d="M74 612H899L842 399H74V612Z" />
<glyph unicode="&#x2014;" glyph-name="emdash" horiz-adv-x="1411" d="M74 612H1360L1303 399H74V612Z" />
<glyph unicode="&#x2018;" glyph-name="quoteleft" horiz-adv-x="573" d="M387 1401L469 1300Q348 1191 348 1102Q348 1061 361 1042T408 1008V993Q408 944 368 899T270 854Q209 854 167 895T125 1012Q125 1096 190 1203T387 1401Z" />
<glyph unicode="&#x2019;" glyph-name="quoteright" horiz-adv-x="573" d="M186 854L104 954Q225 1063 225 1153Q225 1194 212 1213T166 1247V1262Q166 1311 206 1356T303 1401Q364 1401 406 1360T449 1243Q449 1159 383 1052T186 854Z" />
<glyph unicode="&#x201a;" glyph-name="quotesinglbase" horiz-adv-x="573" d="M186 -272L104 -172Q225 -63 225 27Q225 68 212 87T166 121V135Q166 184 206 229T303 274Q364 274 406 234T449 117Q449 33 383 -74T186 -272Z" />
<glyph unicode="&#x201c;" glyph-name="quotedblleft" horiz-adv-x="931" d="M387 1401L469 1300Q348 1191 348 1102Q348 1061 361 1042T408 1008V993Q408 944 368 899T270 854Q209 854 167 895T125 1012Q125 1096 190 1203T387 1401ZM745 1401L827 1300Q706 1191
707 1102Q707 1061 720 1042T766 1008V993Q766 944 726 899T629 854Q568 854 526 895T483 1012Q483 1096 548 1203T745 1401Z" />
<glyph unicode="&#x201d;" glyph-name="quotedblright" horiz-adv-x="931" d="M207 854L125 954Q246 1063 246 1153Q246 1194 233 1213T186 1247V1262Q186 1311 226 1356T324 1401Q385 1401 427 1360T469 1243Q469 1159 404 1052T207 854ZM565 854L483 954Q604
1063 604 1153Q604 1194 591 1213T545 1247V1262Q545 1311 585 1356T682 1401Q743 1401 785 1360T827 1243Q827 1159 762 1052T565 854Z" />
<glyph unicode="&#x201e;" glyph-name="quotedblbase" horiz-adv-x="931" d="M186 -272L104 -172Q225 -63 225 27Q225 68 212 87T166 121V135Q166 184 206 229T303 274Q364 274 406 234T449 117Q449 33 383 -74T186 -272ZM545 -272L463 -172Q584 -63 584 27Q584
68 571 87T524 121V135Q524 184 564 229T662 274Q723 274 765 234T807 117Q807 33 742 -74T545 -272Z" />
<glyph unicode="&#x2020;" glyph-name="dagger" horiz-adv-x="1017" d="M592 -502H340V844H76V1034H340V1327L592 1358V1034H934L854 844H592V-502Z" />
<glyph unicode="&#x2021;" glyph-name="daggerdbl" horiz-adv-x="1017" d="M592 -502H340V0H76V190H340V844H76V1034H340V1327L592 1358V1034H934L854 844H592V190H907L827 0H592V-502Z" />
<glyph unicode="&#x2022;" glyph-name="bullet" horiz-adv-x="888" d="M442 817Q571 817 663 726T756 506Q756 375 664 283T442 190Q311 190 219 281T127 506Q127 635 219 726T442 817Z" />
<glyph unicode="&#x2026;" glyph-name="ellipsis" horiz-adv-x="1509" d="M403 104Q403 49 367 11T276 -27Q221 -27 183 11T145 104Q145 157 183 194T276 231Q327 231 365 193T403 104ZM885 104Q885 49 848 11T758 -27T666 11T627 104Q627 155 666 193T758 231T848
193T885 104ZM1358 104Q1358 49 1320 11T1229 -27T1138 11T1100 104Q1100 157 1138 194T1229 231T1320 194T1358 104Z" />
<glyph unicode="&#x2030;" glyph-name="perthousand" horiz-adv-x="2527" d="M793 1174T793 1039T691 804T453 705Q320 705 220 804T119 1038T219 1273T453 1372Q588 1372 690 1273ZM612 1040Q612 1101 564 1147T455 1194Q392 1194 346 1149T299 1040Q299 979
344 928T455 877Q527 877 569 927T612 1040ZM1448 1325L530 0H291L1253 1409L1448 1325ZM1642 442T1642 307T1540 73T1303 -27Q1170 -27 1070 72T969 307T1069 541T1303 641Q1438 641 1540 542ZM1462 309Q1462 370 1414 416T1305 463Q1242 463 1196 418T1149 309Q1149
248 1194 197T1305 145Q1377 145 1419 195T1462 309ZM2408 442T2408 307T2306 73T2068 -27Q1935 -27 1835 72T1735 307T1835 541T2068 641Q2203 641 2305 542ZM2228 309Q2228 370 2180 416T2071 463Q2008 463 1962 418T1915 309Q1915 248 1960 197T2071 145Q2143
145 2185 195T2228 309Z" />
<glyph unicode="&#x2039;" glyph-name="guilsinglleft" horiz-adv-x="765" d="M694 821L381 504L694 190L602 6L51 506L602 1006L694 821Z" />
<glyph unicode="&#x203a;" glyph-name="guilsinglright" horiz-adv-x="765" d="M72 190L385 508L72 821L164 1006L715 506L164 6L72 190Z" />
<glyph unicode="&#x2044;" glyph-name="fraction" horiz-adv-x="1114" d="M1157 1309L252 0H-8L948 1391L1157 1309Z" />
<glyph unicode="&#x20ac;" glyph-name="Euro" horiz-adv-x="1251" d="M8 922H147Q210 1141 385 1265T793 1389Q1022 1389 1182 1284L1108 1079Q971 1185 776 1186Q651 1186 547 1115T399 922H1051L985 739H365Q357 639 365 590H948L883 408H391Q467 183 770 182Q973
182 1147 326V92Q961 -27 733 -27Q516 -27 358 78T143 408H8V590H125Q117 674 127 739H8V922Z" />
<glyph unicode="&#x2122;" glyph-name="trademark" horiz-adv-x="1662" d="M55 1284V1444H647V1284H457V791L471 674H238V1284H55ZM1167 698L922 1036V791L936 674H715V1311L698 1444H858L1169 1006L1448 1444H1606V791L1620 674H1378V1026L1167 698Z" />
<glyph unicode="&#x2202;" glyph-name="partialdiff" horiz-adv-x="45" d="M35 1421V0H10V1421H35Z" />
<glyph unicode="&#x222b;" glyph-name="integral'" horiz-adv-x="1044" d="M164 0V197H416V944L215 883L141 1065L670 1239V197H922L893 0H164Z" />
<glyph unicode="&#xfb00;" glyph-name="uniFB00" horiz-adv-x="1384" d="M633 1565Q832 1565 975 1479Q1063 1565 1206 1565Q1343 1565 1477 1487L1391 1280Q1309 1346 1227 1346Q1123 1346 1122 1194V1034H1380L1313 844H1122V233L1145 0H868V844H430V233L453
0H176V844H51V1034H176V1137Q176 1243 222 1328T339 1463T486 1539T633 1565ZM430 1133V1034H868V1157Q868 1218 879 1284Q758 1354 655 1354Q557 1354 494 1299T430 1133Z" />
<glyph unicode="&#xfb01;" glyph-name="uniFB01" horiz-adv-x="1273" d="M1110 1065V176L1133 0H856V772L848 844H430V233L453 0H176V844H51V1034H176V1137Q176 1243 222 1328T339 1463T486 1539T633 1565Q711 1565 780 1552T895 1519T974 1480T1022 1447L1036
1434L963 1221Q916 1268 828 1311T655 1354Q557 1354 494 1299T430 1133V1034H827L1110 1065Z" />
<glyph unicode="&#xfb02;" glyph-name="uniFB02" horiz-adv-x="1273" d="M430 1034H688L621 844H430V233L453 0H176V844H51V1034H176V1137Q176 1243 222 1328T339 1463T486 1539T633 1565Q701 1565 858 1523T1110 1464V176L1133 0H856V1296Q745 1353 655 1354Q557
1354 494 1299T430 1133V1034Z" />
<glyph unicode="&#xfb03;" glyph-name="uniFB03" horiz-adv-x="1966" d="M1802 1065V176L1825 0H1548V772L1540 844H1122V233L1145 0H868V844H430V233L453 0H176V844H51V1034H176V1137Q176 1243 222 1328T339 1463T486 1539T633 1565Q877 1565 1016 1450Q1155
1565 1325 1565Q1403 1565 1472 1552T1587 1519T1666 1480T1714 1447L1729 1434L1655 1221Q1608 1268 1520 1311T1348 1354Q1250 1354 1186 1299T1122 1133V1034H1520L1802 1065ZM868 1034V1137Q868 1213 891 1276Q770 1354 655 1354Q557 1354 494 1299T430 1133V1034H868Z"
/>
<glyph unicode="&#xfb04;" glyph-name="uniFB04" horiz-adv-x="1966" d="M1122 1034H1380L1313 844H1122V233L1145 0H868V844H430V233L453 0H176V844H51V1034H176V1137Q176 1243 222 1328T339 1463T486 1539T633 1565Q877 1565 1016 1450Q1155 1565 1325 1565Q1393
1565 1550 1523T1802 1464V176L1825 0H1548V1296Q1437 1353 1348 1354Q1250 1354 1186 1299T1122 1133V1034ZM430 1133V1034H868V1137Q868 1213 891 1276Q770 1354 655 1354Q557 1354 494 1299T430 1133Z" />
</font>
</defs>
</svg>
